<svg version="1.1" xmlns="http://www.w3.org/2000/svg" xmlns:xlink="http://www.w3.org/1999/xlink" width="796" height="340"><defs/><g><text fill="#eeeeee" stroke="none" font-family="Arial" font-size="24px" font-style="normal" font-weight="normal" text-decoration="none" x="0" y="0">UNREGISTERED</text><text fill="#eeeeee" stroke="none" font-family="Arial" font-size="24px" font-style="normal" font-weight="normal" text-decoration="none" x="0" y="30">UNREGISTERED</text><text fill="#eeeeee" stroke="none" font-family="Arial" font-size="24px" font-style="normal" font-weight="normal" text-decoration="none" x="0" y="60">UNREGISTERED</text><text fill="#eeeeee" stroke="none" font-family="Arial" font-size="24px" font-style="normal" font-weight="normal" text-decoration="none" x="0" y="90">UNREGISTERED</text><text fill="#eeeeee" stroke="none" font-family="Arial" font-size="24px" font-style="normal" font-weight="normal" text-decoration="none" x="0" y="120">UNREGISTERED</text><text fill="#eeeeee" stroke="none" font-family="Arial" font-size="24px" font-style="normal" font-weight="normal" text-decoration="none" x="0" y="150">UNREGISTERED</text><text fill="#eeeeee" stroke="none" font-family="Arial" font-size="24px" font-style="normal" font-weight="normal" text-decoration="none" x="0" y="180">UNREGISTERED</text><text fill="#eeeeee" stroke="none" font-family="Arial" font-size="24px" font-style="normal" font-weight="normal" text-decoration="none" x="0" y="210">UNREGISTERED</text><text fill="#eeeeee" stroke="none" font-family="Arial" font-size="24px" font-style="normal" font-weight="normal" text-decoration="none" x="0" y="240">UNREGISTERED</text><text fill="#eeeeee" stroke="none" font-family="Arial" font-size="24px" font-style="normal" font-weight="normal" text-decoration="none" x="0" y="270">UNREGISTERED</text><text fill="#eeeeee" stroke="none" font-family="Arial" font-size="24px" font-style="normal" font-weight="normal" text-decoration="none" x="0" y="300">UNREGISTERED</text><text fill="#eeeeee" stroke="none" font-family="Arial" font-size="24px" font-style="normal" font-weight="normal" text-decoration="none" x="0" y="330">UNREGISTERED</text><text fill="#eeeeee" stroke="none" font-family="Arial" font-size="24px" font-style="normal" font-weight="normal" text-decoration="none" x="200" y="0">UNREGISTERED</text><text fill="#eeeeee" stroke="none" font-family="Arial" font-size="24px" font-style="normal" font-weight="normal" text-decoration="none" x="200" y="30">UNREGISTERED</text><text fill="#eeeeee" stroke="none" font-family="Arial" font-size="24px" font-style="normal" font-weight="normal" text-decoration="none" x="200" y="60">UNREGISTERED</text><text fill="#eeeeee" stroke="none" font-family="Arial" font-size="24px" font-style="normal" font-weight="normal" text-decoration="none" x="200" y="90">UNREGISTERED</text><text fill="#eeeeee" stroke="none" font-family="Arial" font-size="24px" font-style="normal" font-weight="normal" text-decoration="none" x="200" y="120">UNREGISTERED</text><text fill="#eeeeee" stroke="none" font-family="Arial" font-size="24px" font-style="normal" font-weight="normal" text-decoration="none" x="200" y="150">UNREGISTERED</text><text fill="#eeeeee" stroke="none" font-family="Arial" font-size="24px" font-style="normal" font-weight="normal" text-decoration="none" x="200" y="180">UNREGISTERED</text><text fill="#eeeeee" stroke="none" font-family="Arial" font-size="24px" font-style="normal" font-weight="normal" text-decoration="none" x="200" y="210">UNREGISTERED</text><text fill="#eeeeee" stroke="none" font-family="Arial" font-size="24px" font-style="normal" font-weight="normal" text-decoration="none" x="200" y="240">UNREGISTERED</text><text fill="#eeeeee" stroke="none" font-family="Arial" font-size="24px" font-style="normal" font-weight="normal" text-decoration="none" x="200" y="270">UNREGISTERED</text><text fill="#eeeeee" stroke="none" font-family="Arial" font-size="24px" font-style="normal" font-weight="normal" text-decoration="none" x="200" y="300">UNREGISTERED</text><text fill="#eeeeee" stroke="none" font-family="Arial" font-size="24px" font-style="normal" font-weight="normal" text-decoration="none" x="200" y="330">UNREGISTERED</text><text fill="#eeeeee" stroke="none" font-family="Arial" font-size="24px" font-style="normal" font-weight="normal" text-decoration="none" x="400" y="0">UNREGISTERED</text><text fill="#eeeeee" stroke="none" font-family="Arial" font-size="24px" font-style="normal" font-weight="normal" text-decoration="none" x="400" y="30">UNREGISTERED</text><text fill="#eeeeee" stroke="none" font-family="Arial" font-size="24px" font-style="normal" font-weight="normal" text-decoration="none" x="400" y="60">UNREGISTERED</text><text fill="#eeeeee" stroke="none" font-family="Arial" font-size="24px" font-style="normal" font-weight="normal" text-decoration="none" x="400" y="90">UNREGISTERED</text><text fill="#eeeeee" stroke="none" font-family="Arial" font-size="24px" font-style="normal" font-weight="normal" text-decoration="none" x="400" y="120">UNREGISTERED</text><text fill="#eeeeee" stroke="none" font-family="Arial" font-size="24px" font-style="normal" font-weight="normal" text-decoration="none" x="400" y="150">UNREGISTERED</text><text fill="#eeeeee" stroke="none" font-family="Arial" font-size="24px" font-style="normal" font-weight="normal" text-decoration="none" x="400" y="180">UNREGISTERED</text><text fill="#eeeeee" stroke="none" font-family="Arial" font-size="24px" font-style="normal" font-weight="normal" text-decoration="none" x="400" y="210">UNREGISTERED</text><text fill="#eeeeee" stroke="none" font-family="Arial" font-size="24px" font-style="normal" font-weight="normal" text-decoration="none" x="400" y="240">UNREGISTERED</text><text fill="#eeeeee" stroke="none" font-family="Arial" font-size="24px" font-style="normal" font-weight="normal" text-decoration="none" x="400" y="270">UNREGISTERED</text><text fill="#eeeeee" stroke="none" font-family="Arial" font-size="24px" font-style="normal" font-weight="normal" text-decoration="none" x="400" y="300">UNREGISTERED</text><text fill="#eeeeee" stroke="none" font-family="Arial" font-size="24px" font-style="normal" font-weight="normal" text-decoration="none" x="400" y="330">UNREGISTERED</text><text fill="#eeeeee" stroke="none" font-family="Arial" font-size="24px" font-style="normal" font-weight="normal" text-decoration="none" x="600" y="0">UNREGISTERED</text><text fill="#eeeeee" stroke="none" font-family="Arial" font-size="24px" font-style="normal" font-weight="normal" text-decoration="none" x="600" y="30">UNREGISTERED</text><text fill="#eeeeee" stroke="none" font-family="Arial" font-size="24px" font-style="normal" font-weight="normal" text-decoration="none" x="600" y="60">UNREGISTERED</text><text fill="#eeeeee" stroke="none" font-family="Arial" font-size="24px" font-style="normal" font-weight="normal" text-decoration="none" x="600" y="90">UNREGISTERED</text><text fill="#eeeeee" stroke="none" font-family="Arial" font-size="24px" font-style="normal" font-weight="normal" text-decoration="none" x="600" y="120">UNREGISTERED</text><text fill="#eeeeee" stroke="none" font-family="Arial" font-size="24px" font-style="normal" font-weight="normal" text-decoration="none" x="600" y="150">UNREGISTERED</text><text fill="#eeeeee" stroke="none" font-family="Arial" font-size="24px" font-style="normal" font-weight="normal" text-decoration="none" x="600" y="180">UNREGISTERED</text><text fill="#eeeeee" stroke="none" font-family="Arial" font-size="24px" font-style="normal" font-weight="normal" text-decoration="none" x="600" y="210">UNREGISTERED</text><text fill="#eeeeee" stroke="none" font-family="Arial" font-size="24px" font-style="normal" font-weight="normal" text-decoration="none" x="600" y="240">UNREGISTERED</text><text fill="#eeeeee" stroke="none" font-family="Arial" font-size="24px" font-style="normal" font-weight="normal" text-decoration="none" x="600" y="270">UNREGISTERED</text><text fill="#eeeeee" stroke="none" font-family="Arial" font-size="24px" font-style="normal" font-weight="normal" text-decoration="none" x="600" y="300">UNREGISTERED</text><text fill="#eeeeee" stroke="none" font-family="Arial" font-size="24px" font-style="normal" font-weight="normal" text-decoration="none" x="600" y="330">UNREGISTERED</text><g transform="translate(-22,-6) scale(1,1)"><path fill="none" stroke="#000000" d="M 32 16 L 808 16 L 808 336 L 32 336 L 32 16" stroke-miterlimit="10"/></g><g transform="translate(-22,-6) scale(1,1)"><path fill="#ffffff" stroke="none" d="M 32 16 L 32 38 L 165.05078125 38 L 176.05078125 27 L 176.05078125 16 L 32 16"/></g><g transform="translate(-22,-6) scale(1,1)"><path fill="none" stroke="#000000" d="M 32 16 L 32 38 L 165.05078125 38 L 176.05078125 27 L 176.05078125 16 L 32 16 L 32 16" stroke-miterlimit="10"/></g><g transform="translate(-22,-6) scale(1,1)"><g><path fill="none" stroke="none"/><text fill="#000000" stroke="none" font-family="Arial" font-size="13px" font-style="normal" font-weight="normal" text-decoration="none" x="56.72998046875" y="32">ManipularCarteira</text></g></g><g transform="translate(-22,-6) scale(1,1)"><g><path fill="none" stroke="none"/><text fill="#000000" stroke="none" font-family="Arial" font-size="13px" font-style="normal" font-weight="bold" text-decoration="none" x="36.279541015625" y="32">sd</text></g></g><g transform="translate(-22,-6) scale(1,1)"><path fill="#ffffff" stroke="none" d="M 186.0804305752841 47.3 C 186.0804305752841 43.82060576 188.9588322974659 41 192.509521484375 41 C 196.0602106712841 41 198.93861239346592 43.82060576 198.93861239346592 47.3 C 198.93861239346592 50.779394239999995 196.0602106712841 53.6 192.509521484375 53.6 C 188.9588322974659 53.6 186.0804305752841 50.779394239999995 186.0804305752841 47.3 Z"/></g><g transform="translate(-22,-6) scale(1,1)"><path fill="none" stroke="#000000" d="M 186.0804305752841 47.3 C 186.0804305752841 43.82060576 188.9588322974659 41 192.509521484375 41 C 196.0602106712841 41 198.93861239346592 43.82060576 198.93861239346592 47.3 C 198.93861239346592 50.779394239999995 196.0602106712841 53.6 192.509521484375 53.6 C 188.9588322974659 53.6 186.0804305752841 50.779394239999995 186.0804305752841 47.3 Z" stroke-miterlimit="10"/></g><g transform="translate(-22,-6) scale(1,1)"><path fill="none" stroke="#000000" d="M 192.509521484375 53.6 L 192.509521484375 66.4" stroke-miterlimit="10"/></g><g transform="translate(-22,-6) scale(1,1)"><path fill="none" stroke="#000000" d="M 185.7022487571023 58.4 L 199.31679421164773 58.4" stroke-miterlimit="10"/></g><g transform="translate(-22,-6) scale(1,1)"><path fill="none" stroke="#000000" d="M 192.509521484375 66.4 L 183.05497602982956 79" stroke-miterlimit="10"/></g><g transform="translate(-22,-6) scale(1,1)"><path fill="none" stroke="#000000" d="M 192.509521484375 66.4 L 201.96406693892047 79" stroke-miterlimit="10"/></g><g transform="translate(-22,-6) scale(1,1)"><g><path fill="none" stroke="none"/><text fill="#000000" stroke="none" font-family="Arial" font-size="13px" font-style="normal" font-weight="bold" text-decoration="none" x="166.8681640625" y="98">: Cliente</text></g></g><g transform="translate(-22,-6) scale(1,1)"><path fill="none" stroke="#000000" d="M 193.5 105 L 193.5 190" stroke-miterlimit="10" stroke-dasharray="3"/></g><g transform="translate(-22,-6) scale(1,1)"><rect fill="#C0C0C0" stroke="none" x="567" y="47" width="129.55078125" height="39" opacity="0.2"/></g><g transform="translate(-22,-6) scale(1,1)"><rect fill="#ffffff" stroke="none" x="560" y="40" width="129.55078125" height="39"/></g><g transform="translate(-22,-6) scale(1,1)"><path fill="none" stroke="#000000" d="M 560 40 L 689.55078125 40 L 689.55078125 79 L 560 79 L 560 40 Z Z" stroke-miterlimit="10"/></g><g transform="translate(-22,-6) scale(1,1)"><g><path fill="none" stroke="none"/><text fill="#000000" stroke="none" font-family="Arial" font-size="13px" font-style="normal" font-weight="bold" text-decoration="none" x="569.5" y="58">Carteira de Ações</text></g></g><g transform="translate(-22,-6) scale(1,1)"><path fill="none" stroke="#000000" d="M 625.5 80 L 625.5 206" stroke-miterlimit="10" stroke-dasharray="3"/></g><g transform="translate(-22,-6) scale(1,1)"><path fill="none" stroke="#000000" d="M 193 128 L 618 128" stroke-miterlimit="10"/></g><g transform="translate(-22,-6) scale(1,1)"><path fill="#000000" stroke="none" d="M 607.8373251423759 132.209517756016 L 618 128 L 607.8373251423758 123.79048224398402"/></g><g transform="translate(-22,-6) scale(1,1)"><path fill="none" stroke="#000000" d="M 607.8373251423759 132.209517756016 L 618 128 L 607.8373251423758 123.79048224398402 L 607.8373251423759 132.209517756016" stroke-miterlimit="10"/></g><g transform="translate(-22,-6) scale(1,1)"><g><path fill="none" stroke="none"/><text fill="#000000" stroke="none" font-family="Arial" font-size="13px" font-style="normal" font-weight="normal" text-decoration="none" x="348.5" y="123">1 : visualizaAcoes()</text></g></g><g transform="translate(-22,-6) scale(1,1)"><rect fill="#ffffff" stroke="none" x="618" y="128" width="13" height="56"/></g><g transform="translate(-22,-6) scale(1,1)"><path fill="none" stroke="#000000" d="M 618 128 L 631 128 L 631 184 L 618 184 L 618 128 Z Z" stroke-miterlimit="10"/></g><g transform="translate(-22,-6) scale(1,1)"><path fill="none" stroke="#000000" d="M 618 176 L 193 176" stroke-miterlimit="10" stroke-dasharray="3"/></g><g transform="translate(-22,-6) scale(1,1)"><path fill="none" stroke="#000000" d="M 203.16267485762415 171.790482243984 L 193 176 L 203.16267485762415 180.209517756016" stroke-miterlimit="10"/></g><g transform="translate(-22,-6) scale(1,1)"><g><path fill="none" stroke="none"/><text fill="#000000" stroke="none" font-family="Arial" font-size="13px" font-style="normal" font-weight="normal" text-decoration="none" x="357.5" y="191">2 : exibeAcoes()</text></g></g></g></svg>