<svg version="1.1" xmlns="http://www.w3.org/2000/svg" xmlns:xlink="http://www.w3.org/1999/xlink" width="796.63623046875" height="704"><defs/><g><text fill="#eeeeee" stroke="none" font-family="Arial" font-size="24px" font-style="normal" font-weight="normal" text-decoration="none" x="0" y="0">UNREGISTERED</text><text fill="#eeeeee" stroke="none" font-family="Arial" font-size="24px" font-style="normal" font-weight="normal" text-decoration="none" x="0" y="30">UNREGISTERED</text><text fill="#eeeeee" stroke="none" font-family="Arial" font-size="24px" font-style="normal" font-weight="normal" text-decoration="none" x="0" y="60">UNREGISTERED</text><text fill="#eeeeee" stroke="none" font-family="Arial" font-size="24px" font-style="normal" font-weight="normal" text-decoration="none" x="0" y="90">UNREGISTERED</text><text fill="#eeeeee" stroke="none" font-family="Arial" font-size="24px" font-style="normal" font-weight="normal" text-decoration="none" x="0" y="120">UNREGISTERED</text><text fill="#eeeeee" stroke="none" font-family="Arial" font-size="24px" font-style="normal" font-weight="normal" text-decoration="none" x="0" y="150">UNREGISTERED</text><text fill="#eeeeee" stroke="none" font-family="Arial" font-size="24px" font-style="normal" font-weight="normal" text-decoration="none" x="0" y="180">UNREGISTERED</text><text fill="#eeeeee" stroke="none" font-family="Arial" font-size="24px" font-style="normal" font-weight="normal" text-decoration="none" x="0" y="210">UNREGISTERED</text><text fill="#eeeeee" stroke="none" font-family="Arial" font-size="24px" font-style="normal" font-weight="normal" text-decoration="none" x="0" y="240">UNREGISTERED</text><text fill="#eeeeee" stroke="none" font-family="Arial" font-size="24px" font-style="normal" font-weight="normal" text-decoration="none" x="0" y="270">UNREGISTERED</text><text fill="#eeeeee" stroke="none" font-family="Arial" font-size="24px" font-style="normal" font-weight="normal" text-decoration="none" x="0" y="300">UNREGISTERED</text><text fill="#eeeeee" stroke="none" font-family="Arial" font-size="24px" font-style="normal" font-weight="normal" text-decoration="none" x="0" y="330">UNREGISTERED</text><text fill="#eeeeee" stroke="none" font-family="Arial" font-size="24px" font-style="normal" font-weight="normal" text-decoration="none" x="0" y="360">UNREGISTERED</text><text fill="#eeeeee" stroke="none" font-family="Arial" font-size="24px" font-style="normal" font-weight="normal" text-decoration="none" x="0" y="390">UNREGISTERED</text><text fill="#eeeeee" stroke="none" font-family="Arial" font-size="24px" font-style="normal" font-weight="normal" text-decoration="none" x="0" y="420">UNREGISTERED</text><text fill="#eeeeee" stroke="none" font-family="Arial" font-size="24px" font-style="normal" font-weight="normal" text-decoration="none" x="0" y="450">UNREGISTERED</text><text fill="#eeeeee" stroke="none" font-family="Arial" font-size="24px" font-style="normal" font-weight="normal" text-decoration="none" x="0" y="480">UNREGISTERED</text><text fill="#eeeeee" stroke="none" font-family="Arial" font-size="24px" font-style="normal" font-weight="normal" text-decoration="none" x="0" y="510">UNREGISTERED</text><text fill="#eeeeee" stroke="none" font-family="Arial" font-size="24px" font-style="normal" font-weight="normal" text-decoration="none" x="0" y="540">UNREGISTERED</text><text fill="#eeeeee" stroke="none" font-family="Arial" font-size="24px" font-style="normal" font-weight="normal" text-decoration="none" x="0" y="570">UNREGISTERED</text><text fill="#eeeeee" stroke="none" font-family="Arial" font-size="24px" font-style="normal" font-weight="normal" text-decoration="none" x="0" y="600">UNREGISTERED</text><text fill="#eeeeee" stroke="none" font-family="Arial" font-size="24px" font-style="normal" font-weight="normal" text-decoration="none" x="0" y="630">UNREGISTERED</text><text fill="#eeeeee" stroke="none" font-family="Arial" font-size="24px" font-style="normal" font-weight="normal" text-decoration="none" x="0" y="660">UNREGISTERED</text><text fill="#eeeeee" stroke="none" font-family="Arial" font-size="24px" font-style="normal" font-weight="normal" text-decoration="none" x="0" y="690">UNREGISTERED</text><text fill="#eeeeee" stroke="none" font-family="Arial" font-size="24px" font-style="normal" font-weight="normal" text-decoration="none" x="200" y="0">UNREGISTERED</text><text fill="#eeeeee" stroke="none" font-family="Arial" font-size="24px" font-style="normal" font-weight="normal" text-decoration="none" x="200" y="30">UNREGISTERED</text><text fill="#eeeeee" stroke="none" font-family="Arial" font-size="24px" font-style="normal" font-weight="normal" text-decoration="none" x="200" y="60">UNREGISTERED</text><text fill="#eeeeee" stroke="none" font-family="Arial" font-size="24px" font-style="normal" font-weight="normal" text-decoration="none" x="200" y="90">UNREGISTERED</text><text fill="#eeeeee" stroke="none" font-family="Arial" font-size="24px" font-style="normal" font-weight="normal" text-decoration="none" x="200" y="120">UNREGISTERED</text><text fill="#eeeeee" stroke="none" font-family="Arial" font-size="24px" font-style="normal" font-weight="normal" text-decoration="none" x="200" y="150">UNREGISTERED</text><text fill="#eeeeee" stroke="none" font-family="Arial" font-size="24px" font-style="normal" font-weight="normal" text-decoration="none" x="200" y="180">UNREGISTERED</text><text fill="#eeeeee" stroke="none" font-family="Arial" font-size="24px" font-style="normal" font-weight="normal" text-decoration="none" x="200" y="210">UNREGISTERED</text><text fill="#eeeeee" stroke="none" font-family="Arial" font-size="24px" font-style="normal" font-weight="normal" text-decoration="none" x="200" y="240">UNREGISTERED</text><text fill="#eeeeee" stroke="none" font-family="Arial" font-size="24px" font-style="normal" font-weight="normal" text-decoration="none" x="200" y="270">UNREGISTERED</text><text fill="#eeeeee" stroke="none" font-family="Arial" font-size="24px" font-style="normal" font-weight="normal" text-decoration="none" x="200" y="300">UNREGISTERED</text><text fill="#eeeeee" stroke="none" font-family="Arial" font-size="24px" font-style="normal" font-weight="normal" text-decoration="none" x="200" y="330">UNREGISTERED</text><text fill="#eeeeee" stroke="none" font-family="Arial" font-size="24px" font-style="normal" font-weight="normal" text-decoration="none" x="200" y="360">UNREGISTERED</text><text fill="#eeeeee" stroke="none" font-family="Arial" font-size="24px" font-style="normal" font-weight="normal" text-decoration="none" x="200" y="390">UNREGISTERED</text><text fill="#eeeeee" stroke="none" font-family="Arial" font-size="24px" font-style="normal" font-weight="normal" text-decoration="none" x="200" y="420">UNREGISTERED</text><text fill="#eeeeee" stroke="none" font-family="Arial" font-size="24px" font-style="normal" font-weight="normal" text-decoration="none" x="200" y="450">UNREGISTERED</text><text fill="#eeeeee" stroke="none" font-family="Arial" font-size="24px" font-style="normal" font-weight="normal" text-decoration="none" x="200" y="480">UNREGISTERED</text><text fill="#eeeeee" stroke="none" font-family="Arial" font-size="24px" font-style="normal" font-weight="normal" text-decoration="none" x="200" y="510">UNREGISTERED</text><text fill="#eeeeee" stroke="none" font-family="Arial" font-size="24px" font-style="normal" font-weight="normal" text-decoration="none" x="200" y="540">UNREGISTERED</text><text fill="#eeeeee" stroke="none" font-family="Arial" font-size="24px" font-style="normal" font-weight="normal" text-decoration="none" x="200" y="570">UNREGISTERED</text><text fill="#eeeeee" stroke="none" font-family="Arial" font-size="24px" font-style="normal" font-weight="normal" text-decoration="none" x="200" y="600">UNREGISTERED</text><text fill="#eeeeee" stroke="none" font-family="Arial" font-size="24px" font-style="normal" font-weight="normal" text-decoration="none" x="200" y="630">UNREGISTERED</text><text fill="#eeeeee" stroke="none" font-family="Arial" font-size="24px" font-style="normal" font-weight="normal" text-decoration="none" x="200" y="660">UNREGISTERED</text><text fill="#eeeeee" stroke="none" font-family="Arial" font-size="24px" font-style="normal" font-weight="normal" text-decoration="none" x="200" y="690">UNREGISTERED</text><text fill="#eeeeee" stroke="none" font-family="Arial" font-size="24px" font-style="normal" font-weight="normal" text-decoration="none" x="400" y="0">UNREGISTERED</text><text fill="#eeeeee" stroke="none" font-family="Arial" font-size="24px" font-style="normal" font-weight="normal" text-decoration="none" x="400" y="30">UNREGISTERED</text><text fill="#eeeeee" stroke="none" font-family="Arial" font-size="24px" font-style="normal" font-weight="normal" text-decoration="none" x="400" y="60">UNREGISTERED</text><text fill="#eeeeee" stroke="none" font-family="Arial" font-size="24px" font-style="normal" font-weight="normal" text-decoration="none" x="400" y="90">UNREGISTERED</text><text fill="#eeeeee" stroke="none" font-family="Arial" font-size="24px" font-style="normal" font-weight="normal" text-decoration="none" x="400" y="120">UNREGISTERED</text><text fill="#eeeeee" stroke="none" font-family="Arial" font-size="24px" font-style="normal" font-weight="normal" text-decoration="none" x="400" y="150">UNREGISTERED</text><text fill="#eeeeee" stroke="none" font-family="Arial" font-size="24px" font-style="normal" font-weight="normal" text-decoration="none" x="400" y="180">UNREGISTERED</text><text fill="#eeeeee" stroke="none" font-family="Arial" font-size="24px" font-style="normal" font-weight="normal" text-decoration="none" x="400" y="210">UNREGISTERED</text><text fill="#eeeeee" stroke="none" font-family="Arial" font-size="24px" font-style="normal" font-weight="normal" text-decoration="none" x="400" y="240">UNREGISTERED</text><text fill="#eeeeee" stroke="none" font-family="Arial" font-size="24px" font-style="normal" font-weight="normal" text-decoration="none" x="400" y="270">UNREGISTERED</text><text fill="#eeeeee" stroke="none" font-family="Arial" font-size="24px" font-style="normal" font-weight="normal" text-decoration="none" x="400" y="300">UNREGISTERED</text><text fill="#eeeeee" stroke="none" font-family="Arial" font-size="24px" font-style="normal" font-weight="normal" text-decoration="none" x="400" y="330">UNREGISTERED</text><text fill="#eeeeee" stroke="none" font-family="Arial" font-size="24px" font-style="normal" font-weight="normal" text-decoration="none" x="400" y="360">UNREGISTERED</text><text fill="#eeeeee" stroke="none" font-family="Arial" font-size="24px" font-style="normal" font-weight="normal" text-decoration="none" x="400" y="390">UNREGISTERED</text><text fill="#eeeeee" stroke="none" font-family="Arial" font-size="24px" font-style="normal" font-weight="normal" text-decoration="none" x="400" y="420">UNREGISTERED</text><text fill="#eeeeee" stroke="none" font-family="Arial" font-size="24px" font-style="normal" font-weight="normal" text-decoration="none" x="400" y="450">UNREGISTERED</text><text fill="#eeeeee" stroke="none" font-family="Arial" font-size="24px" font-style="normal" font-weight="normal" text-decoration="none" x="400" y="480">UNREGISTERED</text><text fill="#eeeeee" stroke="none" font-family="Arial" font-size="24px" font-style="normal" font-weight="normal" text-decoration="none" x="400" y="510">UNREGISTERED</text><text fill="#eeeeee" stroke="none" font-family="Arial" font-size="24px" font-style="normal" font-weight="normal" text-decoration="none" x="400" y="540">UNREGISTERED</text><text fill="#eeeeee" stroke="none" font-family="Arial" font-size="24px" font-style="normal" font-weight="normal" text-decoration="none" x="400" y="570">UNREGISTERED</text><text fill="#eeeeee" stroke="none" font-family="Arial" font-size="24px" font-style="normal" font-weight="normal" text-decoration="none" x="400" y="600">UNREGISTERED</text><text fill="#eeeeee" stroke="none" font-family="Arial" font-size="24px" font-style="normal" font-weight="normal" text-decoration="none" x="400" y="630">UNREGISTERED</text><text fill="#eeeeee" stroke="none" font-family="Arial" font-size="24px" font-style="normal" font-weight="normal" text-decoration="none" x="400" y="660">UNREGISTERED</text><text fill="#eeeeee" stroke="none" font-family="Arial" font-size="24px" font-style="normal" font-weight="normal" text-decoration="none" x="400" y="690">UNREGISTERED</text><text fill="#eeeeee" stroke="none" font-family="Arial" font-size="24px" font-style="normal" font-weight="normal" text-decoration="none" x="600" y="0">UNREGISTERED</text><text fill="#eeeeee" stroke="none" font-family="Arial" font-size="24px" font-style="normal" font-weight="normal" text-decoration="none" x="600" y="30">UNREGISTERED</text><text fill="#eeeeee" stroke="none" font-family="Arial" font-size="24px" font-style="normal" font-weight="normal" text-decoration="none" x="600" y="60">UNREGISTERED</text><text fill="#eeeeee" stroke="none" font-family="Arial" font-size="24px" font-style="normal" font-weight="normal" text-decoration="none" x="600" y="90">UNREGISTERED</text><text fill="#eeeeee" stroke="none" font-family="Arial" font-size="24px" font-style="normal" font-weight="normal" text-decoration="none" x="600" y="120">UNREGISTERED</text><text fill="#eeeeee" stroke="none" font-family="Arial" font-size="24px" font-style="normal" font-weight="normal" text-decoration="none" x="600" y="150">UNREGISTERED</text><text fill="#eeeeee" stroke="none" font-family="Arial" font-size="24px" font-style="normal" font-weight="normal" text-decoration="none" x="600" y="180">UNREGISTERED</text><text fill="#eeeeee" stroke="none" font-family="Arial" font-size="24px" font-style="normal" font-weight="normal" text-decoration="none" x="600" y="210">UNREGISTERED</text><text fill="#eeeeee" stroke="none" font-family="Arial" font-size="24px" font-style="normal" font-weight="normal" text-decoration="none" x="600" y="240">UNREGISTERED</text><text fill="#eeeeee" stroke="none" font-family="Arial" font-size="24px" font-style="normal" font-weight="normal" text-decoration="none" x="600" y="270">UNREGISTERED</text><text fill="#eeeeee" stroke="none" font-family="Arial" font-size="24px" font-style="normal" font-weight="normal" text-decoration="none" x="600" y="300">UNREGISTERED</text><text fill="#eeeeee" stroke="none" font-family="Arial" font-size="24px" font-style="normal" font-weight="normal" text-decoration="none" x="600" y="330">UNREGISTERED</text><text fill="#eeeeee" stroke="none" font-family="Arial" font-size="24px" font-style="normal" font-weight="normal" text-decoration="none" x="600" y="360">UNREGISTERED</text><text fill="#eeeeee" stroke="none" font-family="Arial" font-size="24px" font-style="normal" font-weight="normal" text-decoration="none" x="600" y="390">UNREGISTERED</text><text fill="#eeeeee" stroke="none" font-family="Arial" font-size="24px" font-style="normal" font-weight="normal" text-decoration="none" x="600" y="420">UNREGISTERED</text><text fill="#eeeeee" stroke="none" font-family="Arial" font-size="24px" font-style="normal" font-weight="normal" text-decoration="none" x="600" y="450">UNREGISTERED</text><text fill="#eeeeee" stroke="none" font-family="Arial" font-size="24px" font-style="normal" font-weight="normal" text-decoration="none" x="600" y="480">UNREGISTERED</text><text fill="#eeeeee" stroke="none" font-family="Arial" font-size="24px" font-style="normal" font-weight="normal" text-decoration="none" x="600" y="510">UNREGISTERED</text><text fill="#eeeeee" stroke="none" font-family="Arial" font-size="24px" font-style="normal" font-weight="normal" text-decoration="none" x="600" y="540">UNREGISTERED</text><text fill="#eeeeee" stroke="none" font-family="Arial" font-size="24px" font-style="normal" font-weight="normal" text-decoration="none" x="600" y="570">UNREGISTERED</text><text fill="#eeeeee" stroke="none" font-family="Arial" font-size="24px" font-style="normal" font-weight="normal" text-decoration="none" x="600" y="600">UNREGISTERED</text><text fill="#eeeeee" stroke="none" font-family="Arial" font-size="24px" font-style="normal" font-weight="normal" text-decoration="none" x="600" y="630">UNREGISTERED</text><text fill="#eeeeee" stroke="none" font-family="Arial" font-size="24px" font-style="normal" font-weight="normal" text-decoration="none" x="600" y="660">UNREGISTERED</text><text fill="#eeeeee" stroke="none" font-family="Arial" font-size="24px" font-style="normal" font-weight="normal" text-decoration="none" x="600" y="690">UNREGISTERED</text><g transform="translate(-126,-166) scale(1,1)"><rect fill="#C0C0C0" stroke="none" x="455" y="183" width="138.71435546875" height="190" opacity="0.2"/></g><g transform="translate(-126,-166) scale(1,1)"><rect fill="#ffffff" stroke="none" x="448" y="176" width="138.71435546875" height="190"/></g><g transform="translate(-126,-166) scale(1,1)"><path fill="none" stroke="#000000" d="M 448 176 L 586.71435546875 176 L 586.71435546875 366 L 448 366 L 448 176 Z Z" stroke-miterlimit="10"/></g><g transform="translate(-126,-166) scale(1,1)"><path fill="none" stroke="#000000" d="M 448 201 L 586.71435546875 201" stroke-miterlimit="10"/></g><g transform="translate(-126,-166) scale(1,1)"><path fill="none" stroke="#000000" d="M 448 284 L 586.71435546875 284" stroke-miterlimit="10"/></g><g transform="translate(-126,-166) scale(1,1)"><g><path fill="none" stroke="none"/><text fill="#000000" stroke="none" font-family="Arial" font-size="13px" font-style="normal" font-weight="bold" text-decoration="none" x="495.686279296875" y="194">Cliente</text></g></g><g transform="translate(-126,-166) scale(1,1)"><g><path fill="none" stroke="none"/><text fill="#000000" stroke="none" font-family="Arial" font-size="13px" font-style="normal" font-weight="normal" text-decoration="none" x="453" y="217">+nome: string</text></g></g><g transform="translate(-126,-166) scale(1,1)"><g><path fill="none" stroke="none"/><text fill="#000000" stroke="none" font-family="Arial" font-size="13px" font-style="normal" font-weight="normal" text-decoration="none" x="453" y="232">+cpf: int</text></g></g><g transform="translate(-126,-166) scale(1,1)"><g><path fill="none" stroke="none"/><text fill="#000000" stroke="none" font-family="Arial" font-size="13px" font-style="normal" font-weight="normal" text-decoration="none" x="453" y="247">+contaBancaria: string</text></g></g><g transform="translate(-126,-166) scale(1,1)"><g><path fill="none" stroke="none"/><text fill="#000000" stroke="none" font-family="Arial" font-size="13px" font-style="normal" font-weight="normal" text-decoration="none" x="453" y="262">+email: string</text></g></g><g transform="translate(-126,-166) scale(1,1)"><g><path fill="none" stroke="none"/><text fill="#000000" stroke="none" font-family="Arial" font-size="13px" font-style="normal" font-weight="normal" text-decoration="none" x="453" y="277">+saldoConta: float</text></g></g><g transform="translate(-126,-166) scale(1,1)"><g><path fill="none" stroke="none"/><text fill="#000000" stroke="none" font-family="Arial" font-size="13px" font-style="normal" font-weight="normal" text-decoration="none" x="453" y="300">+registrar()</text></g></g><g transform="translate(-126,-166) scale(1,1)"><g><path fill="none" stroke="none"/><text fill="#000000" stroke="none" font-family="Arial" font-size="13px" font-style="normal" font-weight="normal" text-decoration="none" x="453" y="315">+enviaOrdem()</text></g></g><g transform="translate(-126,-166) scale(1,1)"><g><path fill="none" stroke="none"/><text fill="#000000" stroke="none" font-family="Arial" font-size="13px" font-style="normal" font-weight="normal" text-decoration="none" x="453" y="330">+visualizaCotacao()</text></g></g><g transform="translate(-126,-166) scale(1,1)"><g><path fill="none" stroke="none"/><text fill="#000000" stroke="none" font-family="Arial" font-size="13px" font-style="normal" font-weight="normal" text-decoration="none" x="453" y="345">+visualizaAcoes()</text></g></g><g transform="translate(-126,-166) scale(1,1)"><g><path fill="none" stroke="none"/><text fill="#000000" stroke="none" font-family="Arial" font-size="13px" font-style="normal" font-weight="normal" text-decoration="none" x="453" y="360">+modificaOrdem()</text></g></g><g transform="translate(-126,-166) scale(1,1)"><rect fill="#C0C0C0" stroke="none" x="335" y="647" width="143.0244140625" height="70" opacity="0.2"/></g><g transform="translate(-126,-166) scale(1,1)"><rect fill="#ffffff" stroke="none" x="328" y="640" width="143.0244140625" height="70"/></g><g transform="translate(-126,-166) scale(1,1)"><path fill="none" stroke="#000000" d="M 328 640 L 471.0244140625 640 L 471.0244140625 710 L 328 710 L 328 640 Z Z" stroke-miterlimit="10"/></g><g transform="translate(-126,-166) scale(1,1)"><path fill="none" stroke="#000000" d="M 328 665 L 471.0244140625 665" stroke-miterlimit="10"/></g><g transform="translate(-126,-166) scale(1,1)"><path fill="none" stroke="#000000" d="M 328 688 L 471.0244140625 688" stroke-miterlimit="10"/></g><g transform="translate(-126,-166) scale(1,1)"><g><path fill="none" stroke="none"/><text fill="#000000" stroke="none" font-family="Arial" font-size="13px" font-style="normal" font-weight="bold" text-decoration="none" x="374.953125" y="658">Compra</text></g></g><g transform="translate(-126,-166) scale(1,1)"><g><path fill="none" stroke="none"/><text fill="#000000" stroke="none" font-family="Arial" font-size="13px" font-style="normal" font-weight="normal" text-decoration="none" x="333" y="681">+valorCompra: decimal</text></g></g><g transform="translate(-126,-166) scale(1,1)"><g><path fill="none" stroke="none"/><text fill="#000000" stroke="none" font-family="Arial" font-size="13px" font-style="normal" font-weight="normal" text-decoration="none" x="333" y="704">+compraAcao()</text></g></g><g transform="translate(-126,-166) scale(1,1)"><rect fill="#C0C0C0" stroke="none" x="455" y="495" width="141.58349609375" height="130" opacity="0.2"/></g><g transform="translate(-126,-166) scale(1,1)"><rect fill="#ffffff" stroke="none" x="448" y="488" width="141.58349609375" height="130"/></g><g transform="translate(-126,-166) scale(1,1)"><path fill="none" stroke="#000000" d="M 448 488 L 589.58349609375 488 L 589.58349609375 618 L 448 618 L 448 488 Z Z" stroke-miterlimit="10"/></g><g transform="translate(-126,-166) scale(1,1)"><path fill="none" stroke="#000000" d="M 448 513 L 589.58349609375 513" stroke-miterlimit="10"/></g><g transform="translate(-126,-166) scale(1,1)"><path fill="none" stroke="#000000" d="M 448 581 L 589.58349609375 581" stroke-miterlimit="10"/></g><g transform="translate(-126,-166) scale(1,1)"><g><path fill="none" stroke="none"/><text fill="#000000" stroke="none" font-family="Arial" font-size="13px" font-style="normal" font-weight="bold" text-decoration="none" x="497.84130859375" y="506">Ordem</text></g></g><g transform="translate(-126,-166) scale(1,1)"><g><path fill="none" stroke="none"/><text fill="#000000" stroke="none" font-family="Arial" font-size="13px" font-style="normal" font-weight="normal" text-decoration="none" x="453" y="529">+id: ID autoincrement()</text></g></g><g transform="translate(-126,-166) scale(1,1)"><g><path fill="none" stroke="none"/><text fill="#000000" stroke="none" font-family="Arial" font-size="13px" font-style="normal" font-weight="normal" text-decoration="none" x="453" y="544">+date: date()</text></g></g><g transform="translate(-126,-166) scale(1,1)"><g><path fill="none" stroke="none"/><text fill="#000000" stroke="none" font-family="Arial" font-size="13px" font-style="normal" font-weight="normal" text-decoration="none" x="453" y="559">+hora: datetime()</text></g></g><g transform="translate(-126,-166) scale(1,1)"><g><path fill="none" stroke="none"/><text fill="#000000" stroke="none" font-family="Arial" font-size="13px" font-style="normal" font-weight="normal" text-decoration="none" x="453" y="574">+quantidade: int</text></g></g><g transform="translate(-126,-166) scale(1,1)"><g><path fill="none" stroke="none"/><text fill="#000000" stroke="none" font-family="Arial" font-size="13px" font-style="normal" font-weight="normal" text-decoration="none" x="453" y="597">+geraCompra()</text></g></g><g transform="translate(-126,-166) scale(1,1)"><g><path fill="none" stroke="none"/><text fill="#000000" stroke="none" font-family="Arial" font-size="13px" font-style="normal" font-weight="normal" text-decoration="none" x="453" y="612">+geraVenda()</text></g></g><g transform="translate(-126,-166) scale(1,1)"><rect fill="#C0C0C0" stroke="none" x="591" y="655" width="133.66162109375" height="70" opacity="0.2"/></g><g transform="translate(-126,-166) scale(1,1)"><rect fill="#ffffff" stroke="none" x="584" y="648" width="133.66162109375" height="70"/></g><g transform="translate(-126,-166) scale(1,1)"><path fill="none" stroke="#000000" d="M 584 648 L 717.66162109375 648 L 717.66162109375 718 L 584 718 L 584 648 Z Z" stroke-miterlimit="10"/></g><g transform="translate(-126,-166) scale(1,1)"><path fill="none" stroke="#000000" d="M 584 673 L 717.66162109375 673" stroke-miterlimit="10"/></g><g transform="translate(-126,-166) scale(1,1)"><path fill="none" stroke="#000000" d="M 584 696 L 717.66162109375 696" stroke-miterlimit="10"/></g><g transform="translate(-126,-166) scale(1,1)"><g><path fill="none" stroke="none"/><text fill="#000000" stroke="none" font-family="Arial" font-size="13px" font-style="normal" font-weight="bold" text-decoration="none" x="631.68310546875" y="666">Venda</text></g></g><g transform="translate(-126,-166) scale(1,1)"><g><path fill="none" stroke="none"/><text fill="#000000" stroke="none" font-family="Arial" font-size="13px" font-style="normal" font-weight="normal" text-decoration="none" x="589" y="689">+valorVenda: decimal</text></g></g><g transform="translate(-126,-166) scale(1,1)"><g><path fill="none" stroke="none"/><text fill="#000000" stroke="none" font-family="Arial" font-size="13px" font-style="normal" font-weight="normal" text-decoration="none" x="589" y="712">+vendeAcao()</text></g></g><g transform="translate(-126,-166) scale(1,1)"><rect fill="#C0C0C0" stroke="none" x="783" y="511" width="128" height="87" opacity="0.2"/></g><g transform="translate(-126,-166) scale(1,1)"><rect fill="#ffffff" stroke="none" x="776" y="504" width="128" height="87"/></g><g transform="translate(-126,-166) scale(1,1)"><path fill="none" stroke="#000000" d="M 776 504 L 904 504 L 904 591 L 776 591 L 776 504 Z Z" stroke-miterlimit="10"/></g><g transform="translate(-126,-166) scale(1,1)"><path fill="none" stroke="#000000" d="M 776 529 L 904 529" stroke-miterlimit="10"/></g><g transform="translate(-126,-166) scale(1,1)"><path fill="none" stroke="#000000" d="M 776 539 L 904 539" stroke-miterlimit="10"/></g><g transform="translate(-126,-166) scale(1,1)"><g><path fill="none" stroke="none"/><text fill="#000000" stroke="none" font-family="Arial" font-size="13px" font-style="normal" font-weight="bold" text-decoration="none" x="831.69091796875" y="522">B3</text></g></g><g transform="translate(-126,-166) scale(1,1)"><g><path fill="none" stroke="none"/><text fill="#000000" stroke="none" font-family="Arial" font-size="13px" font-style="normal" font-weight="normal" text-decoration="none" x="781" y="555">+registraOrdem()</text></g></g><g transform="translate(-126,-166) scale(1,1)"><g><path fill="none" stroke="none"/><text fill="#000000" stroke="none" font-family="Arial" font-size="13px" font-style="normal" font-weight="normal" text-decoration="none" x="781" y="570">+enviaDados()</text></g></g><g transform="translate(-126,-166) scale(1,1)"><g><path fill="none" stroke="none"/><text fill="#000000" stroke="none" font-family="Arial" font-size="13px" font-style="normal" font-weight="normal" text-decoration="none" x="781" y="585">+modificaOrdem()</text></g></g><g transform="translate(-126,-166) scale(1,1)"><rect fill="#C0C0C0" stroke="none" x="439" y="767" width="169.7734375" height="100" opacity="0.2"/></g><g transform="translate(-126,-166) scale(1,1)"><rect fill="#ffffff" stroke="none" x="432" y="760" width="169.7734375" height="100"/></g><g transform="translate(-126,-166) scale(1,1)"><path fill="none" stroke="#000000" d="M 432 760 L 601.7734375 760 L 601.7734375 860 L 432 860 L 432 760 Z Z" stroke-miterlimit="10"/></g><g transform="translate(-126,-166) scale(1,1)"><path fill="none" stroke="#000000" d="M 432 785 L 601.7734375 785" stroke-miterlimit="10"/></g><g transform="translate(-126,-166) scale(1,1)"><path fill="none" stroke="#000000" d="M 432 838 L 601.7734375 838" stroke-miterlimit="10"/></g><g transform="translate(-126,-166) scale(1,1)"><g><path fill="none" stroke="none"/><text fill="#000000" stroke="none" font-family="Arial" font-size="13px" font-style="normal" font-weight="bold" text-decoration="none" x="500.9921875" y="778">Ação</text></g></g><g transform="translate(-126,-166) scale(1,1)"><g><path fill="none" stroke="none"/><text fill="#000000" stroke="none" font-family="Arial" font-size="13px" font-style="normal" font-weight="normal" text-decoration="none" x="437" y="801">+código: string</text></g></g><g transform="translate(-126,-166) scale(1,1)"><g><path fill="none" stroke="none"/><text fill="#000000" stroke="none" font-family="Arial" font-size="13px" font-style="normal" font-weight="normal" text-decoration="none" x="437" y="816">+nome: string</text></g></g><g transform="translate(-126,-166) scale(1,1)"><g><path fill="none" stroke="none"/><text fill="#000000" stroke="none" font-family="Arial" font-size="13px" font-style="normal" font-weight="normal" text-decoration="none" x="437" y="831">+quantidade: int</text></g></g><g transform="translate(-126,-166) scale(1,1)"><g><path fill="none" stroke="none"/><text fill="#000000" stroke="none" font-family="Arial" font-size="13px" font-style="normal" font-weight="normal" text-decoration="none" x="437" y="854">+registraCarteira()</text></g></g><g transform="translate(-126,-166) scale(1,1)"><rect fill="#C0C0C0" stroke="none" x="783" y="223" width="136.63623046875" height="102" opacity="0.2"/></g><g transform="translate(-126,-166) scale(1,1)"><rect fill="#ffffff" stroke="none" x="776" y="216" width="136.63623046875" height="102"/></g><g transform="translate(-126,-166) scale(1,1)"><path fill="none" stroke="#000000" d="M 776 216 L 912.63623046875 216 L 912.63623046875 318 L 776 318 L 776 216 Z Z" stroke-miterlimit="10"/></g><g transform="translate(-126,-166) scale(1,1)"><path fill="none" stroke="#000000" d="M 776 241 L 912.63623046875 241" stroke-miterlimit="10"/></g><g transform="translate(-126,-166) scale(1,1)"><path fill="none" stroke="#000000" d="M 776 251 L 912.63623046875 251" stroke-miterlimit="10"/></g><g transform="translate(-126,-166) scale(1,1)"><g><path fill="none" stroke="none"/><text fill="#000000" stroke="none" font-family="Arial" font-size="13px" font-style="normal" font-weight="bold" text-decoration="none" x="814.699951171875" y="234">Corretora</text></g></g><g transform="translate(-126,-166) scale(1,1)"><g><path fill="none" stroke="none"/><text fill="#000000" stroke="none" font-family="Arial" font-size="13px" font-style="normal" font-weight="normal" text-decoration="none" x="781" y="267">+aprovaCadastro()</text></g></g><g transform="translate(-126,-166) scale(1,1)"><g><path fill="none" stroke="none"/><text fill="#000000" stroke="none" font-family="Arial" font-size="13px" font-style="normal" font-weight="normal" text-decoration="none" x="781" y="282">+enviaOrdem()</text></g></g><g transform="translate(-126,-166) scale(1,1)"><g><path fill="none" stroke="none"/><text fill="#000000" stroke="none" font-family="Arial" font-size="13px" font-style="normal" font-weight="normal" text-decoration="none" x="781" y="297">+enviaRelatorio()</text></g></g><g transform="translate(-126,-166) scale(1,1)"><g><path fill="none" stroke="none"/><text fill="#000000" stroke="none" font-family="Arial" font-size="13px" font-style="normal" font-weight="normal" text-decoration="none" x="781" y="312">+recebeOperacao()</text></g></g><g transform="translate(-126,-166) scale(1,1)"><path fill="none" stroke="#000000" d="M 472 759 L 430 711" stroke-miterlimit="10"/></g><g transform="translate(-126,-166) scale(1,1)"><path fill="none" stroke="#000000" d="M 570 759 L 612 719" stroke-miterlimit="10"/></g><g transform="translate(-126,-166) scale(1,1)"><rect fill="#C0C0C0" stroke="none" x="143" y="447" width="144" height="57" opacity="0.2"/></g><g transform="translate(-126,-166) scale(1,1)"><rect fill="#ffffff" stroke="none" x="136" y="440" width="144" height="57"/></g><g transform="translate(-126,-166) scale(1,1)"><path fill="none" stroke="#000000" d="M 136 440 L 280 440 L 280 497 L 136 497 L 136 440 Z Z" stroke-miterlimit="10"/></g><g transform="translate(-126,-166) scale(1,1)"><path fill="none" stroke="#000000" d="M 136 465 L 280 465" stroke-miterlimit="10"/></g><g transform="translate(-126,-166) scale(1,1)"><path fill="none" stroke="#000000" d="M 136 475 L 280 475" stroke-miterlimit="10"/></g><g transform="translate(-126,-166) scale(1,1)"><g><path fill="none" stroke="none"/><text fill="#000000" stroke="none" font-family="Arial" font-size="13px" font-style="normal" font-weight="bold" text-decoration="none" x="152.724609375" y="458">Carteira de Ações</text></g></g><g transform="translate(-126,-166) scale(1,1)"><g><path fill="none" stroke="none"/><text fill="#000000" stroke="none" font-family="Arial" font-size="13px" font-style="normal" font-weight="normal" text-decoration="none" x="141" y="491">+exibeAcoes()</text></g></g><g transform="translate(-126,-166) scale(1,1)"><path fill="none" stroke="#000000" d="M 431 809 L 208 808 L 208 498" stroke-miterlimit="10"/></g><g transform="translate(-126,-166) scale(1,1)"><path fill="none" stroke="#000000" d="M 212.209517756016 508.16267485762415 L 208 498 L 203.790482243984 508.16267485762415" stroke-miterlimit="10"/></g><g transform="translate(-126,-166) scale(1,1)"><g><path fill="none" stroke="none"/><text fill="#000000" stroke="none" font-family="Arial" font-size="13px" font-style="normal" font-weight="normal" text-decoration="none" x="135.5" y="690">+Compõem</text></g></g><g transform="translate(-126,-166) scale(1,1)"><g><path fill="none" stroke="none"/><text fill="#000000" stroke="none" font-family="Arial" font-size="13px" font-style="normal" font-weight="normal" text-decoration="none" x="366.2890625" y="802">+1*</text></g></g><g transform="translate(-126,-166) scale(1,1)"><g><path fill="none" stroke="none"/><text fill="#000000" stroke="none" font-family="Arial" font-size="13px" font-style="normal" font-weight="normal" text-decoration="none" x="186.029541015625" y="528">+1</text></g></g><g transform="translate(-126,-166) scale(1,1)"><path fill="none" stroke="#000000" d="M 775 268 L 588 270" stroke-miterlimit="10"/></g><g transform="translate(-126,-166) scale(1,1)"><path fill="#000000" stroke="none" d="M 598.117074662838 265.68203748666554 L 588 270 L 598.2071126739514 274.1005915257752 L 609.9987418506223 269.76471933849604"/></g><g transform="translate(-126,-166) scale(1,1)"><path fill="none" stroke="#000000" d="M 598.117074662838 265.68203748666554 L 588 270 L 598.2071126739514 274.1005915257752 L 609.9987418506223 269.76471933849604 L 598.117074662838 265.68203748666554" stroke-miterlimit="10"/></g><g transform="translate(-126,-166) scale(1,1)"><g><path fill="none" stroke="none"/><text fill="#000000" stroke="none" font-family="Arial" font-size="13px" font-style="normal" font-weight="normal" text-decoration="none" x="662.5" y="288">+Aprova</text></g></g><g transform="translate(-126,-166) scale(1,1)"><path fill="none" stroke="#000000" d="M 447 271 L 208 272 L 208 439" stroke-miterlimit="10"/></g><g transform="translate(-126,-166) scale(1,1)"><path fill="#FFFFFF" stroke="none" d="M 203.790482243984 428.83732514237585 L 208 439 L 212.209517756016 428.83732514237585 L 208 417"/></g><g transform="translate(-126,-166) scale(1,1)"><path fill="none" stroke="#000000" d="M 203.790482243984 428.83732514237585 L 208 439 L 212.209517756016 428.83732514237585 L 208 417 L 203.790482243984 428.83732514237585" stroke-miterlimit="10"/></g><g transform="translate(-126,-166) scale(1,1)"><g><path fill="none" stroke="none"/><text fill="#000000" stroke="none" font-family="Arial" font-size="13px" font-style="normal" font-weight="normal" text-decoration="none" x="158.5" y="363">+Possui</text></g></g><g transform="translate(-126,-166) scale(1,1)"><g><path fill="none" stroke="none"/><text fill="#000000" stroke="none" font-family="Arial" font-size="13px" font-style="normal" font-weight="normal" text-decoration="none" x="413.5" y="291">+1</text></g></g><g transform="translate(-126,-166) scale(1,1)"><g><path fill="none" stroke="none"/><text fill="#000000" stroke="none" font-family="Arial" font-size="13px" font-style="normal" font-weight="normal" text-decoration="none" x="215.5" y="418">+1</text></g></g><g transform="translate(-126,-166) scale(1,1)"><path fill="none" stroke="#000000" d="M 785 319 L 591 489" stroke-miterlimit="10"/></g><g transform="translate(-126,-166) scale(1,1)"><path fill="#000000" stroke="none" d="M 595.8690121767835 479.1362927647697 L 591 489 L 601.4176058015536 485.4682172542133 L 607.5461160686015 474.5008261254523"/></g><g transform="translate(-126,-166) scale(1,1)"><path fill="none" stroke="#000000" d="M 595.8690121767835 479.1362927647697 L 591 489 L 601.4176058015536 485.4682172542133 L 607.5461160686015 474.5008261254523 L 595.8690121767835 479.1362927647697" stroke-miterlimit="10"/></g><g transform="translate(-126,-166) scale(1,1)"><g><path fill="none" stroke="none"/><text fill="#000000" stroke="none" font-family="Arial" font-size="13px" font-style="normal" font-weight="normal" text-decoration="none" x="683.5" y="422">+Gerencia</text></g></g><g transform="translate(-126,-166) scale(1,1)"><g><path fill="none" stroke="none"/><text fill="#000000" stroke="none" font-family="Arial" font-size="13px" font-style="normal" font-weight="normal" text-decoration="none" x="767.5" y="352">+1</text></g></g><g transform="translate(-126,-166) scale(1,1)"><g><path fill="none" stroke="none"/><text fill="#000000" stroke="none" font-family="Arial" font-size="13px" font-style="normal" font-weight="normal" text-decoration="none" x="610.029541015625" y="488">+1*</text></g></g><g transform="translate(-126,-166) scale(1,1)"><path fill="none" stroke="#000000" d="M 434 639 L 454 619" stroke-miterlimit="10" stroke-dasharray="3"/></g><g transform="translate(-126,-166) scale(1,1)"><path fill="none" stroke="#000000" d="M 449.790482243984 629.1626748576241 L 454 619 L 443.83732514237585 623.209517756016" stroke-miterlimit="10"/></g><g transform="translate(-126,-166) scale(1,1)"><path fill="none" stroke="#000000" d="M 613 647 L 585 619" stroke-miterlimit="10" stroke-dasharray="3"/></g><g transform="translate(-126,-166) scale(1,1)"><path fill="none" stroke="#000000" d="M 595.1626748576241 623.209517756016 L 585 619 L 589.209517756016 629.1626748576241" stroke-miterlimit="10"/></g><g transform="translate(-126,-166) scale(1,1)"><path fill="none" stroke="#000000" d="M 843 319 L 841 503" stroke-miterlimit="10"/></g><g transform="translate(-126,-166) scale(1,1)"><g><path fill="none" stroke="none"/><text fill="#000000" stroke="none" font-family="Arial" font-size="13px" font-style="normal" font-weight="normal" text-decoration="none" x="792.5" y="478">+Envia</text></g></g><g transform="translate(-126,-166) scale(1,1)"><g><path fill="none" stroke="none"/><text fill="#000000" stroke="none" font-family="Arial" font-size="13px" font-style="normal" font-weight="normal" text-decoration="none" x="849.5" y="350">+1</text></g></g><g transform="translate(-126,-166) scale(1,1)"><g><path fill="none" stroke="none"/><text fill="#000000" stroke="none" font-family="Arial" font-size="13px" font-style="normal" font-weight="normal" text-decoration="none" x="848.5" y="482">+1</text></g></g><g transform="translate(-126,-166) scale(1,1)"><path fill="none" stroke="#000000" d="M 517 367 L 518 487" stroke-miterlimit="10"/></g><g transform="translate(-126,-166) scale(1,1)"><path fill="#000000" stroke="none" d="M 513.7059423834714 476.87275609131814 L 518 487 L 522.124685583106 476.8025998979879 L 517.8166730320759 465.0007638491053"/></g><g transform="translate(-126,-166) scale(1,1)"><path fill="none" stroke="#000000" d="M 513.7059423834714 476.87275609131814 L 518 487 L 522.124685583106 476.8025998979879 L 517.8166730320759 465.0007638491053 L 513.7059423834714 476.87275609131814" stroke-miterlimit="10"/></g><g transform="translate(-126,-166) scale(1,1)"><g><path fill="none" stroke="none"/><text fill="#000000" stroke="none" font-family="Arial" font-size="13px" font-style="normal" font-weight="normal" text-decoration="none" x="518.5" y="431">+Envia</text></g></g></g></svg>