<svg version="1.1" xmlns="http://www.w3.org/2000/svg" xmlns:xlink="http://www.w3.org/1999/xlink" width="796.63623046875" height="691"><defs/><g><text fill="#eeeeee" stroke="none" font-family="Arial" font-size="24px" font-style="normal" font-weight="normal" text-decoration="none" x="0" y="0">UNREGISTERED</text><text fill="#eeeeee" stroke="none" font-family="Arial" font-size="24px" font-style="normal" font-weight="normal" text-decoration="none" x="0" y="30">UNREGISTERED</text><text fill="#eeeeee" stroke="none" font-family="Arial" font-size="24px" font-style="normal" font-weight="normal" text-decoration="none" x="0" y="60">UNREGISTERED</text><text fill="#eeeeee" stroke="none" font-family="Arial" font-size="24px" font-style="normal" font-weight="normal" text-decoration="none" x="0" y="90">UNREGISTERED</text><text fill="#eeeeee" stroke="none" font-family="Arial" font-size="24px" font-style="normal" font-weight="normal" text-decoration="none" x="0" y="120">UNREGISTERED</text><text fill="#eeeeee" stroke="none" font-family="Arial" font-size="24px" font-style="normal" font-weight="normal" text-decoration="none" x="0" y="150">UNREGISTERED</text><text fill="#eeeeee" stroke="none" font-family="Arial" font-size="24px" font-style="normal" font-weight="normal" text-decoration="none" x="0" y="180">UNREGISTERED</text><text fill="#eeeeee" stroke="none" font-family="Arial" font-size="24px" font-style="normal" font-weight="normal" text-decoration="none" x="0" y="210">UNREGISTERED</text><text fill="#eeeeee" stroke="none" font-family="Arial" font-size="24px" font-style="normal" font-weight="normal" text-decoration="none" x="0" y="240">UNREGISTERED</text><text fill="#eeeeee" stroke="none" font-family="Arial" font-size="24px" font-style="normal" font-weight="normal" text-decoration="none" x="0" y="270">UNREGISTERED</text><text fill="#eeeeee" stroke="none" font-family="Arial" font-size="24px" font-style="normal" font-weight="normal" text-decoration="none" x="0" y="300">UNREGISTERED</text><text fill="#eeeeee" stroke="none" font-family="Arial" font-size="24px" font-style="normal" font-weight="normal" text-decoration="none" x="0" y="330">UNREGISTERED</text><text fill="#eeeeee" stroke="none" font-family="Arial" font-size="24px" font-style="normal" font-weight="normal" text-decoration="none" x="0" y="360">UNREGISTERED</text><text fill="#eeeeee" stroke="none" font-family="Arial" font-size="24px" font-style="normal" font-weight="normal" text-decoration="none" x="0" y="390">UNREGISTERED</text><text fill="#eeeeee" stroke="none" font-family="Arial" font-size="24px" font-style="normal" font-weight="normal" text-decoration="none" x="0" y="420">UNREGISTERED</text><text fill="#eeeeee" stroke="none" font-family="Arial" font-size="24px" font-style="normal" font-weight="normal" text-decoration="none" x="0" y="450">UNREGISTERED</text><text fill="#eeeeee" stroke="none" font-family="Arial" font-size="24px" font-style="normal" font-weight="normal" text-decoration="none" x="0" y="480">UNREGISTERED</text><text fill="#eeeeee" stroke="none" font-family="Arial" font-size="24px" font-style="normal" font-weight="normal" text-decoration="none" x="0" y="510">UNREGISTERED</text><text fill="#eeeeee" stroke="none" font-family="Arial" font-size="24px" font-style="normal" font-weight="normal" text-decoration="none" x="0" y="540">UNREGISTERED</text><text fill="#eeeeee" stroke="none" font-family="Arial" font-size="24px" font-style="normal" font-weight="normal" text-decoration="none" x="0" y="570">UNREGISTERED</text><text fill="#eeeeee" stroke="none" font-family="Arial" font-size="24px" font-style="normal" font-weight="normal" text-decoration="none" x="0" y="600">UNREGISTERED</text><text fill="#eeeeee" stroke="none" font-family="Arial" font-size="24px" font-style="normal" font-weight="normal" text-decoration="none" x="0" y="630">UNREGISTERED</text><text fill="#eeeeee" stroke="none" font-family="Arial" font-size="24px" font-style="normal" font-weight="normal" text-decoration="none" x="0" y="660">UNREGISTERED</text><text fill="#eeeeee" stroke="none" font-family="Arial" font-size="24px" font-style="normal" font-weight="normal" text-decoration="none" x="0" y="690">UNREGISTERED</text><text fill="#eeeeee" stroke="none" font-family="Arial" font-size="24px" font-style="normal" font-weight="normal" text-decoration="none" x="200" y="0">UNREGISTERED</text><text fill="#eeeeee" stroke="none" font-family="Arial" font-size="24px" font-style="normal" font-weight="normal" text-decoration="none" x="200" y="30">UNREGISTERED</text><text fill="#eeeeee" stroke="none" font-family="Arial" font-size="24px" font-style="normal" font-weight="normal" text-decoration="none" x="200" y="60">UNREGISTERED</text><text fill="#eeeeee" stroke="none" font-family="Arial" font-size="24px" font-style="normal" font-weight="normal" text-decoration="none" x="200" y="90">UNREGISTERED</text><text fill="#eeeeee" stroke="none" font-family="Arial" font-size="24px" font-style="normal" font-weight="normal" text-decoration="none" x="200" y="120">UNREGISTERED</text><text fill="#eeeeee" stroke="none" font-family="Arial" font-size="24px" font-style="normal" font-weight="normal" text-decoration="none" x="200" y="150">UNREGISTERED</text><text fill="#eeeeee" stroke="none" font-family="Arial" font-size="24px" font-style="normal" font-weight="normal" text-decoration="none" x="200" y="180">UNREGISTERED</text><text fill="#eeeeee" stroke="none" font-family="Arial" font-size="24px" font-style="normal" font-weight="normal" text-decoration="none" x="200" y="210">UNREGISTERED</text><text fill="#eeeeee" stroke="none" font-family="Arial" font-size="24px" font-style="normal" font-weight="normal" text-decoration="none" x="200" y="240">UNREGISTERED</text><text fill="#eeeeee" stroke="none" font-family="Arial" font-size="24px" font-style="normal" font-weight="normal" text-decoration="none" x="200" y="270">UNREGISTERED</text><text fill="#eeeeee" stroke="none" font-family="Arial" font-size="24px" font-style="normal" font-weight="normal" text-decoration="none" x="200" y="300">UNREGISTERED</text><text fill="#eeeeee" stroke="none" font-family="Arial" font-size="24px" font-style="normal" font-weight="normal" text-decoration="none" x="200" y="330">UNREGISTERED</text><text fill="#eeeeee" stroke="none" font-family="Arial" font-size="24px" font-style="normal" font-weight="normal" text-decoration="none" x="200" y="360">UNREGISTERED</text><text fill="#eeeeee" stroke="none" font-family="Arial" font-size="24px" font-style="normal" font-weight="normal" text-decoration="none" x="200" y="390">UNREGISTERED</text><text fill="#eeeeee" stroke="none" font-family="Arial" font-size="24px" font-style="normal" font-weight="normal" text-decoration="none" x="200" y="420">UNREGISTERED</text><text fill="#eeeeee" stroke="none" font-family="Arial" font-size="24px" font-style="normal" font-weight="normal" text-decoration="none" x="200" y="450">UNREGISTERED</text><text fill="#eeeeee" stroke="none" font-family="Arial" font-size="24px" font-style="normal" font-weight="normal" text-decoration="none" x="200" y="480">UNREGISTERED</text><text fill="#eeeeee" stroke="none" font-family="Arial" font-size="24px" font-style="normal" font-weight="normal" text-decoration="none" x="200" y="510">UNREGISTERED</text><text fill="#eeeeee" stroke="none" font-family="Arial" font-size="24px" font-style="normal" font-weight="normal" text-decoration="none" x="200" y="540">UNREGISTERED</text><text fill="#eeeeee" stroke="none" font-family="Arial" font-size="24px" font-style="normal" font-weight="normal" text-decoration="none" x="200" y="570">UNREGISTERED</text><text fill="#eeeeee" stroke="none" font-family="Arial" font-size="24px" font-style="normal" font-weight="normal" text-decoration="none" x="200" y="600">UNREGISTERED</text><text fill="#eeeeee" stroke="none" font-family="Arial" font-size="24px" font-style="normal" font-weight="normal" text-decoration="none" x="200" y="630">UNREGISTERED</text><text fill="#eeeeee" stroke="none" font-family="Arial" font-size="24px" font-style="normal" font-weight="normal" text-decoration="none" x="200" y="660">UNREGISTERED</text><text fill="#eeeeee" stroke="none" font-family="Arial" font-size="24px" font-style="normal" font-weight="normal" text-decoration="none" x="200" y="690">UNREGISTERED</text><text fill="#eeeeee" stroke="none" font-family="Arial" font-size="24px" font-style="normal" font-weight="normal" text-decoration="none" x="400" y="0">UNREGISTERED</text><text fill="#eeeeee" stroke="none" font-family="Arial" font-size="24px" font-style="normal" font-weight="normal" text-decoration="none" x="400" y="30">UNREGISTERED</text><text fill="#eeeeee" stroke="none" font-family="Arial" font-size="24px" font-style="normal" font-weight="normal" text-decoration="none" x="400" y="60">UNREGISTERED</text><text fill="#eeeeee" stroke="none" font-family="Arial" font-size="24px" font-style="normal" font-weight="normal" text-decoration="none" x="400" y="90">UNREGISTERED</text><text fill="#eeeeee" stroke="none" font-family="Arial" font-size="24px" font-style="normal" font-weight="normal" text-decoration="none" x="400" y="120">UNREGISTERED</text><text fill="#eeeeee" stroke="none" font-family="Arial" font-size="24px" font-style="normal" font-weight="normal" text-decoration="none" x="400" y="150">UNREGISTERED</text><text fill="#eeeeee" stroke="none" font-family="Arial" font-size="24px" font-style="normal" font-weight="normal" text-decoration="none" x="400" y="180">UNREGISTERED</text><text fill="#eeeeee" stroke="none" font-family="Arial" font-size="24px" font-style="normal" font-weight="normal" text-decoration="none" x="400" y="210">UNREGISTERED</text><text fill="#eeeeee" stroke="none" font-family="Arial" font-size="24px" font-style="normal" font-weight="normal" text-decoration="none" x="400" y="240">UNREGISTERED</text><text fill="#eeeeee" stroke="none" font-family="Arial" font-size="24px" font-style="normal" font-weight="normal" text-decoration="none" x="400" y="270">UNREGISTERED</text><text fill="#eeeeee" stroke="none" font-family="Arial" font-size="24px" font-style="normal" font-weight="normal" text-decoration="none" x="400" y="300">UNREGISTERED</text><text fill="#eeeeee" stroke="none" font-family="Arial" font-size="24px" font-style="normal" font-weight="normal" text-decoration="none" x="400" y="330">UNREGISTERED</text><text fill="#eeeeee" stroke="none" font-family="Arial" font-size="24px" font-style="normal" font-weight="normal" text-decoration="none" x="400" y="360">UNREGISTERED</text><text fill="#eeeeee" stroke="none" font-family="Arial" font-size="24px" font-style="normal" font-weight="normal" text-decoration="none" x="400" y="390">UNREGISTERED</text><text fill="#eeeeee" stroke="none" font-family="Arial" font-size="24px" font-style="normal" font-weight="normal" text-decoration="none" x="400" y="420">UNREGISTERED</text><text fill="#eeeeee" stroke="none" font-family="Arial" font-size="24px" font-style="normal" font-weight="normal" text-decoration="none" x="400" y="450">UNREGISTERED</text><text fill="#eeeeee" stroke="none" font-family="Arial" font-size="24px" font-style="normal" font-weight="normal" text-decoration="none" x="400" y="480">UNREGISTERED</text><text fill="#eeeeee" stroke="none" font-family="Arial" font-size="24px" font-style="normal" font-weight="normal" text-decoration="none" x="400" y="510">UNREGISTERED</text><text fill="#eeeeee" stroke="none" font-family="Arial" font-size="24px" font-style="normal" font-weight="normal" text-decoration="none" x="400" y="540">UNREGISTERED</text><text fill="#eeeeee" stroke="none" font-family="Arial" font-size="24px" font-style="normal" font-weight="normal" text-decoration="none" x="400" y="570">UNREGISTERED</text><text fill="#eeeeee" stroke="none" font-family="Arial" font-size="24px" font-style="normal" font-weight="normal" text-decoration="none" x="400" y="600">UNREGISTERED</text><text fill="#eeeeee" stroke="none" font-family="Arial" font-size="24px" font-style="normal" font-weight="normal" text-decoration="none" x="400" y="630">UNREGISTERED</text><text fill="#eeeeee" stroke="none" font-family="Arial" font-size="24px" font-style="normal" font-weight="normal" text-decoration="none" x="400" y="660">UNREGISTERED</text><text fill="#eeeeee" stroke="none" font-family="Arial" font-size="24px" font-style="normal" font-weight="normal" text-decoration="none" x="400" y="690">UNREGISTERED</text><text fill="#eeeeee" stroke="none" font-family="Arial" font-size="24px" font-style="normal" font-weight="normal" text-decoration="none" x="600" y="0">UNREGISTERED</text><text fill="#eeeeee" stroke="none" font-family="Arial" font-size="24px" font-style="normal" font-weight="normal" text-decoration="none" x="600" y="30">UNREGISTERED</text><text fill="#eeeeee" stroke="none" font-family="Arial" font-size="24px" font-style="normal" font-weight="normal" text-decoration="none" x="600" y="60">UNREGISTERED</text><text fill="#eeeeee" stroke="none" font-family="Arial" font-size="24px" font-style="normal" font-weight="normal" text-decoration="none" x="600" y="90">UNREGISTERED</text><text fill="#eeeeee" stroke="none" font-family="Arial" font-size="24px" font-style="normal" font-weight="normal" text-decoration="none" x="600" y="120">UNREGISTERED</text><text fill="#eeeeee" stroke="none" font-family="Arial" font-size="24px" font-style="normal" font-weight="normal" text-decoration="none" x="600" y="150">UNREGISTERED</text><text fill="#eeeeee" stroke="none" font-family="Arial" font-size="24px" font-style="normal" font-weight="normal" text-decoration="none" x="600" y="180">UNREGISTERED</text><text fill="#eeeeee" stroke="none" font-family="Arial" font-size="24px" font-style="normal" font-weight="normal" text-decoration="none" x="600" y="210">UNREGISTERED</text><text fill="#eeeeee" stroke="none" font-family="Arial" font-size="24px" font-style="normal" font-weight="normal" text-decoration="none" x="600" y="240">UNREGISTERED</text><text fill="#eeeeee" stroke="none" font-family="Arial" font-size="24px" font-style="normal" font-weight="normal" text-decoration="none" x="600" y="270">UNREGISTERED</text><text fill="#eeeeee" stroke="none" font-family="Arial" font-size="24px" font-style="normal" font-weight="normal" text-decoration="none" x="600" y="300">UNREGISTERED</text><text fill="#eeeeee" stroke="none" font-family="Arial" font-size="24px" font-style="normal" font-weight="normal" text-decoration="none" x="600" y="330">UNREGISTERED</text><text fill="#eeeeee" stroke="none" font-family="Arial" font-size="24px" font-style="normal" font-weight="normal" text-decoration="none" x="600" y="360">UNREGISTERED</text><text fill="#eeeeee" stroke="none" font-family="Arial" font-size="24px" font-style="normal" font-weight="normal" text-decoration="none" x="600" y="390">UNREGISTERED</text><text fill="#eeeeee" stroke="none" font-family="Arial" font-size="24px" font-style="normal" font-weight="normal" text-decoration="none" x="600" y="420">UNREGISTERED</text><text fill="#eeeeee" stroke="none" font-family="Arial" font-size="24px" font-style="normal" font-weight="normal" text-decoration="none" x="600" y="450">UNREGISTERED</text><text fill="#eeeeee" stroke="none" font-family="Arial" font-size="24px" font-style="normal" font-weight="normal" text-decoration="none" x="600" y="480">UNREGISTERED</text><text fill="#eeeeee" stroke="none" font-family="Arial" font-size="24px" font-style="normal" font-weight="normal" text-decoration="none" x="600" y="510">UNREGISTERED</text><text fill="#eeeeee" stroke="none" font-family="Arial" font-size="24px" font-style="normal" font-weight="normal" text-decoration="none" x="600" y="540">UNREGISTERED</text><text fill="#eeeeee" stroke="none" font-family="Arial" font-size="24px" font-style="normal" font-weight="normal" text-decoration="none" x="600" y="570">UNREGISTERED</text><text fill="#eeeeee" stroke="none" font-family="Arial" font-size="24px" font-style="normal" font-weight="normal" text-decoration="none" x="600" y="600">UNREGISTERED</text><text fill="#eeeeee" stroke="none" font-family="Arial" font-size="24px" font-style="normal" font-weight="normal" text-decoration="none" x="600" y="630">UNREGISTERED</text><text fill="#eeeeee" stroke="none" font-family="Arial" font-size="24px" font-style="normal" font-weight="normal" text-decoration="none" x="600" y="660">UNREGISTERED</text><text fill="#eeeeee" stroke="none" font-family="Arial" font-size="24px" font-style="normal" font-weight="normal" text-decoration="none" x="600" y="690">UNREGISTERED</text><g transform="translate(-126,-166) scale(1,1)"><rect fill="#C0C0C0" stroke="none" x="455" y="183" width="138.71435546875" height="168" opacity="0.2"/></g><g transform="translate(-126,-166) scale(1,1)"><rect fill="#ffffff" stroke="none" x="448" y="176" width="138.71435546875" height="168"/></g><g transform="translate(-126,-166) scale(1,1)"><path fill="none" stroke="#000000" d="M 448 176 L 586.71435546875 176 L 586.71435546875 344 L 448 344 L 448 176 Z Z" stroke-miterlimit="10"/></g><g transform="translate(-126,-166) scale(1,1)"><path fill="none" stroke="#000000" d="M 448 201 L 586.71435546875 201" stroke-miterlimit="10"/></g><g transform="translate(-126,-166) scale(1,1)"><path fill="none" stroke="#000000" d="M 448 284 L 586.71435546875 284" stroke-miterlimit="10"/></g><g transform="translate(-126,-166) scale(1,1)"><g><path fill="none" stroke="none"/><text fill="#000000" stroke="none" font-family="Arial" font-size="13px" font-style="normal" font-weight="bold" text-decoration="none" x="495.686279296875" y="194">Cliente</text></g></g><g transform="translate(-126,-166) scale(1,1)"><g><path fill="none" stroke="none"/><text fill="#000000" stroke="none" font-family="Arial" font-size="13px" font-style="normal" font-weight="normal" text-decoration="none" x="453" y="217">+nome: string</text></g></g><g transform="translate(-126,-166) scale(1,1)"><g><path fill="none" stroke="none"/><text fill="#000000" stroke="none" font-family="Arial" font-size="13px" font-style="normal" font-weight="normal" text-decoration="none" x="453" y="232">+cpf: int</text></g></g><g transform="translate(-126,-166) scale(1,1)"><g><path fill="none" stroke="none"/><text fill="#000000" stroke="none" font-family="Arial" font-size="13px" font-style="normal" font-weight="normal" text-decoration="none" x="453" y="247">+contaBancaria: string</text></g></g><g transform="translate(-126,-166) scale(1,1)"><g><path fill="none" stroke="none"/><text fill="#000000" stroke="none" font-family="Arial" font-size="13px" font-style="normal" font-weight="normal" text-decoration="none" x="453" y="262">+email: string</text></g></g><g transform="translate(-126,-166) scale(1,1)"><g><path fill="none" stroke="none"/><text fill="#000000" stroke="none" font-family="Arial" font-size="13px" font-style="normal" font-weight="normal" text-decoration="none" x="453" y="277">+saldoConta: float</text></g></g><g transform="translate(-126,-166) scale(1,1)"><g><path fill="none" stroke="none"/><text fill="#000000" stroke="none" font-family="Arial" font-size="13px" font-style="normal" font-weight="normal" text-decoration="none" x="453" y="300">+registrar()</text></g></g><g transform="translate(-126,-166) scale(1,1)"><g><path fill="none" stroke="none"/><text fill="#000000" stroke="none" font-family="Arial" font-size="13px" font-style="normal" font-weight="normal" text-decoration="none" x="453" y="315">+enviaOrdem()</text></g></g><g transform="translate(-126,-166) scale(1,1)"><g><path fill="none" stroke="none"/><text fill="#000000" stroke="none" font-family="Arial" font-size="13px" font-style="normal" font-weight="normal" text-decoration="none" x="453" y="330">+visualizaCotacao()</text></g></g><g transform="translate(-126,-166) scale(1,1)"><rect fill="#C0C0C0" stroke="none" x="335" y="647" width="143.0244140625" height="57" opacity="0.2"/></g><g transform="translate(-126,-166) scale(1,1)"><rect fill="#ffffff" stroke="none" x="328" y="640" width="143.0244140625" height="57"/></g><g transform="translate(-126,-166) scale(1,1)"><path fill="none" stroke="#000000" d="M 328 640 L 471.0244140625 640 L 471.0244140625 697 L 328 697 L 328 640 Z Z" stroke-miterlimit="10"/></g><g transform="translate(-126,-166) scale(1,1)"><path fill="none" stroke="#000000" d="M 328 665 L 471.0244140625 665" stroke-miterlimit="10"/></g><g transform="translate(-126,-166) scale(1,1)"><path fill="none" stroke="#000000" d="M 328 688 L 471.0244140625 688" stroke-miterlimit="10"/></g><g transform="translate(-126,-166) scale(1,1)"><g><path fill="none" stroke="none"/><text fill="#000000" stroke="none" font-family="Arial" font-size="13px" font-style="normal" font-weight="bold" text-decoration="none" x="374.953125" y="658">Compra</text></g></g><g transform="translate(-126,-166) scale(1,1)"><g><path fill="none" stroke="none"/><text fill="#000000" stroke="none" font-family="Arial" font-size="13px" font-style="normal" font-weight="normal" text-decoration="none" x="333" y="681">+valorCompra: decimal</text></g></g><g transform="translate(-126,-166) scale(1,1)"><rect fill="#C0C0C0" stroke="none" x="455" y="495" width="141.58349609375" height="102" opacity="0.2"/></g><g transform="translate(-126,-166) scale(1,1)"><rect fill="#ffffff" stroke="none" x="448" y="488" width="141.58349609375" height="102"/></g><g transform="translate(-126,-166) scale(1,1)"><path fill="none" stroke="#000000" d="M 448 488 L 589.58349609375 488 L 589.58349609375 590 L 448 590 L 448 488 Z Z" stroke-miterlimit="10"/></g><g transform="translate(-126,-166) scale(1,1)"><path fill="none" stroke="#000000" d="M 448 513 L 589.58349609375 513" stroke-miterlimit="10"/></g><g transform="translate(-126,-166) scale(1,1)"><path fill="none" stroke="#000000" d="M 448 581 L 589.58349609375 581" stroke-miterlimit="10"/></g><g transform="translate(-126,-166) scale(1,1)"><g><path fill="none" stroke="none"/><text fill="#000000" stroke="none" font-family="Arial" font-size="13px" font-style="normal" font-weight="bold" text-decoration="none" x="497.84130859375" y="506">Ordem</text></g></g><g transform="translate(-126,-166) scale(1,1)"><g><path fill="none" stroke="none"/><text fill="#000000" stroke="none" font-family="Arial" font-size="13px" font-style="normal" font-weight="normal" text-decoration="none" x="453" y="529">+id: ID autoincrement()</text></g></g><g transform="translate(-126,-166) scale(1,1)"><g><path fill="none" stroke="none"/><text fill="#000000" stroke="none" font-family="Arial" font-size="13px" font-style="normal" font-weight="normal" text-decoration="none" x="453" y="544">+date: date()</text></g></g><g transform="translate(-126,-166) scale(1,1)"><g><path fill="none" stroke="none"/><text fill="#000000" stroke="none" font-family="Arial" font-size="13px" font-style="normal" font-weight="normal" text-decoration="none" x="453" y="559">+hora: datetime()</text></g></g><g transform="translate(-126,-166) scale(1,1)"><g><path fill="none" stroke="none"/><text fill="#000000" stroke="none" font-family="Arial" font-size="13px" font-style="normal" font-weight="normal" text-decoration="none" x="453" y="574">+quantidade: int</text></g></g><g transform="translate(-126,-166) scale(1,1)"><rect fill="#C0C0C0" stroke="none" x="591" y="655" width="133.66162109375" height="57" opacity="0.2"/></g><g transform="translate(-126,-166) scale(1,1)"><rect fill="#ffffff" stroke="none" x="584" y="648" width="133.66162109375" height="57"/></g><g transform="translate(-126,-166) scale(1,1)"><path fill="none" stroke="#000000" d="M 584 648 L 717.66162109375 648 L 717.66162109375 705 L 584 705 L 584 648 Z Z" stroke-miterlimit="10"/></g><g transform="translate(-126,-166) scale(1,1)"><path fill="none" stroke="#000000" d="M 584 673 L 717.66162109375 673" stroke-miterlimit="10"/></g><g transform="translate(-126,-166) scale(1,1)"><path fill="none" stroke="#000000" d="M 584 696 L 717.66162109375 696" stroke-miterlimit="10"/></g><g transform="translate(-126,-166) scale(1,1)"><g><path fill="none" stroke="none"/><text fill="#000000" stroke="none" font-family="Arial" font-size="13px" font-style="normal" font-weight="bold" text-decoration="none" x="631.68310546875" y="666">Venda</text></g></g><g transform="translate(-126,-166) scale(1,1)"><g><path fill="none" stroke="none"/><text fill="#000000" stroke="none" font-family="Arial" font-size="13px" font-style="normal" font-weight="normal" text-decoration="none" x="589" y="689">+valorVenda: decimal</text></g></g><g transform="translate(-126,-166) scale(1,1)"><rect fill="#C0C0C0" stroke="none" x="791" y="511" width="128" height="72" opacity="0.2"/></g><g transform="translate(-126,-166) scale(1,1)"><rect fill="#ffffff" stroke="none" x="784" y="504" width="128" height="72"/></g><g transform="translate(-126,-166) scale(1,1)"><path fill="none" stroke="#000000" d="M 784 504 L 912 504 L 912 576 L 784 576 L 784 504 Z Z" stroke-miterlimit="10"/></g><g transform="translate(-126,-166) scale(1,1)"><path fill="none" stroke="#000000" d="M 784 529 L 912 529" stroke-miterlimit="10"/></g><g transform="translate(-126,-166) scale(1,1)"><path fill="none" stroke="#000000" d="M 784 539 L 912 539" stroke-miterlimit="10"/></g><g transform="translate(-126,-166) scale(1,1)"><g><path fill="none" stroke="none"/><text fill="#000000" stroke="none" font-family="Arial" font-size="13px" font-style="normal" font-weight="bold" text-decoration="none" x="839.69091796875" y="522">B3</text></g></g><g transform="translate(-126,-166) scale(1,1)"><g><path fill="none" stroke="none"/><text fill="#000000" stroke="none" font-family="Arial" font-size="13px" font-style="normal" font-weight="normal" text-decoration="none" x="789" y="555">+registraOrdem()</text></g></g><g transform="translate(-126,-166) scale(1,1)"><rect fill="#C0C0C0" stroke="none" x="439" y="767" width="169.7734375" height="87" opacity="0.2"/></g><g transform="translate(-126,-166) scale(1,1)"><rect fill="#ffffff" stroke="none" x="432" y="760" width="169.7734375" height="87"/></g><g transform="translate(-126,-166) scale(1,1)"><path fill="none" stroke="#000000" d="M 432 760 L 601.7734375 760 L 601.7734375 847 L 432 847 L 432 760 Z Z" stroke-miterlimit="10"/></g><g transform="translate(-126,-166) scale(1,1)"><path fill="none" stroke="#000000" d="M 432 785 L 601.7734375 785" stroke-miterlimit="10"/></g><g transform="translate(-126,-166) scale(1,1)"><path fill="none" stroke="#000000" d="M 432 838 L 601.7734375 838" stroke-miterlimit="10"/></g><g transform="translate(-126,-166) scale(1,1)"><g><path fill="none" stroke="none"/><text fill="#000000" stroke="none" font-family="Arial" font-size="13px" font-style="normal" font-weight="bold" text-decoration="none" x="500.9921875" y="778">Ação</text></g></g><g transform="translate(-126,-166) scale(1,1)"><g><path fill="none" stroke="none"/><text fill="#000000" stroke="none" font-family="Arial" font-size="13px" font-style="normal" font-weight="normal" text-decoration="none" x="437" y="801">+código: string</text></g></g><g transform="translate(-126,-166) scale(1,1)"><g><path fill="none" stroke="none"/><text fill="#000000" stroke="none" font-family="Arial" font-size="13px" font-style="normal" font-weight="normal" text-decoration="none" x="437" y="816">+nome: string</text></g></g><g transform="translate(-126,-166) scale(1,1)"><g><path fill="none" stroke="none"/><text fill="#000000" stroke="none" font-family="Arial" font-size="13px" font-style="normal" font-weight="normal" text-decoration="none" x="437" y="831">+quantidade: int</text></g></g><g transform="translate(-126,-166) scale(1,1)"><rect fill="#C0C0C0" stroke="none" x="783" y="215" width="136.63623046875" height="102" opacity="0.2"/></g><g transform="translate(-126,-166) scale(1,1)"><rect fill="#ffffff" stroke="none" x="776" y="208" width="136.63623046875" height="102"/></g><g transform="translate(-126,-166) scale(1,1)"><path fill="none" stroke="#000000" d="M 776 208 L 912.63623046875 208 L 912.63623046875 310 L 776 310 L 776 208 Z Z" stroke-miterlimit="10"/></g><g transform="translate(-126,-166) scale(1,1)"><path fill="none" stroke="#000000" d="M 776 233 L 912.63623046875 233" stroke-miterlimit="10"/></g><g transform="translate(-126,-166) scale(1,1)"><path fill="none" stroke="#000000" d="M 776 243 L 912.63623046875 243" stroke-miterlimit="10"/></g><g transform="translate(-126,-166) scale(1,1)"><g><path fill="none" stroke="none"/><text fill="#000000" stroke="none" font-family="Arial" font-size="13px" font-style="normal" font-weight="bold" text-decoration="none" x="814.699951171875" y="226">Corretora</text></g></g><g transform="translate(-126,-166) scale(1,1)"><g><path fill="none" stroke="none"/><text fill="#000000" stroke="none" font-family="Arial" font-size="13px" font-style="normal" font-weight="normal" text-decoration="none" x="781" y="259">+aprovaCadastro()</text></g></g><g transform="translate(-126,-166) scale(1,1)"><g><path fill="none" stroke="none"/><text fill="#000000" stroke="none" font-family="Arial" font-size="13px" font-style="normal" font-weight="normal" text-decoration="none" x="781" y="274">+enviaOrdem()</text></g></g><g transform="translate(-126,-166) scale(1,1)"><g><path fill="none" stroke="none"/><text fill="#000000" stroke="none" font-family="Arial" font-size="13px" font-style="normal" font-weight="normal" text-decoration="none" x="781" y="289">+enviaRelatorio()</text></g></g><g transform="translate(-126,-166) scale(1,1)"><path fill="none" stroke="#000000" d="M 478 759 L 425 698" stroke-miterlimit="10"/></g><g transform="translate(-126,-166) scale(1,1)"><path fill="none" stroke="#000000" d="M 562 759 L 618 706" stroke-miterlimit="10"/></g><g transform="translate(-126,-166) scale(1,1)"><rect fill="#C0C0C0" stroke="none" x="143" y="455" width="144" height="48" opacity="0.2"/></g><g transform="translate(-126,-166) scale(1,1)"><rect fill="#ffffff" stroke="none" x="136" y="448" width="144" height="48"/></g><g transform="translate(-126,-166) scale(1,1)"><path fill="none" stroke="#000000" d="M 136 448 L 280 448 L 280 496 L 136 496 L 136 448 Z Z" stroke-miterlimit="10"/></g><g transform="translate(-126,-166) scale(1,1)"><path fill="none" stroke="#000000" d="M 136 473 L 280 473" stroke-miterlimit="10"/></g><g transform="translate(-126,-166) scale(1,1)"><path fill="none" stroke="#000000" d="M 136 483 L 280 483" stroke-miterlimit="10"/></g><g transform="translate(-126,-166) scale(1,1)"><g><path fill="none" stroke="none"/><text fill="#000000" stroke="none" font-family="Arial" font-size="13px" font-style="normal" font-weight="bold" text-decoration="none" x="152.724609375" y="466">Carteira de Ações</text></g></g><g transform="translate(-126,-166) scale(1,1)"><path fill="none" stroke="#000000" d="M 431 802 L 208 800 L 208 497" stroke-miterlimit="10"/></g><g transform="translate(-126,-166) scale(1,1)"><path fill="none" stroke="#000000" d="M 212.209517756016 507.16267485762415 L 208 497 L 203.790482243984 507.16267485762415" stroke-miterlimit="10"/></g><g transform="translate(-126,-166) scale(1,1)"><g><path fill="none" stroke="none"/><text fill="#000000" stroke="none" font-family="Arial" font-size="13px" font-style="normal" font-weight="normal" text-decoration="none" x="135.5" y="682">+Compõem</text></g></g><g transform="translate(-126,-166) scale(1,1)"><g><path fill="none" stroke="none"/><text fill="#000000" stroke="none" font-family="Arial" font-size="13px" font-style="normal" font-weight="normal" text-decoration="none" x="367.2890625" y="794">+1*</text></g></g><g transform="translate(-126,-166) scale(1,1)"><g><path fill="none" stroke="none"/><text fill="#000000" stroke="none" font-family="Arial" font-size="13px" font-style="normal" font-weight="normal" text-decoration="none" x="186.029541015625" y="527">+1</text></g></g><g transform="translate(-126,-166) scale(1,1)"><path fill="none" stroke="#000000" d="M 775 259 L 588 260" stroke-miterlimit="10"/></g><g transform="translate(-126,-166) scale(1,1)"><path fill="#000000" stroke="none" d="M 598.1400190826901 255.73619735415892 L 588 260 L 598.1850400192465 264.15511249021574 L 609.9996854424181 259.8823546233026"/></g><g transform="translate(-126,-166) scale(1,1)"><path fill="none" stroke="#000000" d="M 598.1400190826901 255.73619735415892 L 588 260 L 598.1850400192465 264.15511249021574 L 609.9996854424181 259.8823546233026 L 598.1400190826901 255.73619735415892" stroke-miterlimit="10"/></g><g transform="translate(-126,-166) scale(1,1)"><g><path fill="none" stroke="none"/><text fill="#000000" stroke="none" font-family="Arial" font-size="13px" font-style="normal" font-weight="normal" text-decoration="none" x="598.5" y="279">+Aprova</text></g></g><g transform="translate(-126,-166) scale(1,1)"><path fill="none" stroke="#000000" d="M 447 261 L 208 264 L 208 447" stroke-miterlimit="10"/></g><g transform="translate(-126,-166) scale(1,1)"><path fill="#FFFFFF" stroke="none" d="M 203.790482243984 436.83732514237585 L 208 447 L 212.209517756016 436.83732514237585 L 208 425"/></g><g transform="translate(-126,-166) scale(1,1)"><path fill="none" stroke="#000000" d="M 203.790482243984 436.83732514237585 L 208 447 L 212.209517756016 436.83732514237585 L 208 425 L 203.790482243984 436.83732514237585" stroke-miterlimit="10"/></g><g transform="translate(-126,-166) scale(1,1)"><g><path fill="none" stroke="none"/><text fill="#000000" stroke="none" font-family="Arial" font-size="13px" font-style="normal" font-weight="normal" text-decoration="none" x="150.5" y="434">+Possui</text></g></g><g transform="translate(-126,-166) scale(1,1)"><g><path fill="none" stroke="none"/><text fill="#000000" stroke="none" font-family="Arial" font-size="13px" font-style="normal" font-weight="normal" text-decoration="none" x="413.5" y="281">+1</text></g></g><g transform="translate(-126,-166) scale(1,1)"><g><path fill="none" stroke="none"/><text fill="#000000" stroke="none" font-family="Arial" font-size="13px" font-style="normal" font-weight="normal" text-decoration="none" x="215.5" y="426">+1</text></g></g><g transform="translate(-126,-166) scale(1,1)"><path fill="none" stroke="#000000" d="M 783 311 L 579 487" stroke-miterlimit="10"/></g><g transform="translate(-126,-166) scale(1,1)"><path fill="#000000" stroke="none" d="M 583.9449406626566 477.1741381119616 L 579 487 L 589.444534647164 483.54866750309515 L 595.6574480419422 472.62886835597146"/></g><g transform="translate(-126,-166) scale(1,1)"><path fill="none" stroke="#000000" d="M 583.9449406626566 477.1741381119616 L 579 487 L 589.444534647164 483.54866750309515 L 595.6574480419422 472.62886835597146 L 583.9449406626566 477.1741381119616" stroke-miterlimit="10"/></g><g transform="translate(-126,-166) scale(1,1)"><g><path fill="none" stroke="none"/><text fill="#000000" stroke="none" font-family="Arial" font-size="13px" font-style="normal" font-weight="normal" text-decoration="none" x="675.5" y="418">+Gerencia</text></g></g><g transform="translate(-126,-166) scale(1,1)"><g><path fill="none" stroke="none"/><text fill="#000000" stroke="none" font-family="Arial" font-size="13px" font-style="normal" font-weight="normal" text-decoration="none" x="765.5" y="344">+1</text></g></g><g transform="translate(-126,-166) scale(1,1)"><g><path fill="none" stroke="none"/><text fill="#000000" stroke="none" font-family="Arial" font-size="13px" font-style="normal" font-weight="normal" text-decoration="none" x="598.029541015625" y="486">+1*</text></g></g><g transform="translate(-126,-166) scale(1,1)"><path fill="none" stroke="#000000" d="M 426 639 L 470 591" stroke-miterlimit="10" stroke-dasharray="3"/></g><g transform="translate(-126,-166) scale(1,1)"><path fill="none" stroke="#000000" d="M 466.23589374918504 601.3359326687327 L 470 591 L 460.02976686499363 595.6469830248906" stroke-miterlimit="10"/></g><g transform="translate(-126,-166) scale(1,1)"><path fill="none" stroke="#000000" d="M 622 647 L 568 591" stroke-miterlimit="10" stroke-dasharray="3"/></g><g transform="translate(-126,-166) scale(1,1)"><path fill="none" stroke="#000000" d="M 578.0844714540991 595.3935675130193 L 568 591 L 572.0240767678188 601.2375195319325" stroke-miterlimit="10"/></g><g transform="translate(-126,-166) scale(1,1)"><path fill="none" stroke="#000000" d="M 845 311 L 847 503" stroke-miterlimit="10"/></g><g transform="translate(-126,-166) scale(1,1)"><g><path fill="none" stroke="none"/><text fill="#000000" stroke="none" font-family="Arial" font-size="13px" font-style="normal" font-weight="normal" text-decoration="none" x="798.5" y="475">+Envia</text></g></g><g transform="translate(-126,-166) scale(1,1)"><g><path fill="none" stroke="none"/><text fill="#000000" stroke="none" font-family="Arial" font-size="13px" font-style="normal" font-weight="normal" text-decoration="none" x="852.5" y="341">+1</text></g></g><g transform="translate(-126,-166) scale(1,1)"><g><path fill="none" stroke="none"/><text fill="#000000" stroke="none" font-family="Arial" font-size="13px" font-style="normal" font-weight="normal" text-decoration="none" x="853.5" y="481">+1</text></g></g></g></svg>