<svg version="1.1" xmlns="http://www.w3.org/2000/svg" xmlns:xlink="http://www.w3.org/1999/xlink" width="972" height="388"><defs/><g><text fill="#eeeeee" stroke="none" font-family="Arial" font-size="24px" font-style="normal" font-weight="normal" text-decoration="none" x="0" y="0">UNREGISTERED</text><text fill="#eeeeee" stroke="none" font-family="Arial" font-size="24px" font-style="normal" font-weight="normal" text-decoration="none" x="0" y="30">UNREGISTERED</text><text fill="#eeeeee" stroke="none" font-family="Arial" font-size="24px" font-style="normal" font-weight="normal" text-decoration="none" x="0" y="60">UNREGISTERED</text><text fill="#eeeeee" stroke="none" font-family="Arial" font-size="24px" font-style="normal" font-weight="normal" text-decoration="none" x="0" y="90">UNREGISTERED</text><text fill="#eeeeee" stroke="none" font-family="Arial" font-size="24px" font-style="normal" font-weight="normal" text-decoration="none" x="0" y="120">UNREGISTERED</text><text fill="#eeeeee" stroke="none" font-family="Arial" font-size="24px" font-style="normal" font-weight="normal" text-decoration="none" x="0" y="150">UNREGISTERED</text><text fill="#eeeeee" stroke="none" font-family="Arial" font-size="24px" font-style="normal" font-weight="normal" text-decoration="none" x="0" y="180">UNREGISTERED</text><text fill="#eeeeee" stroke="none" font-family="Arial" font-size="24px" font-style="normal" font-weight="normal" text-decoration="none" x="0" y="210">UNREGISTERED</text><text fill="#eeeeee" stroke="none" font-family="Arial" font-size="24px" font-style="normal" font-weight="normal" text-decoration="none" x="0" y="240">UNREGISTERED</text><text fill="#eeeeee" stroke="none" font-family="Arial" font-size="24px" font-style="normal" font-weight="normal" text-decoration="none" x="0" y="270">UNREGISTERED</text><text fill="#eeeeee" stroke="none" font-family="Arial" font-size="24px" font-style="normal" font-weight="normal" text-decoration="none" x="0" y="300">UNREGISTERED</text><text fill="#eeeeee" stroke="none" font-family="Arial" font-size="24px" font-style="normal" font-weight="normal" text-decoration="none" x="0" y="330">UNREGISTERED</text><text fill="#eeeeee" stroke="none" font-family="Arial" font-size="24px" font-style="normal" font-weight="normal" text-decoration="none" x="0" y="360">UNREGISTERED</text><text fill="#eeeeee" stroke="none" font-family="Arial" font-size="24px" font-style="normal" font-weight="normal" text-decoration="none" x="200" y="0">UNREGISTERED</text><text fill="#eeeeee" stroke="none" font-family="Arial" font-size="24px" font-style="normal" font-weight="normal" text-decoration="none" x="200" y="30">UNREGISTERED</text><text fill="#eeeeee" stroke="none" font-family="Arial" font-size="24px" font-style="normal" font-weight="normal" text-decoration="none" x="200" y="60">UNREGISTERED</text><text fill="#eeeeee" stroke="none" font-family="Arial" font-size="24px" font-style="normal" font-weight="normal" text-decoration="none" x="200" y="90">UNREGISTERED</text><text fill="#eeeeee" stroke="none" font-family="Arial" font-size="24px" font-style="normal" font-weight="normal" text-decoration="none" x="200" y="120">UNREGISTERED</text><text fill="#eeeeee" stroke="none" font-family="Arial" font-size="24px" font-style="normal" font-weight="normal" text-decoration="none" x="200" y="150">UNREGISTERED</text><text fill="#eeeeee" stroke="none" font-family="Arial" font-size="24px" font-style="normal" font-weight="normal" text-decoration="none" x="200" y="180">UNREGISTERED</text><text fill="#eeeeee" stroke="none" font-family="Arial" font-size="24px" font-style="normal" font-weight="normal" text-decoration="none" x="200" y="210">UNREGISTERED</text><text fill="#eeeeee" stroke="none" font-family="Arial" font-size="24px" font-style="normal" font-weight="normal" text-decoration="none" x="200" y="240">UNREGISTERED</text><text fill="#eeeeee" stroke="none" font-family="Arial" font-size="24px" font-style="normal" font-weight="normal" text-decoration="none" x="200" y="270">UNREGISTERED</text><text fill="#eeeeee" stroke="none" font-family="Arial" font-size="24px" font-style="normal" font-weight="normal" text-decoration="none" x="200" y="300">UNREGISTERED</text><text fill="#eeeeee" stroke="none" font-family="Arial" font-size="24px" font-style="normal" font-weight="normal" text-decoration="none" x="200" y="330">UNREGISTERED</text><text fill="#eeeeee" stroke="none" font-family="Arial" font-size="24px" font-style="normal" font-weight="normal" text-decoration="none" x="200" y="360">UNREGISTERED</text><text fill="#eeeeee" stroke="none" font-family="Arial" font-size="24px" font-style="normal" font-weight="normal" text-decoration="none" x="400" y="0">UNREGISTERED</text><text fill="#eeeeee" stroke="none" font-family="Arial" font-size="24px" font-style="normal" font-weight="normal" text-decoration="none" x="400" y="30">UNREGISTERED</text><text fill="#eeeeee" stroke="none" font-family="Arial" font-size="24px" font-style="normal" font-weight="normal" text-decoration="none" x="400" y="60">UNREGISTERED</text><text fill="#eeeeee" stroke="none" font-family="Arial" font-size="24px" font-style="normal" font-weight="normal" text-decoration="none" x="400" y="90">UNREGISTERED</text><text fill="#eeeeee" stroke="none" font-family="Arial" font-size="24px" font-style="normal" font-weight="normal" text-decoration="none" x="400" y="120">UNREGISTERED</text><text fill="#eeeeee" stroke="none" font-family="Arial" font-size="24px" font-style="normal" font-weight="normal" text-decoration="none" x="400" y="150">UNREGISTERED</text><text fill="#eeeeee" stroke="none" font-family="Arial" font-size="24px" font-style="normal" font-weight="normal" text-decoration="none" x="400" y="180">UNREGISTERED</text><text fill="#eeeeee" stroke="none" font-family="Arial" font-size="24px" font-style="normal" font-weight="normal" text-decoration="none" x="400" y="210">UNREGISTERED</text><text fill="#eeeeee" stroke="none" font-family="Arial" font-size="24px" font-style="normal" font-weight="normal" text-decoration="none" x="400" y="240">UNREGISTERED</text><text fill="#eeeeee" stroke="none" font-family="Arial" font-size="24px" font-style="normal" font-weight="normal" text-decoration="none" x="400" y="270">UNREGISTERED</text><text fill="#eeeeee" stroke="none" font-family="Arial" font-size="24px" font-style="normal" font-weight="normal" text-decoration="none" x="400" y="300">UNREGISTERED</text><text fill="#eeeeee" stroke="none" font-family="Arial" font-size="24px" font-style="normal" font-weight="normal" text-decoration="none" x="400" y="330">UNREGISTERED</text><text fill="#eeeeee" stroke="none" font-family="Arial" font-size="24px" font-style="normal" font-weight="normal" text-decoration="none" x="400" y="360">UNREGISTERED</text><text fill="#eeeeee" stroke="none" font-family="Arial" font-size="24px" font-style="normal" font-weight="normal" text-decoration="none" x="600" y="0">UNREGISTERED</text><text fill="#eeeeee" stroke="none" font-family="Arial" font-size="24px" font-style="normal" font-weight="normal" text-decoration="none" x="600" y="30">UNREGISTERED</text><text fill="#eeeeee" stroke="none" font-family="Arial" font-size="24px" font-style="normal" font-weight="normal" text-decoration="none" x="600" y="60">UNREGISTERED</text><text fill="#eeeeee" stroke="none" font-family="Arial" font-size="24px" font-style="normal" font-weight="normal" text-decoration="none" x="600" y="90">UNREGISTERED</text><text fill="#eeeeee" stroke="none" font-family="Arial" font-size="24px" font-style="normal" font-weight="normal" text-decoration="none" x="600" y="120">UNREGISTERED</text><text fill="#eeeeee" stroke="none" font-family="Arial" font-size="24px" font-style="normal" font-weight="normal" text-decoration="none" x="600" y="150">UNREGISTERED</text><text fill="#eeeeee" stroke="none" font-family="Arial" font-size="24px" font-style="normal" font-weight="normal" text-decoration="none" x="600" y="180">UNREGISTERED</text><text fill="#eeeeee" stroke="none" font-family="Arial" font-size="24px" font-style="normal" font-weight="normal" text-decoration="none" x="600" y="210">UNREGISTERED</text><text fill="#eeeeee" stroke="none" font-family="Arial" font-size="24px" font-style="normal" font-weight="normal" text-decoration="none" x="600" y="240">UNREGISTERED</text><text fill="#eeeeee" stroke="none" font-family="Arial" font-size="24px" font-style="normal" font-weight="normal" text-decoration="none" x="600" y="270">UNREGISTERED</text><text fill="#eeeeee" stroke="none" font-family="Arial" font-size="24px" font-style="normal" font-weight="normal" text-decoration="none" x="600" y="300">UNREGISTERED</text><text fill="#eeeeee" stroke="none" font-family="Arial" font-size="24px" font-style="normal" font-weight="normal" text-decoration="none" x="600" y="330">UNREGISTERED</text><text fill="#eeeeee" stroke="none" font-family="Arial" font-size="24px" font-style="normal" font-weight="normal" text-decoration="none" x="600" y="360">UNREGISTERED</text><text fill="#eeeeee" stroke="none" font-family="Arial" font-size="24px" font-style="normal" font-weight="normal" text-decoration="none" x="800" y="0">UNREGISTERED</text><text fill="#eeeeee" stroke="none" font-family="Arial" font-size="24px" font-style="normal" font-weight="normal" text-decoration="none" x="800" y="30">UNREGISTERED</text><text fill="#eeeeee" stroke="none" font-family="Arial" font-size="24px" font-style="normal" font-weight="normal" text-decoration="none" x="800" y="60">UNREGISTERED</text><text fill="#eeeeee" stroke="none" font-family="Arial" font-size="24px" font-style="normal" font-weight="normal" text-decoration="none" x="800" y="90">UNREGISTERED</text><text fill="#eeeeee" stroke="none" font-family="Arial" font-size="24px" font-style="normal" font-weight="normal" text-decoration="none" x="800" y="120">UNREGISTERED</text><text fill="#eeeeee" stroke="none" font-family="Arial" font-size="24px" font-style="normal" font-weight="normal" text-decoration="none" x="800" y="150">UNREGISTERED</text><text fill="#eeeeee" stroke="none" font-family="Arial" font-size="24px" font-style="normal" font-weight="normal" text-decoration="none" x="800" y="180">UNREGISTERED</text><text fill="#eeeeee" stroke="none" font-family="Arial" font-size="24px" font-style="normal" font-weight="normal" text-decoration="none" x="800" y="210">UNREGISTERED</text><text fill="#eeeeee" stroke="none" font-family="Arial" font-size="24px" font-style="normal" font-weight="normal" text-decoration="none" x="800" y="240">UNREGISTERED</text><text fill="#eeeeee" stroke="none" font-family="Arial" font-size="24px" font-style="normal" font-weight="normal" text-decoration="none" x="800" y="270">UNREGISTERED</text><text fill="#eeeeee" stroke="none" font-family="Arial" font-size="24px" font-style="normal" font-weight="normal" text-decoration="none" x="800" y="300">UNREGISTERED</text><text fill="#eeeeee" stroke="none" font-family="Arial" font-size="24px" font-style="normal" font-weight="normal" text-decoration="none" x="800" y="330">UNREGISTERED</text><text fill="#eeeeee" stroke="none" font-family="Arial" font-size="24px" font-style="normal" font-weight="normal" text-decoration="none" x="800" y="360">UNREGISTERED</text><g transform="translate(-214,10) scale(1,1)"><path fill="none" stroke="#000000" d="M 224 0 L 1176 0 L 1176 368 L 224 368 L 224 0" stroke-miterlimit="10"/></g><g transform="translate(-214,10) scale(1,1)"><path fill="#ffffff" stroke="none" d="M 224 0 L 224 22 L 300.67724609375 22 L 311.67724609375 11 L 311.67724609375 0 L 224 0"/></g><g transform="translate(-214,10) scale(1,1)"><path fill="none" stroke="#000000" d="M 224 0 L 224 22 L 300.67724609375 22 L 311.67724609375 11 L 311.67724609375 0 L 224 0 L 224 0" stroke-miterlimit="10"/></g><g transform="translate(-214,10) scale(1,1)"><g><path fill="none" stroke="none"/><text fill="#000000" stroke="none" font-family="Arial" font-size="13px" font-style="normal" font-weight="normal" text-decoration="none" x="248.72998046875" y="16">CriarOV</text></g></g><g transform="translate(-214,10) scale(1,1)"><g><path fill="none" stroke="none"/><text fill="#000000" stroke="none" font-family="Arial" font-size="13px" font-style="normal" font-weight="bold" text-decoration="none" x="228.279541015625" y="16">sd</text></g></g><g transform="translate(-214,10) scale(1,1)"><path fill="#ffffff" stroke="none" d="M 308.6131454190341 47.3 C 308.6131454190341 43.82060576 311.4915471412159 41 315.042236328125 41 C 318.5929255150341 41 321.471327237216 43.82060576 321.471327237216 47.3 C 321.471327237216 50.779394239999995 318.5929255150341 53.6 315.042236328125 53.6 C 311.4915471412159 53.6 308.6131454190341 50.779394239999995 308.6131454190341 47.3 Z"/></g><g transform="translate(-214,10) scale(1,1)"><path fill="none" stroke="#000000" d="M 308.6131454190341 47.3 C 308.6131454190341 43.82060576 311.4915471412159 41 315.042236328125 41 C 318.5929255150341 41 321.471327237216 43.82060576 321.471327237216 47.3 C 321.471327237216 50.779394239999995 318.5929255150341 53.6 315.042236328125 53.6 C 311.4915471412159 53.6 308.6131454190341 50.779394239999995 308.6131454190341 47.3 Z" stroke-miterlimit="10"/></g><g transform="translate(-214,10) scale(1,1)"><path fill="none" stroke="#000000" d="M 315.042236328125 53.6 L 315.042236328125 66.4" stroke-miterlimit="10"/></g><g transform="translate(-214,10) scale(1,1)"><path fill="none" stroke="#000000" d="M 308.23496360085227 58.4 L 321.8495090553978 58.4" stroke-miterlimit="10"/></g><g transform="translate(-214,10) scale(1,1)"><path fill="none" stroke="#000000" d="M 315.042236328125 66.4 L 305.58769087357956 79" stroke-miterlimit="10"/></g><g transform="translate(-214,10) scale(1,1)"><path fill="none" stroke="#000000" d="M 315.042236328125 66.4 L 324.4967817826705 79" stroke-miterlimit="10"/></g><g transform="translate(-214,10) scale(1,1)"><g><path fill="none" stroke="none"/><text fill="#000000" stroke="none" font-family="Arial" font-size="13px" font-style="normal" font-weight="bold" text-decoration="none" x="289.40087890625" y="98">: Cliente</text></g></g><g transform="translate(-214,10) scale(1,1)"><path fill="none" stroke="#000000" d="M 316.5 105 L 316.5 330" stroke-miterlimit="10" stroke-dasharray="3"/></g><g transform="translate(-214,10) scale(1,1)"><rect fill="#C0C0C0" stroke="none" x="407" y="47" width="160" height="39" opacity="0.2"/></g><g transform="translate(-214,10) scale(1,1)"><rect fill="#ffffff" stroke="none" x="400" y="40" width="160" height="39"/></g><g transform="translate(-214,10) scale(1,1)"><path fill="none" stroke="#000000" d="M 400 40 L 560 40 L 560 79 L 400 79 L 400 40 Z Z" stroke-miterlimit="10"/></g><g transform="translate(-214,10) scale(1,1)"><g><path fill="none" stroke="none"/><text fill="#000000" stroke="none" font-family="Arial" font-size="13px" font-style="normal" font-weight="bold" text-decoration="none" x="459.049560546875" y="58">Ordem</text></g></g><g transform="translate(-214,10) scale(1,1)"><path fill="none" stroke="#000000" d="M 481.5 80 L 481.5 318" stroke-miterlimit="10" stroke-dasharray="3"/></g><g transform="translate(-214,10) scale(1,1)"><rect fill="#C0C0C0" stroke="none" x="599" y="47" width="160" height="39" opacity="0.2"/></g><g transform="translate(-214,10) scale(1,1)"><rect fill="#ffffff" stroke="none" x="592" y="40" width="160" height="39"/></g><g transform="translate(-214,10) scale(1,1)"><path fill="none" stroke="#000000" d="M 592 40 L 752 40 L 752 79 L 592 79 L 592 40 Z Z" stroke-miterlimit="10"/></g><g transform="translate(-214,10) scale(1,1)"><g><path fill="none" stroke="none"/><text fill="#000000" stroke="none" font-family="Arial" font-size="13px" font-style="normal" font-weight="bold" text-decoration="none" x="627.931396484375" y="58">Ordem: Venda</text></g></g><g transform="translate(-214,10) scale(1,1)"><path fill="none" stroke="#000000" d="M 673.5 80 L 673.5 326" stroke-miterlimit="10" stroke-dasharray="3"/></g><g transform="translate(-214,10) scale(1,1)"><rect fill="#C0C0C0" stroke="none" x="799" y="47" width="144" height="39" opacity="0.2"/></g><g transform="translate(-214,10) scale(1,1)"><rect fill="#ffffff" stroke="none" x="792" y="40" width="144" height="39"/></g><g transform="translate(-214,10) scale(1,1)"><path fill="none" stroke="#000000" d="M 792 40 L 936 40 L 936 79 L 792 79 L 792 40 Z Z" stroke-miterlimit="10"/></g><g transform="translate(-214,10) scale(1,1)"><g><path fill="none" stroke="none"/><text fill="#000000" stroke="none" font-family="Arial" font-size="13px" font-style="normal" font-weight="bold" text-decoration="none" x="834.3818359375" y="58">Corretora</text></g></g><g transform="translate(-214,10) scale(1,1)"><path fill="none" stroke="#000000" d="M 865.5 80 L 865.5 342" stroke-miterlimit="10" stroke-dasharray="3"/></g><g transform="translate(-214,10) scale(1,1)"><rect fill="#C0C0C0" stroke="none" x="983" y="47" width="104" height="39" opacity="0.2"/></g><g transform="translate(-214,10) scale(1,1)"><rect fill="#ffffff" stroke="none" x="976" y="40" width="104" height="39"/></g><g transform="translate(-214,10) scale(1,1)"><path fill="none" stroke="#000000" d="M 976 40 L 1080 40 L 1080 79 L 976 79 L 976 40 Z Z" stroke-miterlimit="10"/></g><g transform="translate(-214,10) scale(1,1)"><g><path fill="none" stroke="none"/><text fill="#000000" stroke="none" font-family="Arial" font-size="13px" font-style="normal" font-weight="bold" text-decoration="none" x="1019.69091796875" y="58">B3</text></g></g><g transform="translate(-214,10) scale(1,1)"><path fill="none" stroke="#000000" d="M 1029.5 80 L 1029.5 270" stroke-miterlimit="10" stroke-dasharray="3"/></g><g transform="translate(-214,10) scale(1,1)"><path fill="#000000" stroke="none" d="M 1024 271 C 1024 267.1340064 1027.1340064 264 1031 264 C 1034.8659936 264 1038 267.1340064 1038 271 C 1038 274.8659936 1034.8659936 278 1031 278 C 1027.1340064 278 1024 274.8659936 1024 271 Z"/></g><g transform="translate(-214,10) scale(1,1)"><path fill="none" stroke="#000000" d="M 679 224 L 858 224" stroke-miterlimit="10"/></g><g transform="translate(-214,10) scale(1,1)"><path fill="#000000" stroke="none" d="M 847.8373251423759 228.209517756016 L 858 224 L 847.8373251423758 219.790482243984"/></g><g transform="translate(-214,10) scale(1,1)"><path fill="none" stroke="#000000" d="M 847.8373251423759 228.209517756016 L 858 224 L 847.8373251423758 219.790482243984 L 847.8373251423759 228.209517756016" stroke-miterlimit="10"/></g><g transform="translate(-214,10) scale(1,1)"><g><path fill="none" stroke="none"/><text fill="#000000" stroke="none" font-family="Arial" font-size="13px" font-style="normal" font-weight="normal" text-decoration="none" x="706.5" y="219">3 : recebeOperacao()</text></g></g><g transform="translate(-214,10) scale(1,1)"><rect fill="#ffffff" stroke="none" x="858" y="224" width="13" height="88"/></g><g transform="translate(-214,10) scale(1,1)"><path fill="none" stroke="#000000" d="M 858 224 L 871 224 L 871 312 L 858 312 L 858 224 Z Z" stroke-miterlimit="10"/></g><g transform="translate(-214,10) scale(1,1)"><path fill="none" stroke="#000000" d="M 481 200 L 666 200" stroke-miterlimit="10"/></g><g transform="translate(-214,10) scale(1,1)"><path fill="#000000" stroke="none" d="M 655.8373251423759 204.209517756016 L 666 200 L 655.8373251423758 195.790482243984"/></g><g transform="translate(-214,10) scale(1,1)"><path fill="none" stroke="#000000" d="M 655.8373251423759 204.209517756016 L 666 200 L 655.8373251423758 195.790482243984 L 655.8373251423759 204.209517756016" stroke-miterlimit="10"/></g><g transform="translate(-214,10) scale(1,1)"><g><path fill="none" stroke="none"/><text fill="#000000" stroke="none" font-family="Arial" font-size="13px" font-style="normal" font-weight="normal" text-decoration="none" x="528.181396484375" y="195">2 : geraVenda()</text></g></g><g transform="translate(-214,10) scale(1,1)"><rect fill="#ffffff" stroke="none" x="666" y="200" width="13" height="28"/></g><g transform="translate(-214,10) scale(1,1)"><path fill="none" stroke="#000000" d="M 666 200 L 679 200 L 679 228 L 666 228 L 666 200 Z Z" stroke-miterlimit="10"/></g><g transform="translate(-214,10) scale(1,1)"><path fill="none" stroke="#000000" d="M 316 126 L 474 126" stroke-miterlimit="10"/></g><g transform="translate(-214,10) scale(1,1)"><path fill="#000000" stroke="none" d="M 463.83732514237585 130.209517756016 L 474 126 L 463.83732514237585 121.79048224398402"/></g><g transform="translate(-214,10) scale(1,1)"><path fill="none" stroke="#000000" d="M 463.83732514237585 130.209517756016 L 474 126 L 463.83732514237585 121.79048224398402 L 463.83732514237585 130.209517756016" stroke-miterlimit="10"/></g><g transform="translate(-214,10) scale(1,1)"><g><path fill="none" stroke="none"/><text fill="#000000" stroke="none" font-family="Arial" font-size="13px" font-style="normal" font-weight="normal" text-decoration="none" x="346.5" y="121">1 : enviaOrdem()</text></g></g><g transform="translate(-214,10) scale(1,1)"><rect fill="#ffffff" stroke="none" x="474" y="126" width="13" height="74"/></g><g transform="translate(-214,10) scale(1,1)"><path fill="none" stroke="#000000" d="M 474 126 L 487 126 L 487 200 L 474 200 L 474 126 Z Z" stroke-miterlimit="10"/></g><g transform="translate(-214,10) scale(1,1)"><path fill="none" stroke="#000000" d="M 865 312 L 316 312" stroke-miterlimit="10" stroke-dasharray="3"/></g><g transform="translate(-214,10) scale(1,1)"><path fill="none" stroke="#000000" d="M 326.16267485762415 307.790482243984 L 316 312 L 326.16267485762415 316.209517756016" stroke-miterlimit="10"/></g><g transform="translate(-214,10) scale(1,1)"><g><path fill="none" stroke="none"/><text fill="#000000" stroke="none" font-family="Arial" font-size="13px" font-style="normal" font-weight="normal" text-decoration="none" x="534.5" y="327">5 : enviaRelatorio()</text></g></g><g transform="translate(-214,10) scale(1,1)"><path fill="none" stroke="#000000" d="M 871 224 L 1022 224" stroke-miterlimit="10"/></g><g transform="translate(-214,10) scale(1,1)"><path fill="#000000" stroke="none" d="M 1011.8373251423759 228.209517756016 L 1022 224 L 1011.8373251423758 219.790482243984"/></g><g transform="translate(-214,10) scale(1,1)"><path fill="none" stroke="#000000" d="M 1011.8373251423759 228.209517756016 L 1022 224 L 1011.8373251423758 219.790482243984 L 1011.8373251423759 228.209517756016" stroke-miterlimit="10"/></g><g transform="translate(-214,10) scale(1,1)"><g><path fill="none" stroke="none"/><text fill="#000000" stroke="none" font-family="Arial" font-size="13px" font-style="normal" font-weight="normal" text-decoration="none" x="891.5" y="211">4 : registraOrdem()</text></g></g><g transform="translate(-214,10) scale(1,1)"><rect fill="#ffffff" stroke="none" x="1022" y="224" width="13" height="32"/></g><g transform="translate(-214,10) scale(1,1)"><path fill="none" stroke="#000000" d="M 1022 224 L 1035 224 L 1035 256 L 1022 256 L 1022 224 Z Z" stroke-miterlimit="10"/></g></g></svg>