<svg version="1.1" xmlns="http://www.w3.org/2000/svg" xmlns:xlink="http://www.w3.org/1999/xlink" width="653" height="67"><defs/><g><text fill="#eeeeee" stroke="none" font-family="Arial" font-size="24px" font-style="normal" font-weight="normal" text-decoration="none" x="0" y="0">UNREGISTERED</text><text fill="#eeeeee" stroke="none" font-family="Arial" font-size="24px" font-style="normal" font-weight="normal" text-decoration="none" x="0" y="30">UNREGISTERED</text><text fill="#eeeeee" stroke="none" font-family="Arial" font-size="24px" font-style="normal" font-weight="normal" text-decoration="none" x="0" y="60">UNREGISTERED</text><text fill="#eeeeee" stroke="none" font-family="Arial" font-size="24px" font-style="normal" font-weight="normal" text-decoration="none" x="200" y="0">UNREGISTERED</text><text fill="#eeeeee" stroke="none" font-family="Arial" font-size="24px" font-style="normal" font-weight="normal" text-decoration="none" x="200" y="30">UNREGISTERED</text><text fill="#eeeeee" stroke="none" font-family="Arial" font-size="24px" font-style="normal" font-weight="normal" text-decoration="none" x="200" y="60">UNREGISTERED</text><text fill="#eeeeee" stroke="none" font-family="Arial" font-size="24px" font-style="normal" font-weight="normal" text-decoration="none" x="400" y="0">UNREGISTERED</text><text fill="#eeeeee" stroke="none" font-family="Arial" font-size="24px" font-style="normal" font-weight="normal" text-decoration="none" x="400" y="30">UNREGISTERED</text><text fill="#eeeeee" stroke="none" font-family="Arial" font-size="24px" font-style="normal" font-weight="normal" text-decoration="none" x="400" y="60">UNREGISTERED</text><text fill="#eeeeee" stroke="none" font-family="Arial" font-size="24px" font-style="normal" font-weight="normal" text-decoration="none" x="600" y="0">UNREGISTERED</text><text fill="#eeeeee" stroke="none" font-family="Arial" font-size="24px" font-style="normal" font-weight="normal" text-decoration="none" x="600" y="30">UNREGISTERED</text><text fill="#eeeeee" stroke="none" font-family="Arial" font-size="24px" font-style="normal" font-weight="normal" text-decoration="none" x="600" y="60">UNREGISTERED</text><g transform="translate(-198,-310) scale(1,1)"><path fill="#C0C0C0" stroke="none" d="M 215 352.5 C 215 347.2532944 219.2532944 343 224.5 343 C 229.7467056 343 234 347.2532944 234 352.5 C 234 357.7467056 229.7467056 362 224.5 362 C 219.2532944 362 215 357.7467056 215 352.5 Z" opacity="0.2"/></g><g transform="translate(-198,-310) scale(1,1)"><path fill="#000000" stroke="none" d="M 208 345.5 C 208 340.2532944 212.2532944 336 217.5 336 C 222.7467056 336 227 340.2532944 227 345.5 C 227 350.7467056 222.7467056 355 217.5 355 C 212.2532944 355 208 350.7467056 208 345.5 Z"/></g><g transform="translate(-198,-310) scale(1,1)"><path fill="#C0C0C0" stroke="none" d="M 457 327 L 671.39892578125 327 Q 681.39892578125 327 681.39892578125 337 L 681.39892578125 364 Q 681.39892578125 374 671.39892578125 374 L 457 374 Q 447 374 447 364 L 447 337 Q 447 327 457 327 Z" opacity="0.2"/></g><g transform="translate(-198,-310) scale(1,1)"><path fill="#ffffff" stroke="none" d="M 450 320 L 664.39892578125 320 Q 674.39892578125 320 674.39892578125 330 L 674.39892578125 357 Q 674.39892578125 367 664.39892578125 367 L 450 367 Q 440 367 440 357 L 440 330 Q 440 320 450 320 Z"/></g><g transform="translate(-198,-310) scale(1,1)"><path fill="none" stroke="#000000" d="M 450 320 L 664.39892578125 320 Q 674.39892578125 320 674.39892578125 330 L 674.39892578125 357 Q 674.39892578125 367 664.39892578125 367 L 450 367 Q 440 367 440 357 L 440 330 Q 440 320 450 320 Z" stroke-miterlimit="10"/></g><g transform="translate(-198,-310) scale(1,1)"><path fill="none" stroke="#000000" d="M 440 345 L 674.39892578125 345" stroke-miterlimit="10"/></g><g transform="translate(-198,-310) scale(1,1)"><g><path fill="none" stroke="none"/><text fill="#000000" stroke="none" font-family="Arial" font-size="13px" font-style="normal" font-weight="bold" text-decoration="none" x="444.5" y="338">Registra Ação na Carteira do Cliente</text></g></g><g transform="translate(-198,-310) scale(1,1)"><g><path fill="none" stroke="none"/><text fill="#000000" stroke="none" font-family="Arial" font-size="13px" font-style="normal" font-weight="normal" text-decoration="none" x="445" y="361">do/registraCarteira</text></g></g><g transform="translate(-198,-310) scale(1,1)"><path fill="none" stroke="#000000" d="M 228 345 L 439 344" stroke-miterlimit="10"/></g><g transform="translate(-198,-310) scale(1,1)"><path fill="none" stroke="#000000" d="M 428.8573893710176 348.2576342760801 L 439 344 L 428.8174891768832 339.8386933137403" stroke-miterlimit="10"/></g><g transform="translate(-198,-310) scale(1,1)"><g><path fill="none" stroke="none"/><text fill="#000000" stroke="none" font-family="Arial" font-size="13px" font-style="normal" font-weight="normal" text-decoration="none" x="243.5" y="334">[Recebe Conclusão de Ordem]</text></g></g><g transform="translate(-198,-310) scale(1,1)"><path fill="#C0C0C0" stroke="none" d="M 823 347.5 C 823 340.59644 828.59644 335 835.5 335 C 842.40356 335 848 340.59644 848 347.5 C 848 354.40356 842.40356 360 835.5 360 C 828.59644 360 823 354.40356 823 347.5 Z" opacity="0.2"/></g><g transform="translate(-198,-310) scale(1,1)"><path fill="none" stroke="#000000" d="M 816 340.5 C 816 333.59644 821.59644 328 828.5 328 C 835.40356 328 841 333.59644 841 340.5 C 841 347.40356 835.40356 353 828.5 353 C 821.59644 353 816 347.40356 816 340.5 Z" stroke-miterlimit="10"/></g><g transform="translate(-198,-310) scale(1,1)"><path fill="#000000" stroke="none" d="M 821 340.5 C 821 336.357864 824.357864 333 828.5 333 C 832.642136 333 836 336.357864 836 340.5 C 836 344.642136 832.642136 348 828.5 348 C 824.357864 348 821 344.642136 821 340.5 Z"/></g><g transform="translate(-198,-310) scale(1,1)"><path fill="none" stroke="#000000" d="M 675 342 L 815 340" stroke-miterlimit="10"/></g><g transform="translate(-198,-310) scale(1,1)"><path fill="none" stroke="#000000" d="M 804.8984918238746 344.3542545363899 L 815 340 L 804.7782321587569 335.93607797814394" stroke-miterlimit="10"/></g><g transform="translate(-198,-310) scale(1,1)"><g><path fill="none" stroke="none"/><text fill="#000000" stroke="none" font-family="Arial" font-size="13px" font-style="normal" font-weight="normal" text-decoration="none" x="688.5" y="331">[Conclui Operação]</text></g></g></g></svg>