<svg version="1.1" xmlns="http://www.w3.org/2000/svg" xmlns:xlink="http://www.w3.org/1999/xlink" width="1132" height="388"><defs/><g><text fill="#eeeeee" stroke="none" font-family="Arial" font-size="24px" font-style="normal" font-weight="normal" text-decoration="none" x="0" y="0">UNREGISTERED</text><text fill="#eeeeee" stroke="none" font-family="Arial" font-size="24px" font-style="normal" font-weight="normal" text-decoration="none" x="0" y="30">UNREGISTERED</text><text fill="#eeeeee" stroke="none" font-family="Arial" font-size="24px" font-style="normal" font-weight="normal" text-decoration="none" x="0" y="60">UNREGISTERED</text><text fill="#eeeeee" stroke="none" font-family="Arial" font-size="24px" font-style="normal" font-weight="normal" text-decoration="none" x="0" y="90">UNREGISTERED</text><text fill="#eeeeee" stroke="none" font-family="Arial" font-size="24px" font-style="normal" font-weight="normal" text-decoration="none" x="0" y="120">UNREGISTERED</text><text fill="#eeeeee" stroke="none" font-family="Arial" font-size="24px" font-style="normal" font-weight="normal" text-decoration="none" x="0" y="150">UNREGISTERED</text><text fill="#eeeeee" stroke="none" font-family="Arial" font-size="24px" font-style="normal" font-weight="normal" text-decoration="none" x="0" y="180">UNREGISTERED</text><text fill="#eeeeee" stroke="none" font-family="Arial" font-size="24px" font-style="normal" font-weight="normal" text-decoration="none" x="0" y="210">UNREGISTERED</text><text fill="#eeeeee" stroke="none" font-family="Arial" font-size="24px" font-style="normal" font-weight="normal" text-decoration="none" x="0" y="240">UNREGISTERED</text><text fill="#eeeeee" stroke="none" font-family="Arial" font-size="24px" font-style="normal" font-weight="normal" text-decoration="none" x="0" y="270">UNREGISTERED</text><text fill="#eeeeee" stroke="none" font-family="Arial" font-size="24px" font-style="normal" font-weight="normal" text-decoration="none" x="0" y="300">UNREGISTERED</text><text fill="#eeeeee" stroke="none" font-family="Arial" font-size="24px" font-style="normal" font-weight="normal" text-decoration="none" x="0" y="330">UNREGISTERED</text><text fill="#eeeeee" stroke="none" font-family="Arial" font-size="24px" font-style="normal" font-weight="normal" text-decoration="none" x="0" y="360">UNREGISTERED</text><text fill="#eeeeee" stroke="none" font-family="Arial" font-size="24px" font-style="normal" font-weight="normal" text-decoration="none" x="200" y="0">UNREGISTERED</text><text fill="#eeeeee" stroke="none" font-family="Arial" font-size="24px" font-style="normal" font-weight="normal" text-decoration="none" x="200" y="30">UNREGISTERED</text><text fill="#eeeeee" stroke="none" font-family="Arial" font-size="24px" font-style="normal" font-weight="normal" text-decoration="none" x="200" y="60">UNREGISTERED</text><text fill="#eeeeee" stroke="none" font-family="Arial" font-size="24px" font-style="normal" font-weight="normal" text-decoration="none" x="200" y="90">UNREGISTERED</text><text fill="#eeeeee" stroke="none" font-family="Arial" font-size="24px" font-style="normal" font-weight="normal" text-decoration="none" x="200" y="120">UNREGISTERED</text><text fill="#eeeeee" stroke="none" font-family="Arial" font-size="24px" font-style="normal" font-weight="normal" text-decoration="none" x="200" y="150">UNREGISTERED</text><text fill="#eeeeee" stroke="none" font-family="Arial" font-size="24px" font-style="normal" font-weight="normal" text-decoration="none" x="200" y="180">UNREGISTERED</text><text fill="#eeeeee" stroke="none" font-family="Arial" font-size="24px" font-style="normal" font-weight="normal" text-decoration="none" x="200" y="210">UNREGISTERED</text><text fill="#eeeeee" stroke="none" font-family="Arial" font-size="24px" font-style="normal" font-weight="normal" text-decoration="none" x="200" y="240">UNREGISTERED</text><text fill="#eeeeee" stroke="none" font-family="Arial" font-size="24px" font-style="normal" font-weight="normal" text-decoration="none" x="200" y="270">UNREGISTERED</text><text fill="#eeeeee" stroke="none" font-family="Arial" font-size="24px" font-style="normal" font-weight="normal" text-decoration="none" x="200" y="300">UNREGISTERED</text><text fill="#eeeeee" stroke="none" font-family="Arial" font-size="24px" font-style="normal" font-weight="normal" text-decoration="none" x="200" y="330">UNREGISTERED</text><text fill="#eeeeee" stroke="none" font-family="Arial" font-size="24px" font-style="normal" font-weight="normal" text-decoration="none" x="200" y="360">UNREGISTERED</text><text fill="#eeeeee" stroke="none" font-family="Arial" font-size="24px" font-style="normal" font-weight="normal" text-decoration="none" x="400" y="0">UNREGISTERED</text><text fill="#eeeeee" stroke="none" font-family="Arial" font-size="24px" font-style="normal" font-weight="normal" text-decoration="none" x="400" y="30">UNREGISTERED</text><text fill="#eeeeee" stroke="none" font-family="Arial" font-size="24px" font-style="normal" font-weight="normal" text-decoration="none" x="400" y="60">UNREGISTERED</text><text fill="#eeeeee" stroke="none" font-family="Arial" font-size="24px" font-style="normal" font-weight="normal" text-decoration="none" x="400" y="90">UNREGISTERED</text><text fill="#eeeeee" stroke="none" font-family="Arial" font-size="24px" font-style="normal" font-weight="normal" text-decoration="none" x="400" y="120">UNREGISTERED</text><text fill="#eeeeee" stroke="none" font-family="Arial" font-size="24px" font-style="normal" font-weight="normal" text-decoration="none" x="400" y="150">UNREGISTERED</text><text fill="#eeeeee" stroke="none" font-family="Arial" font-size="24px" font-style="normal" font-weight="normal" text-decoration="none" x="400" y="180">UNREGISTERED</text><text fill="#eeeeee" stroke="none" font-family="Arial" font-size="24px" font-style="normal" font-weight="normal" text-decoration="none" x="400" y="210">UNREGISTERED</text><text fill="#eeeeee" stroke="none" font-family="Arial" font-size="24px" font-style="normal" font-weight="normal" text-decoration="none" x="400" y="240">UNREGISTERED</text><text fill="#eeeeee" stroke="none" font-family="Arial" font-size="24px" font-style="normal" font-weight="normal" text-decoration="none" x="400" y="270">UNREGISTERED</text><text fill="#eeeeee" stroke="none" font-family="Arial" font-size="24px" font-style="normal" font-weight="normal" text-decoration="none" x="400" y="300">UNREGISTERED</text><text fill="#eeeeee" stroke="none" font-family="Arial" font-size="24px" font-style="normal" font-weight="normal" text-decoration="none" x="400" y="330">UNREGISTERED</text><text fill="#eeeeee" stroke="none" font-family="Arial" font-size="24px" font-style="normal" font-weight="normal" text-decoration="none" x="400" y="360">UNREGISTERED</text><text fill="#eeeeee" stroke="none" font-family="Arial" font-size="24px" font-style="normal" font-weight="normal" text-decoration="none" x="600" y="0">UNREGISTERED</text><text fill="#eeeeee" stroke="none" font-family="Arial" font-size="24px" font-style="normal" font-weight="normal" text-decoration="none" x="600" y="30">UNREGISTERED</text><text fill="#eeeeee" stroke="none" font-family="Arial" font-size="24px" font-style="normal" font-weight="normal" text-decoration="none" x="600" y="60">UNREGISTERED</text><text fill="#eeeeee" stroke="none" font-family="Arial" font-size="24px" font-style="normal" font-weight="normal" text-decoration="none" x="600" y="90">UNREGISTERED</text><text fill="#eeeeee" stroke="none" font-family="Arial" font-size="24px" font-style="normal" font-weight="normal" text-decoration="none" x="600" y="120">UNREGISTERED</text><text fill="#eeeeee" stroke="none" font-family="Arial" font-size="24px" font-style="normal" font-weight="normal" text-decoration="none" x="600" y="150">UNREGISTERED</text><text fill="#eeeeee" stroke="none" font-family="Arial" font-size="24px" font-style="normal" font-weight="normal" text-decoration="none" x="600" y="180">UNREGISTERED</text><text fill="#eeeeee" stroke="none" font-family="Arial" font-size="24px" font-style="normal" font-weight="normal" text-decoration="none" x="600" y="210">UNREGISTERED</text><text fill="#eeeeee" stroke="none" font-family="Arial" font-size="24px" font-style="normal" font-weight="normal" text-decoration="none" x="600" y="240">UNREGISTERED</text><text fill="#eeeeee" stroke="none" font-family="Arial" font-size="24px" font-style="normal" font-weight="normal" text-decoration="none" x="600" y="270">UNREGISTERED</text><text fill="#eeeeee" stroke="none" font-family="Arial" font-size="24px" font-style="normal" font-weight="normal" text-decoration="none" x="600" y="300">UNREGISTERED</text><text fill="#eeeeee" stroke="none" font-family="Arial" font-size="24px" font-style="normal" font-weight="normal" text-decoration="none" x="600" y="330">UNREGISTERED</text><text fill="#eeeeee" stroke="none" font-family="Arial" font-size="24px" font-style="normal" font-weight="normal" text-decoration="none" x="600" y="360">UNREGISTERED</text><text fill="#eeeeee" stroke="none" font-family="Arial" font-size="24px" font-style="normal" font-weight="normal" text-decoration="none" x="800" y="0">UNREGISTERED</text><text fill="#eeeeee" stroke="none" font-family="Arial" font-size="24px" font-style="normal" font-weight="normal" text-decoration="none" x="800" y="30">UNREGISTERED</text><text fill="#eeeeee" stroke="none" font-family="Arial" font-size="24px" font-style="normal" font-weight="normal" text-decoration="none" x="800" y="60">UNREGISTERED</text><text fill="#eeeeee" stroke="none" font-family="Arial" font-size="24px" font-style="normal" font-weight="normal" text-decoration="none" x="800" y="90">UNREGISTERED</text><text fill="#eeeeee" stroke="none" font-family="Arial" font-size="24px" font-style="normal" font-weight="normal" text-decoration="none" x="800" y="120">UNREGISTERED</text><text fill="#eeeeee" stroke="none" font-family="Arial" font-size="24px" font-style="normal" font-weight="normal" text-decoration="none" x="800" y="150">UNREGISTERED</text><text fill="#eeeeee" stroke="none" font-family="Arial" font-size="24px" font-style="normal" font-weight="normal" text-decoration="none" x="800" y="180">UNREGISTERED</text><text fill="#eeeeee" stroke="none" font-family="Arial" font-size="24px" font-style="normal" font-weight="normal" text-decoration="none" x="800" y="210">UNREGISTERED</text><text fill="#eeeeee" stroke="none" font-family="Arial" font-size="24px" font-style="normal" font-weight="normal" text-decoration="none" x="800" y="240">UNREGISTERED</text><text fill="#eeeeee" stroke="none" font-family="Arial" font-size="24px" font-style="normal" font-weight="normal" text-decoration="none" x="800" y="270">UNREGISTERED</text><text fill="#eeeeee" stroke="none" font-family="Arial" font-size="24px" font-style="normal" font-weight="normal" text-decoration="none" x="800" y="300">UNREGISTERED</text><text fill="#eeeeee" stroke="none" font-family="Arial" font-size="24px" font-style="normal" font-weight="normal" text-decoration="none" x="800" y="330">UNREGISTERED</text><text fill="#eeeeee" stroke="none" font-family="Arial" font-size="24px" font-style="normal" font-weight="normal" text-decoration="none" x="800" y="360">UNREGISTERED</text><text fill="#eeeeee" stroke="none" font-family="Arial" font-size="24px" font-style="normal" font-weight="normal" text-decoration="none" x="1000" y="0">UNREGISTERED</text><text fill="#eeeeee" stroke="none" font-family="Arial" font-size="24px" font-style="normal" font-weight="normal" text-decoration="none" x="1000" y="30">UNREGISTERED</text><text fill="#eeeeee" stroke="none" font-family="Arial" font-size="24px" font-style="normal" font-weight="normal" text-decoration="none" x="1000" y="60">UNREGISTERED</text><text fill="#eeeeee" stroke="none" font-family="Arial" font-size="24px" font-style="normal" font-weight="normal" text-decoration="none" x="1000" y="90">UNREGISTERED</text><text fill="#eeeeee" stroke="none" font-family="Arial" font-size="24px" font-style="normal" font-weight="normal" text-decoration="none" x="1000" y="120">UNREGISTERED</text><text fill="#eeeeee" stroke="none" font-family="Arial" font-size="24px" font-style="normal" font-weight="normal" text-decoration="none" x="1000" y="150">UNREGISTERED</text><text fill="#eeeeee" stroke="none" font-family="Arial" font-size="24px" font-style="normal" font-weight="normal" text-decoration="none" x="1000" y="180">UNREGISTERED</text><text fill="#eeeeee" stroke="none" font-family="Arial" font-size="24px" font-style="normal" font-weight="normal" text-decoration="none" x="1000" y="210">UNREGISTERED</text><text fill="#eeeeee" stroke="none" font-family="Arial" font-size="24px" font-style="normal" font-weight="normal" text-decoration="none" x="1000" y="240">UNREGISTERED</text><text fill="#eeeeee" stroke="none" font-family="Arial" font-size="24px" font-style="normal" font-weight="normal" text-decoration="none" x="1000" y="270">UNREGISTERED</text><text fill="#eeeeee" stroke="none" font-family="Arial" font-size="24px" font-style="normal" font-weight="normal" text-decoration="none" x="1000" y="300">UNREGISTERED</text><text fill="#eeeeee" stroke="none" font-family="Arial" font-size="24px" font-style="normal" font-weight="normal" text-decoration="none" x="1000" y="330">UNREGISTERED</text><text fill="#eeeeee" stroke="none" font-family="Arial" font-size="24px" font-style="normal" font-weight="normal" text-decoration="none" x="1000" y="360">UNREGISTERED</text><g transform="translate(2,10) scale(1,1)"><path fill="none" stroke="#000000" d="M 8 0 L 1120 0 L 1120 368 L 8 368 L 8 0" stroke-miterlimit="10"/></g><g transform="translate(2,10) scale(1,1)"><path fill="#ffffff" stroke="none" d="M 8 0 L 8 22 L 137.43896484375 22 L 148.43896484375 11 L 148.43896484375 0 L 8 0"/></g><g transform="translate(2,10) scale(1,1)"><path fill="none" stroke="#000000" d="M 8 0 L 8 22 L 137.43896484375 22 L 148.43896484375 11 L 148.43896484375 0 L 8 0 L 8 0" stroke-miterlimit="10"/></g><g transform="translate(2,10) scale(1,1)"><g><path fill="none" stroke="none"/><text fill="#000000" stroke="none" font-family="Arial" font-size="13px" font-style="normal" font-weight="normal" text-decoration="none" x="32.72998046875" y="16">GerenciarOrdens</text></g></g><g transform="translate(2,10) scale(1,1)"><g><path fill="none" stroke="none"/><text fill="#000000" stroke="none" font-family="Arial" font-size="13px" font-style="normal" font-weight="bold" text-decoration="none" x="12.279541015625" y="16">sd</text></g></g><g transform="translate(2,10) scale(1,1)"><path fill="#ffffff" stroke="none" d="M 90.0804305752841 47.3 C 90.0804305752841 43.82060576 92.95883229746592 41 96.509521484375 41 C 100.06021067128408 41 102.9386123934659 43.82060576 102.9386123934659 47.3 C 102.9386123934659 50.779394239999995 100.06021067128408 53.6 96.509521484375 53.6 C 92.95883229746592 53.6 90.0804305752841 50.779394239999995 90.0804305752841 47.3 Z"/></g><g transform="translate(2,10) scale(1,1)"><path fill="none" stroke="#000000" d="M 90.0804305752841 47.3 C 90.0804305752841 43.82060576 92.95883229746592 41 96.509521484375 41 C 100.06021067128408 41 102.9386123934659 43.82060576 102.9386123934659 47.3 C 102.9386123934659 50.779394239999995 100.06021067128408 53.6 96.509521484375 53.6 C 92.95883229746592 53.6 90.0804305752841 50.779394239999995 90.0804305752841 47.3 Z" stroke-miterlimit="10"/></g><g transform="translate(2,10) scale(1,1)"><path fill="none" stroke="#000000" d="M 96.509521484375 53.6 L 96.509521484375 66.4" stroke-miterlimit="10"/></g><g transform="translate(2,10) scale(1,1)"><path fill="none" stroke="#000000" d="M 89.70224875710227 58.4 L 103.31679421164773 58.4" stroke-miterlimit="10"/></g><g transform="translate(2,10) scale(1,1)"><path fill="none" stroke="#000000" d="M 96.509521484375 66.4 L 87.05497602982955 79" stroke-miterlimit="10"/></g><g transform="translate(2,10) scale(1,1)"><path fill="none" stroke="#000000" d="M 96.509521484375 66.4 L 105.96406693892045 79" stroke-miterlimit="10"/></g><g transform="translate(2,10) scale(1,1)"><g><path fill="none" stroke="none"/><text fill="#000000" stroke="none" font-family="Arial" font-size="13px" font-style="normal" font-weight="bold" text-decoration="none" x="70.8681640625" y="98">: Cliente</text></g></g><g transform="translate(2,10) scale(1,1)"><path fill="none" stroke="#000000" d="M 97.5 105 L 97.5 174" stroke-miterlimit="10" stroke-dasharray="3"/></g><g transform="translate(2,10) scale(1,1)"><rect fill="#C0C0C0" stroke="none" x="399" y="47" width="144" height="39" opacity="0.2"/></g><g transform="translate(2,10) scale(1,1)"><rect fill="#ffffff" stroke="none" x="392" y="40" width="144" height="39"/></g><g transform="translate(2,10) scale(1,1)"><path fill="none" stroke="#000000" d="M 392 40 L 536 40 L 536 79 L 392 79 L 392 40 Z Z" stroke-miterlimit="10"/></g><g transform="translate(2,10) scale(1,1)"><g><path fill="none" stroke="none"/><text fill="#000000" stroke="none" font-family="Arial" font-size="13px" font-style="normal" font-weight="bold" text-decoration="none" x="443.049560546875" y="58">Ordem</text></g></g><g transform="translate(2,10) scale(1,1)"><path fill="none" stroke="#000000" d="M 465.5 80 L 465.5 238" stroke-miterlimit="10" stroke-dasharray="3"/></g><g transform="translate(2,10) scale(1,1)"><rect fill="#C0C0C0" stroke="none" x="695" y="47" width="78.236328125" height="39" opacity="0.2"/></g><g transform="translate(2,10) scale(1,1)"><rect fill="#ffffff" stroke="none" x="688" y="40" width="78.236328125" height="39"/></g><g transform="translate(2,10) scale(1,1)"><path fill="none" stroke="#000000" d="M 688 40 L 766.236328125 40 L 766.236328125 79 L 688 79 L 688 40 Z Z" stroke-miterlimit="10"/></g><g transform="translate(2,10) scale(1,1)"><g><path fill="none" stroke="none"/><text fill="#000000" stroke="none" font-family="Arial" font-size="13px" font-style="normal" font-weight="bold" text-decoration="none" x="697.5" y="58">Corretora</text></g></g><g transform="translate(2,10) scale(1,1)"><path fill="none" stroke="#000000" d="M 728.5 80 L 728.5 289" stroke-miterlimit="10" stroke-dasharray="3"/></g><g transform="translate(2,10) scale(1,1)"><rect fill="#C0C0C0" stroke="none" x="927" y="47" width="71.736328125" height="39" opacity="0.2"/></g><g transform="translate(2,10) scale(1,1)"><rect fill="#ffffff" stroke="none" x="920" y="40" width="71.736328125" height="39"/></g><g transform="translate(2,10) scale(1,1)"><path fill="none" stroke="#000000" d="M 920 40 L 991.736328125 40 L 991.736328125 79 L 920 79 L 920 40 Z Z" stroke-miterlimit="10"/></g><g transform="translate(2,10) scale(1,1)"><g><path fill="none" stroke="none"/><text fill="#000000" stroke="none" font-family="Arial" font-size="13px" font-style="normal" font-weight="bold" text-decoration="none" x="947.55908203125" y="58">B3</text></g></g><g transform="translate(2,10) scale(1,1)"><path fill="none" stroke="#000000" d="M 956.5 80 L 956.5 358" stroke-miterlimit="10" stroke-dasharray="3"/></g><g transform="translate(2,10) scale(1,1)"><path fill="none" stroke="#000000" d="M 97 128 L 458 128" stroke-miterlimit="10"/></g><g transform="translate(2,10) scale(1,1)"><path fill="#000000" stroke="none" d="M 447.83732514237585 132.209517756016 L 458 128 L 447.83732514237585 123.79048224398402"/></g><g transform="translate(2,10) scale(1,1)"><path fill="none" stroke="#000000" d="M 447.83732514237585 132.209517756016 L 458 128 L 447.83732514237585 123.79048224398402 L 447.83732514237585 132.209517756016" stroke-miterlimit="10"/></g><g transform="translate(2,10) scale(1,1)"><g><path fill="none" stroke="none"/><text fill="#000000" stroke="none" font-family="Arial" font-size="13px" font-style="normal" font-weight="normal" text-decoration="none" x="228.16455078125" y="123">1 : enviaOrdem()</text></g></g><g transform="translate(2,10) scale(1,1)"><rect fill="#ffffff" stroke="none" x="458" y="128" width="13" height="48"/></g><g transform="translate(2,10) scale(1,1)"><path fill="none" stroke="#000000" d="M 458 128 L 471 128 L 471 176 L 458 176 L 458 128 Z Z" stroke-miterlimit="10"/></g><g transform="translate(2,10) scale(1,1)"><path fill="none" stroke="#000000" d="M 465 176 L 721 176" stroke-miterlimit="10"/></g><g transform="translate(2,10) scale(1,1)"><path fill="#000000" stroke="none" d="M 710.8373251423759 180.209517756016 L 721 176 L 710.8373251423758 171.790482243984"/></g><g transform="translate(2,10) scale(1,1)"><path fill="none" stroke="#000000" d="M 710.8373251423759 180.209517756016 L 721 176 L 710.8373251423758 171.790482243984 L 710.8373251423759 180.209517756016" stroke-miterlimit="10"/></g><g transform="translate(2,10) scale(1,1)"><g><path fill="none" stroke="none"/><text fill="#000000" stroke="none" font-family="Arial" font-size="13px" font-style="normal" font-weight="normal" text-decoration="none" x="531.5" y="171">2 : recebeOperacao()</text></g></g><g transform="translate(2,10) scale(1,1)"><rect fill="#ffffff" stroke="none" x="721" y="176" width="13" height="48"/></g><g transform="translate(2,10) scale(1,1)"><path fill="none" stroke="#000000" d="M 721 176 L 734 176 L 734 224 L 721 224 L 721 176 Z Z" stroke-miterlimit="10"/></g><g transform="translate(2,10) scale(1,1)"><path fill="none" stroke="#000000" d="M 734 223 L 949 223" stroke-miterlimit="10"/></g><g transform="translate(2,10) scale(1,1)"><path fill="#000000" stroke="none" d="M 938.8373251423759 227.209517756016 L 949 223 L 938.8373251423758 218.790482243984"/></g><g transform="translate(2,10) scale(1,1)"><path fill="none" stroke="#000000" d="M 938.8373251423759 227.209517756016 L 949 223 L 938.8373251423758 218.790482243984 L 938.8373251423759 227.209517756016" stroke-miterlimit="10"/></g><g transform="translate(2,10) scale(1,1)"><g><path fill="none" stroke="none"/><text fill="#000000" stroke="none" font-family="Arial" font-size="13px" font-style="normal" font-weight="normal" text-decoration="none" x="782.5" y="218">3 : modificaOrdem()</text></g></g><g transform="translate(2,10) scale(1,1)"><rect fill="#ffffff" stroke="none" x="949" y="223" width="13" height="52"/></g><g transform="translate(2,10) scale(1,1)"><path fill="none" stroke="#000000" d="M 949 223 L 962 223 L 962 275 L 949 275 L 949 223 Z Z" stroke-miterlimit="10"/></g><g transform="translate(2,10) scale(1,1)"><path fill="none" stroke="#000000" d="M 956 280 L 986 280 L 986 300 L 962 300" stroke-miterlimit="10"/></g><g transform="translate(2,10) scale(1,1)"><path fill="#000000" stroke="none" d="M 972.1626748576241 295.790482243984 L 962 300 L 972.1626748576241 304.209517756016"/></g><g transform="translate(2,10) scale(1,1)"><path fill="none" stroke="#000000" d="M 972.1626748576241 295.790482243984 L 962 300 L 972.1626748576241 304.209517756016 L 972.1626748576241 295.790482243984" stroke-miterlimit="10"/></g><g transform="translate(2,10) scale(1,1)"><g><path fill="none" stroke="none"/><text fill="#000000" stroke="none" font-family="Arial" font-size="13px" font-style="normal" font-weight="normal" text-decoration="none" x="991.5" y="291">4 : registraOrdem()</text></g></g><g transform="translate(2,10) scale(1,1)"><rect fill="#ffffff" stroke="none" x="949" y="300" width="13" height="28"/></g><g transform="translate(2,10) scale(1,1)"><path fill="none" stroke="#000000" d="M 949 300 L 962 300 L 962 328 L 949 328 L 949 300 Z Z" stroke-miterlimit="10"/></g></g></svg>