<svg version="1.1" xmlns="http://www.w3.org/2000/svg" xmlns:xlink="http://www.w3.org/1999/xlink" width="749" height="315"><defs/><g><text fill="#eeeeee" stroke="none" font-family="Arial" font-size="24px" font-style="normal" font-weight="normal" text-decoration="none" x="0" y="0">UNREGISTERED</text><text fill="#eeeeee" stroke="none" font-family="Arial" font-size="24px" font-style="normal" font-weight="normal" text-decoration="none" x="0" y="30">UNREGISTERED</text><text fill="#eeeeee" stroke="none" font-family="Arial" font-size="24px" font-style="normal" font-weight="normal" text-decoration="none" x="0" y="60">UNREGISTERED</text><text fill="#eeeeee" stroke="none" font-family="Arial" font-size="24px" font-style="normal" font-weight="normal" text-decoration="none" x="0" y="90">UNREGISTERED</text><text fill="#eeeeee" stroke="none" font-family="Arial" font-size="24px" font-style="normal" font-weight="normal" text-decoration="none" x="0" y="120">UNREGISTERED</text><text fill="#eeeeee" stroke="none" font-family="Arial" font-size="24px" font-style="normal" font-weight="normal" text-decoration="none" x="0" y="150">UNREGISTERED</text><text fill="#eeeeee" stroke="none" font-family="Arial" font-size="24px" font-style="normal" font-weight="normal" text-decoration="none" x="0" y="180">UNREGISTERED</text><text fill="#eeeeee" stroke="none" font-family="Arial" font-size="24px" font-style="normal" font-weight="normal" text-decoration="none" x="0" y="210">UNREGISTERED</text><text fill="#eeeeee" stroke="none" font-family="Arial" font-size="24px" font-style="normal" font-weight="normal" text-decoration="none" x="0" y="240">UNREGISTERED</text><text fill="#eeeeee" stroke="none" font-family="Arial" font-size="24px" font-style="normal" font-weight="normal" text-decoration="none" x="0" y="270">UNREGISTERED</text><text fill="#eeeeee" stroke="none" font-family="Arial" font-size="24px" font-style="normal" font-weight="normal" text-decoration="none" x="0" y="300">UNREGISTERED</text><text fill="#eeeeee" stroke="none" font-family="Arial" font-size="24px" font-style="normal" font-weight="normal" text-decoration="none" x="200" y="0">UNREGISTERED</text><text fill="#eeeeee" stroke="none" font-family="Arial" font-size="24px" font-style="normal" font-weight="normal" text-decoration="none" x="200" y="30">UNREGISTERED</text><text fill="#eeeeee" stroke="none" font-family="Arial" font-size="24px" font-style="normal" font-weight="normal" text-decoration="none" x="200" y="60">UNREGISTERED</text><text fill="#eeeeee" stroke="none" font-family="Arial" font-size="24px" font-style="normal" font-weight="normal" text-decoration="none" x="200" y="90">UNREGISTERED</text><text fill="#eeeeee" stroke="none" font-family="Arial" font-size="24px" font-style="normal" font-weight="normal" text-decoration="none" x="200" y="120">UNREGISTERED</text><text fill="#eeeeee" stroke="none" font-family="Arial" font-size="24px" font-style="normal" font-weight="normal" text-decoration="none" x="200" y="150">UNREGISTERED</text><text fill="#eeeeee" stroke="none" font-family="Arial" font-size="24px" font-style="normal" font-weight="normal" text-decoration="none" x="200" y="180">UNREGISTERED</text><text fill="#eeeeee" stroke="none" font-family="Arial" font-size="24px" font-style="normal" font-weight="normal" text-decoration="none" x="200" y="210">UNREGISTERED</text><text fill="#eeeeee" stroke="none" font-family="Arial" font-size="24px" font-style="normal" font-weight="normal" text-decoration="none" x="200" y="240">UNREGISTERED</text><text fill="#eeeeee" stroke="none" font-family="Arial" font-size="24px" font-style="normal" font-weight="normal" text-decoration="none" x="200" y="270">UNREGISTERED</text><text fill="#eeeeee" stroke="none" font-family="Arial" font-size="24px" font-style="normal" font-weight="normal" text-decoration="none" x="200" y="300">UNREGISTERED</text><text fill="#eeeeee" stroke="none" font-family="Arial" font-size="24px" font-style="normal" font-weight="normal" text-decoration="none" x="400" y="0">UNREGISTERED</text><text fill="#eeeeee" stroke="none" font-family="Arial" font-size="24px" font-style="normal" font-weight="normal" text-decoration="none" x="400" y="30">UNREGISTERED</text><text fill="#eeeeee" stroke="none" font-family="Arial" font-size="24px" font-style="normal" font-weight="normal" text-decoration="none" x="400" y="60">UNREGISTERED</text><text fill="#eeeeee" stroke="none" font-family="Arial" font-size="24px" font-style="normal" font-weight="normal" text-decoration="none" x="400" y="90">UNREGISTERED</text><text fill="#eeeeee" stroke="none" font-family="Arial" font-size="24px" font-style="normal" font-weight="normal" text-decoration="none" x="400" y="120">UNREGISTERED</text><text fill="#eeeeee" stroke="none" font-family="Arial" font-size="24px" font-style="normal" font-weight="normal" text-decoration="none" x="400" y="150">UNREGISTERED</text><text fill="#eeeeee" stroke="none" font-family="Arial" font-size="24px" font-style="normal" font-weight="normal" text-decoration="none" x="400" y="180">UNREGISTERED</text><text fill="#eeeeee" stroke="none" font-family="Arial" font-size="24px" font-style="normal" font-weight="normal" text-decoration="none" x="400" y="210">UNREGISTERED</text><text fill="#eeeeee" stroke="none" font-family="Arial" font-size="24px" font-style="normal" font-weight="normal" text-decoration="none" x="400" y="240">UNREGISTERED</text><text fill="#eeeeee" stroke="none" font-family="Arial" font-size="24px" font-style="normal" font-weight="normal" text-decoration="none" x="400" y="270">UNREGISTERED</text><text fill="#eeeeee" stroke="none" font-family="Arial" font-size="24px" font-style="normal" font-weight="normal" text-decoration="none" x="400" y="300">UNREGISTERED</text><text fill="#eeeeee" stroke="none" font-family="Arial" font-size="24px" font-style="normal" font-weight="normal" text-decoration="none" x="600" y="0">UNREGISTERED</text><text fill="#eeeeee" stroke="none" font-family="Arial" font-size="24px" font-style="normal" font-weight="normal" text-decoration="none" x="600" y="30">UNREGISTERED</text><text fill="#eeeeee" stroke="none" font-family="Arial" font-size="24px" font-style="normal" font-weight="normal" text-decoration="none" x="600" y="60">UNREGISTERED</text><text fill="#eeeeee" stroke="none" font-family="Arial" font-size="24px" font-style="normal" font-weight="normal" text-decoration="none" x="600" y="90">UNREGISTERED</text><text fill="#eeeeee" stroke="none" font-family="Arial" font-size="24px" font-style="normal" font-weight="normal" text-decoration="none" x="600" y="120">UNREGISTERED</text><text fill="#eeeeee" stroke="none" font-family="Arial" font-size="24px" font-style="normal" font-weight="normal" text-decoration="none" x="600" y="150">UNREGISTERED</text><text fill="#eeeeee" stroke="none" font-family="Arial" font-size="24px" font-style="normal" font-weight="normal" text-decoration="none" x="600" y="180">UNREGISTERED</text><text fill="#eeeeee" stroke="none" font-family="Arial" font-size="24px" font-style="normal" font-weight="normal" text-decoration="none" x="600" y="210">UNREGISTERED</text><text fill="#eeeeee" stroke="none" font-family="Arial" font-size="24px" font-style="normal" font-weight="normal" text-decoration="none" x="600" y="240">UNREGISTERED</text><text fill="#eeeeee" stroke="none" font-family="Arial" font-size="24px" font-style="normal" font-weight="normal" text-decoration="none" x="600" y="270">UNREGISTERED</text><text fill="#eeeeee" stroke="none" font-family="Arial" font-size="24px" font-style="normal" font-weight="normal" text-decoration="none" x="600" y="300">UNREGISTERED</text><g transform="translate(-150,-6) scale(1,1)"><path fill="#C0C0C0" stroke="none" d="M 167 296.5 C 167 291.2532944 171.2532944 287 176.5 287 C 181.7467056 287 186 291.2532944 186 296.5 C 186 301.7467056 181.7467056 306 176.5 306 C 171.2532944 306 167 301.7467056 167 296.5 Z" opacity="0.2"/></g><g transform="translate(-150,-6) scale(1,1)"><path fill="#000000" stroke="none" d="M 160 289.5 C 160 284.2532944 164.2532944 280 169.5 280 C 174.7467056 280 179 284.2532944 179 289.5 C 179 294.7467056 174.7467056 299 169.5 299 C 164.2532944 299 160 294.7467056 160 289.5 Z"/></g><g transform="translate(-150,-6) scale(1,1)"><path fill="#C0C0C0" stroke="none" d="M 433 271 L 602.603515625 271 Q 612.603515625 271 612.603515625 281 L 612.603515625 308 Q 612.603515625 318 602.603515625 318 L 433 318 Q 423 318 423 308 L 423 281 Q 423 271 433 271 Z" opacity="0.2"/></g><g transform="translate(-150,-6) scale(1,1)"><path fill="#ffffff" stroke="none" d="M 426 264 L 595.603515625 264 Q 605.603515625 264 605.603515625 274 L 605.603515625 301 Q 605.603515625 311 595.603515625 311 L 426 311 Q 416 311 416 301 L 416 274 Q 416 264 426 264 Z"/></g><g transform="translate(-150,-6) scale(1,1)"><path fill="none" stroke="#000000" d="M 426 264 L 595.603515625 264 Q 605.603515625 264 605.603515625 274 L 605.603515625 301 Q 605.603515625 311 595.603515625 311 L 426 311 Q 416 311 416 301 L 416 274 Q 416 264 426 264 Z" stroke-miterlimit="10"/></g><g transform="translate(-150,-6) scale(1,1)"><path fill="none" stroke="#000000" d="M 416 289 L 605.603515625 289" stroke-miterlimit="10"/></g><g transform="translate(-150,-6) scale(1,1)"><g><path fill="none" stroke="none"/><text fill="#000000" stroke="none" font-family="Arial" font-size="13px" font-style="normal" font-weight="bold" text-decoration="none" x="420.5" y="282">Envia Dados para [Corretora]</text></g></g><g transform="translate(-150,-6) scale(1,1)"><g><path fill="none" stroke="none"/><text fill="#000000" stroke="none" font-family="Arial" font-size="13px" font-style="normal" font-weight="normal" text-decoration="none" x="421" y="305">do/enviaDados</text></g></g><g transform="translate(-150,-6) scale(1,1)"><path fill="none" stroke="#000000" d="M 180 289 L 415 288" stroke-miterlimit="10"/></g><g transform="translate(-150,-6) scale(1,1)"><path fill="none" stroke="#000000" d="M 404.8553298320053 292.2527246774977 L 415 288 L 404.8195044733321 283.8337653892881" stroke-miterlimit="10"/></g><g transform="translate(-150,-6) scale(1,1)"><g><path fill="none" stroke="none"/><text fill="#000000" stroke="none" font-family="Arial" font-size="13px" font-style="normal" font-weight="normal" text-decoration="none" x="198.5" y="307">[Envia Dados da Bolsa de Valores]</text></g></g><g transform="translate(-150,-6) scale(1,1)"><path fill="#C0C0C0" stroke="none" d="M 457 23 L 588.3017578125 23 Q 598.3017578125 23 598.3017578125 33 L 598.3017578125 60 Q 598.3017578125 70 588.3017578125 70 L 457 70 Q 447 70 447 60 L 447 33 Q 447 23 457 23 Z" opacity="0.2"/></g><g transform="translate(-150,-6) scale(1,1)"><path fill="#ffffff" stroke="none" d="M 450 16 L 581.3017578125 16 Q 591.3017578125 16 591.3017578125 26 L 591.3017578125 53 Q 591.3017578125 63 581.3017578125 63 L 450 63 Q 440 63 440 53 L 440 26 Q 440 16 450 16 Z"/></g><g transform="translate(-150,-6) scale(1,1)"><path fill="none" stroke="#000000" d="M 450 16 L 581.3017578125 16 Q 591.3017578125 16 591.3017578125 26 L 591.3017578125 53 Q 591.3017578125 63 581.3017578125 63 L 450 63 Q 440 63 440 53 L 440 26 Q 440 16 450 16 Z" stroke-miterlimit="10"/></g><g transform="translate(-150,-6) scale(1,1)"><path fill="none" stroke="#000000" d="M 440 41 L 591.3017578125 41" stroke-miterlimit="10"/></g><g transform="translate(-150,-6) scale(1,1)"><g><path fill="none" stroke="none"/><text fill="#000000" stroke="none" font-family="Arial" font-size="13px" font-style="normal" font-weight="bold" text-decoration="none" x="444.5" y="34">Modifica Ordem na API</text></g></g><g transform="translate(-150,-6) scale(1,1)"><g><path fill="none" stroke="none"/><text fill="#000000" stroke="none" font-family="Arial" font-size="13px" font-style="normal" font-weight="normal" text-decoration="none" x="445" y="57">do/modificaOrdem</text></g></g><g transform="translate(-150,-6) scale(1,1)"><path fill="#C0C0C0" stroke="none" d="M 871 291.5 C 871 284.59644 876.59644 279 883.5 279 C 890.40356 279 896 284.59644 896 291.5 C 896 298.40356 890.40356 304 883.5 304 C 876.59644 304 871 298.40356 871 291.5 Z" opacity="0.2"/></g><g transform="translate(-150,-6) scale(1,1)"><path fill="none" stroke="#000000" d="M 864 284.5 C 864 277.59644 869.59644 272 876.5 272 C 883.40356 272 889 277.59644 889 284.5 C 889 291.40356 883.40356 297 876.5 297 C 869.59644 297 864 291.40356 864 284.5 Z" stroke-miterlimit="10"/></g><g transform="translate(-150,-6) scale(1,1)"><path fill="#000000" stroke="none" d="M 869 284.5 C 869 280.357864 872.357864 277 876.5 277 C 880.642136 277 884 280.357864 884 284.5 C 884 288.642136 880.642136 292 876.5 292 C 872.357864 292 869 288.642136 869 284.5 Z"/></g><g transform="translate(-150,-6) scale(1,1)"><path fill="none" stroke="#000000" d="M 607 286 L 863 284" stroke-miterlimit="10"/></g><g transform="translate(-150,-6) scale(1,1)"><path fill="none" stroke="#000000" d="M 852.8705211222909 288.2887827720749 L 863 284 L 852.8047494145159 279.87000417685624" stroke-miterlimit="10"/></g><g transform="translate(-150,-6) scale(1,1)"><g><path fill="none" stroke="none"/><text fill="#000000" stroke="none" font-family="Arial" font-size="13px" font-style="normal" font-weight="normal" text-decoration="none" x="665.75" y="307">[Dados Enviados]</text></g></g><g transform="translate(-150,-6) scale(1,1)"><path fill="#C0C0C0" stroke="none" d="M 433 159 L 609.82080078125 159 Q 619.82080078125 159 619.82080078125 169 L 619.82080078125 196 Q 619.82080078125 206 609.82080078125 206 L 433 206 Q 423 206 423 196 L 423 169 Q 423 159 433 159 Z" opacity="0.2"/></g><g transform="translate(-150,-6) scale(1,1)"><path fill="#ffffff" stroke="none" d="M 426 152 L 602.82080078125 152 Q 612.82080078125 152 612.82080078125 162 L 612.82080078125 189 Q 612.82080078125 199 602.82080078125 199 L 426 199 Q 416 199 416 189 L 416 162 Q 416 152 426 152 Z"/></g><g transform="translate(-150,-6) scale(1,1)"><path fill="none" stroke="#000000" d="M 426 152 L 602.82080078125 152 Q 612.82080078125 152 612.82080078125 162 L 612.82080078125 189 Q 612.82080078125 199 602.82080078125 199 L 426 199 Q 416 199 416 189 L 416 162 Q 416 152 426 152 Z" stroke-miterlimit="10"/></g><g transform="translate(-150,-6) scale(1,1)"><path fill="none" stroke="#000000" d="M 416 177 L 612.82080078125 177" stroke-miterlimit="10"/></g><g transform="translate(-150,-6) scale(1,1)"><g><path fill="none" stroke="none"/><text fill="#000000" stroke="none" font-family="Arial" font-size="13px" font-style="normal" font-weight="bold" text-decoration="none" x="420.5" y="170">Registra Ordem da [Corretora]</text></g></g><g transform="translate(-150,-6) scale(1,1)"><g><path fill="none" stroke="none"/><text fill="#000000" stroke="none" font-family="Arial" font-size="13px" font-style="normal" font-weight="normal" text-decoration="none" x="421" y="193">do/registraOrdem</text></g></g><g transform="translate(-150,-6) scale(1,1)"><path fill="none" stroke="#000000" d="M 514 151 L 515 64" stroke-miterlimit="10"/></g><g transform="translate(-150,-6) scale(1,1)"><path fill="none" stroke="#000000" d="M 519.0924350683998 74.21038565436835 L 515 64 L 510.6739556536975 74.11362152316488" stroke-miterlimit="10"/></g><g transform="translate(-150,-6) scale(1,1)"><g><path fill="none" stroke="none"/><text fill="#000000" stroke="none" font-family="Arial" font-size="13px" font-style="normal" font-weight="normal" text-decoration="none" x="525.5" y="110">[Se Solicitado] / Modifica Ordem Existente</text></g></g><g transform="translate(-150,-6) scale(1,1)"><path fill="none" stroke="#000000" d="M 180 285 L 438 200" stroke-miterlimit="10"/></g><g transform="translate(-150,-6) scale(1,1)"><path fill="none" stroke="#000000" d="M 429.6648865964912 207.17815328274958 L 438 200 L 427.03046392779135 199.18190565304877" stroke-miterlimit="10"/></g><g transform="translate(-150,-6) scale(1,1)"><g><path fill="none" stroke="none"/><text fill="#000000" stroke="none" font-family="Arial" font-size="13px" font-style="normal" font-weight="normal" text-decoration="none" x="191.5" y="218">[Recebe Ordem da Origem]</text></g></g><g transform="translate(-150,-6) scale(1,1)"><path fill="none" stroke="#000000" d="M 597 200 L 863 280" stroke-miterlimit="10"/></g><g transform="translate(-150,-6) scale(1,1)"><path fill="none" stroke="#000000" d="M 852.0555627359529 281.10421599940327 L 863 280 L 854.4803155732488 273.0419128153943" stroke-miterlimit="10"/></g><g transform="translate(-150,-6) scale(1,1)"><g><path fill="none" stroke="none"/><text fill="#000000" stroke="none" font-family="Arial" font-size="13px" font-style="normal" font-weight="normal" text-decoration="none" x="694.5" y="219">[Conclui Registro da Ordem]</text></g></g></g></svg>