<svg version="1.1" xmlns="http://www.w3.org/2000/svg" xmlns:xlink="http://www.w3.org/1999/xlink" width="625.708984375" height="371"><defs/><g><text fill="#eeeeee" stroke="none" font-family="Arial" font-size="24px" font-style="normal" font-weight="normal" text-decoration="none" x="0" y="0">UNREGISTERED</text><text fill="#eeeeee" stroke="none" font-family="Arial" font-size="24px" font-style="normal" font-weight="normal" text-decoration="none" x="0" y="30">UNREGISTERED</text><text fill="#eeeeee" stroke="none" font-family="Arial" font-size="24px" font-style="normal" font-weight="normal" text-decoration="none" x="0" y="60">UNREGISTERED</text><text fill="#eeeeee" stroke="none" font-family="Arial" font-size="24px" font-style="normal" font-weight="normal" text-decoration="none" x="0" y="90">UNREGISTERED</text><text fill="#eeeeee" stroke="none" font-family="Arial" font-size="24px" font-style="normal" font-weight="normal" text-decoration="none" x="0" y="120">UNREGISTERED</text><text fill="#eeeeee" stroke="none" font-family="Arial" font-size="24px" font-style="normal" font-weight="normal" text-decoration="none" x="0" y="150">UNREGISTERED</text><text fill="#eeeeee" stroke="none" font-family="Arial" font-size="24px" font-style="normal" font-weight="normal" text-decoration="none" x="0" y="180">UNREGISTERED</text><text fill="#eeeeee" stroke="none" font-family="Arial" font-size="24px" font-style="normal" font-weight="normal" text-decoration="none" x="0" y="210">UNREGISTERED</text><text fill="#eeeeee" stroke="none" font-family="Arial" font-size="24px" font-style="normal" font-weight="normal" text-decoration="none" x="0" y="240">UNREGISTERED</text><text fill="#eeeeee" stroke="none" font-family="Arial" font-size="24px" font-style="normal" font-weight="normal" text-decoration="none" x="0" y="270">UNREGISTERED</text><text fill="#eeeeee" stroke="none" font-family="Arial" font-size="24px" font-style="normal" font-weight="normal" text-decoration="none" x="0" y="300">UNREGISTERED</text><text fill="#eeeeee" stroke="none" font-family="Arial" font-size="24px" font-style="normal" font-weight="normal" text-decoration="none" x="0" y="330">UNREGISTERED</text><text fill="#eeeeee" stroke="none" font-family="Arial" font-size="24px" font-style="normal" font-weight="normal" text-decoration="none" x="0" y="360">UNREGISTERED</text><text fill="#eeeeee" stroke="none" font-family="Arial" font-size="24px" font-style="normal" font-weight="normal" text-decoration="none" x="200" y="0">UNREGISTERED</text><text fill="#eeeeee" stroke="none" font-family="Arial" font-size="24px" font-style="normal" font-weight="normal" text-decoration="none" x="200" y="30">UNREGISTERED</text><text fill="#eeeeee" stroke="none" font-family="Arial" font-size="24px" font-style="normal" font-weight="normal" text-decoration="none" x="200" y="60">UNREGISTERED</text><text fill="#eeeeee" stroke="none" font-family="Arial" font-size="24px" font-style="normal" font-weight="normal" text-decoration="none" x="200" y="90">UNREGISTERED</text><text fill="#eeeeee" stroke="none" font-family="Arial" font-size="24px" font-style="normal" font-weight="normal" text-decoration="none" x="200" y="120">UNREGISTERED</text><text fill="#eeeeee" stroke="none" font-family="Arial" font-size="24px" font-style="normal" font-weight="normal" text-decoration="none" x="200" y="150">UNREGISTERED</text><text fill="#eeeeee" stroke="none" font-family="Arial" font-size="24px" font-style="normal" font-weight="normal" text-decoration="none" x="200" y="180">UNREGISTERED</text><text fill="#eeeeee" stroke="none" font-family="Arial" font-size="24px" font-style="normal" font-weight="normal" text-decoration="none" x="200" y="210">UNREGISTERED</text><text fill="#eeeeee" stroke="none" font-family="Arial" font-size="24px" font-style="normal" font-weight="normal" text-decoration="none" x="200" y="240">UNREGISTERED</text><text fill="#eeeeee" stroke="none" font-family="Arial" font-size="24px" font-style="normal" font-weight="normal" text-decoration="none" x="200" y="270">UNREGISTERED</text><text fill="#eeeeee" stroke="none" font-family="Arial" font-size="24px" font-style="normal" font-weight="normal" text-decoration="none" x="200" y="300">UNREGISTERED</text><text fill="#eeeeee" stroke="none" font-family="Arial" font-size="24px" font-style="normal" font-weight="normal" text-decoration="none" x="200" y="330">UNREGISTERED</text><text fill="#eeeeee" stroke="none" font-family="Arial" font-size="24px" font-style="normal" font-weight="normal" text-decoration="none" x="200" y="360">UNREGISTERED</text><text fill="#eeeeee" stroke="none" font-family="Arial" font-size="24px" font-style="normal" font-weight="normal" text-decoration="none" x="400" y="0">UNREGISTERED</text><text fill="#eeeeee" stroke="none" font-family="Arial" font-size="24px" font-style="normal" font-weight="normal" text-decoration="none" x="400" y="30">UNREGISTERED</text><text fill="#eeeeee" stroke="none" font-family="Arial" font-size="24px" font-style="normal" font-weight="normal" text-decoration="none" x="400" y="60">UNREGISTERED</text><text fill="#eeeeee" stroke="none" font-family="Arial" font-size="24px" font-style="normal" font-weight="normal" text-decoration="none" x="400" y="90">UNREGISTERED</text><text fill="#eeeeee" stroke="none" font-family="Arial" font-size="24px" font-style="normal" font-weight="normal" text-decoration="none" x="400" y="120">UNREGISTERED</text><text fill="#eeeeee" stroke="none" font-family="Arial" font-size="24px" font-style="normal" font-weight="normal" text-decoration="none" x="400" y="150">UNREGISTERED</text><text fill="#eeeeee" stroke="none" font-family="Arial" font-size="24px" font-style="normal" font-weight="normal" text-decoration="none" x="400" y="180">UNREGISTERED</text><text fill="#eeeeee" stroke="none" font-family="Arial" font-size="24px" font-style="normal" font-weight="normal" text-decoration="none" x="400" y="210">UNREGISTERED</text><text fill="#eeeeee" stroke="none" font-family="Arial" font-size="24px" font-style="normal" font-weight="normal" text-decoration="none" x="400" y="240">UNREGISTERED</text><text fill="#eeeeee" stroke="none" font-family="Arial" font-size="24px" font-style="normal" font-weight="normal" text-decoration="none" x="400" y="270">UNREGISTERED</text><text fill="#eeeeee" stroke="none" font-family="Arial" font-size="24px" font-style="normal" font-weight="normal" text-decoration="none" x="400" y="300">UNREGISTERED</text><text fill="#eeeeee" stroke="none" font-family="Arial" font-size="24px" font-style="normal" font-weight="normal" text-decoration="none" x="400" y="330">UNREGISTERED</text><text fill="#eeeeee" stroke="none" font-family="Arial" font-size="24px" font-style="normal" font-weight="normal" text-decoration="none" x="400" y="360">UNREGISTERED</text><text fill="#eeeeee" stroke="none" font-family="Arial" font-size="24px" font-style="normal" font-weight="normal" text-decoration="none" x="600" y="0">UNREGISTERED</text><text fill="#eeeeee" stroke="none" font-family="Arial" font-size="24px" font-style="normal" font-weight="normal" text-decoration="none" x="600" y="30">UNREGISTERED</text><text fill="#eeeeee" stroke="none" font-family="Arial" font-size="24px" font-style="normal" font-weight="normal" text-decoration="none" x="600" y="60">UNREGISTERED</text><text fill="#eeeeee" stroke="none" font-family="Arial" font-size="24px" font-style="normal" font-weight="normal" text-decoration="none" x="600" y="90">UNREGISTERED</text><text fill="#eeeeee" stroke="none" font-family="Arial" font-size="24px" font-style="normal" font-weight="normal" text-decoration="none" x="600" y="120">UNREGISTERED</text><text fill="#eeeeee" stroke="none" font-family="Arial" font-size="24px" font-style="normal" font-weight="normal" text-decoration="none" x="600" y="150">UNREGISTERED</text><text fill="#eeeeee" stroke="none" font-family="Arial" font-size="24px" font-style="normal" font-weight="normal" text-decoration="none" x="600" y="180">UNREGISTERED</text><text fill="#eeeeee" stroke="none" font-family="Arial" font-size="24px" font-style="normal" font-weight="normal" text-decoration="none" x="600" y="210">UNREGISTERED</text><text fill="#eeeeee" stroke="none" font-family="Arial" font-size="24px" font-style="normal" font-weight="normal" text-decoration="none" x="600" y="240">UNREGISTERED</text><text fill="#eeeeee" stroke="none" font-family="Arial" font-size="24px" font-style="normal" font-weight="normal" text-decoration="none" x="600" y="270">UNREGISTERED</text><text fill="#eeeeee" stroke="none" font-family="Arial" font-size="24px" font-style="normal" font-weight="normal" text-decoration="none" x="600" y="300">UNREGISTERED</text><text fill="#eeeeee" stroke="none" font-family="Arial" font-size="24px" font-style="normal" font-weight="normal" text-decoration="none" x="600" y="330">UNREGISTERED</text><text fill="#eeeeee" stroke="none" font-family="Arial" font-size="24px" font-style="normal" font-weight="normal" text-decoration="none" x="600" y="360">UNREGISTERED</text><g transform="translate(-14,-94) scale(1,1)"><path fill="#C0C0C0" stroke="none" d="M 31 280.5 C 31 275.2532944 35.2532944 271 40.5 271 C 45.7467056 271 50 275.2532944 50 280.5 C 50 285.7467056 45.7467056 290 40.5 290 C 35.2532944 290 31 285.7467056 31 280.5 Z" opacity="0.2"/></g><g transform="translate(-14,-94) scale(1,1)"><path fill="#000000" stroke="none" d="M 24 273.5 C 24 268.2532944 28.2532944 264 33.5 264 C 38.7467056 264 43 268.2532944 43 273.5 C 43 278.7467056 38.7467056 283 33.5 283 C 28.2532944 283 24 278.7467056 24 273.5 Z"/></g><g transform="translate(-14,-94) scale(1,1)"><path fill="#C0C0C0" stroke="none" d="M 535 139.5 C 535 132.59644 540.59644 127 547.5 127 C 554.40356 127 560 132.59644 560 139.5 C 560 146.40356 554.40356 152 547.5 152 C 540.59644 152 535 146.40356 535 139.5 Z" opacity="0.2"/></g><g transform="translate(-14,-94) scale(1,1)"><path fill="none" stroke="#000000" d="M 528 132.5 C 528 125.59644 533.59644 120 540.5 120 C 547.40356 120 553 125.59644 553 132.5 C 553 139.40356 547.40356 145 540.5 145 C 533.59644 145 528 139.40356 528 132.5 Z" stroke-miterlimit="10"/></g><g transform="translate(-14,-94) scale(1,1)"><path fill="#000000" stroke="none" d="M 533 132.5 C 533 128.357864 536.357864 125 540.5 125 C 544.642136 125 548 128.357864 548 132.5 C 548 136.642136 544.642136 140 540.5 140 C 536.357864 140 533 136.642136 533 132.5 Z"/></g><g transform="translate(-14,-94) scale(1,1)"><path fill="#C0C0C0" stroke="none" d="M 505 247 L 591.5380859375 247 Q 601.5380859375 247 601.5380859375 257 L 601.5380859375 301 Q 601.5380859375 311 591.5380859375 311 L 505 311 Q 495 311 495 301 L 495 257 Q 495 247 505 247 Z" opacity="0.2"/></g><g transform="translate(-14,-94) scale(1,1)"><path fill="#ffffff" stroke="none" d="M 498 240 L 584.5380859375 240 Q 594.5380859375 240 594.5380859375 250 L 594.5380859375 294 Q 594.5380859375 304 584.5380859375 304 L 498 304 Q 488 304 488 294 L 488 250 Q 488 240 498 240 Z"/></g><g transform="translate(-14,-94) scale(1,1)"><path fill="none" stroke="#000000" d="M 498 240 L 584.5380859375 240 Q 594.5380859375 240 594.5380859375 250 L 594.5380859375 294 Q 594.5380859375 304 584.5380859375 304 L 498 304 Q 488 304 488 294 L 488 250 Q 488 240 498 240 Z" stroke-miterlimit="10"/></g><g transform="translate(-14,-94) scale(1,1)"><path fill="none" stroke="#000000" d="M 488 265 L 594.5380859375 265" stroke-miterlimit="10"/></g><g transform="translate(-14,-94) scale(1,1)"><g><path fill="none" stroke="none"/><text fill="#000000" stroke="none" font-family="Arial" font-size="13px" font-style="normal" font-weight="bold" text-decoration="none" x="501.1708984375" y="258">Envia Ordem</text></g></g><g transform="translate(-14,-94) scale(1,1)"><g><path fill="none" stroke="none"/><text fill="#000000" stroke="none" font-family="Arial" font-size="13px" font-style="normal" font-weight="normal" text-decoration="none" x="493" y="281">do/enviaOrdem</text></g></g><g transform="translate(-14,-94) scale(1,1)"><path fill="#C0C0C0" stroke="none" d="M 217 255 L 375.5458984375 255 Q 385.5458984375 255 385.5458984375 265 L 385.5458984375 292 Q 385.5458984375 302 375.5458984375 302 L 217 302 Q 207 302 207 292 L 207 265 Q 207 255 217 255 Z" opacity="0.2"/></g><g transform="translate(-14,-94) scale(1,1)"><path fill="#ffffff" stroke="none" d="M 210 248 L 368.5458984375 248 Q 378.5458984375 248 378.5458984375 258 L 378.5458984375 285 Q 378.5458984375 295 368.5458984375 295 L 210 295 Q 200 295 200 285 L 200 258 Q 200 248 210 248 Z"/></g><g transform="translate(-14,-94) scale(1,1)"><path fill="none" stroke="#000000" d="M 210 248 L 368.5458984375 248 Q 378.5458984375 248 378.5458984375 258 L 378.5458984375 285 Q 378.5458984375 295 368.5458984375 295 L 210 295 Q 200 295 200 285 L 200 258 Q 200 248 210 248 Z" stroke-miterlimit="10"/></g><g transform="translate(-14,-94) scale(1,1)"><path fill="none" stroke="#000000" d="M 200 273 L 378.5458984375 273" stroke-miterlimit="10"/></g><g transform="translate(-14,-94) scale(1,1)"><g><path fill="none" stroke="none"/><text fill="#000000" stroke="none" font-family="Arial" font-size="13px" font-style="normal" font-weight="bold" text-decoration="none" x="204.5" y="266">Visualizar Cotação de Ação</text></g></g><g transform="translate(-14,-94) scale(1,1)"><g><path fill="none" stroke="none"/><text fill="#000000" stroke="none" font-family="Arial" font-size="13px" font-style="normal" font-weight="normal" text-decoration="none" x="205" y="289">do/visualizaCotacao</text></g></g><g transform="translate(-14,-94) scale(1,1)"><path fill="none" stroke="#000000" d="M 44 273 L 199 272" stroke-miterlimit="10"/></g><g transform="translate(-14,-94) scale(1,1)"><path fill="none" stroke="#000000" d="M 188.8646942517338 276.2749944314773 L 199 272 L 188.81037902396963 267.8561341280343" stroke-miterlimit="10"/></g><g transform="translate(-14,-94) scale(1,1)"><g><path fill="none" stroke="none"/><text fill="#000000" stroke="none" font-family="Arial" font-size="13px" font-style="normal" font-weight="normal" text-decoration="none" x="53.5" y="259">[Comprar/Vender Ação]</text></g></g><g transform="translate(-14,-94) scale(1,1)"><path fill="none" stroke="#000000" d="M 380 271 L 487 272" stroke-miterlimit="10"/></g><g transform="translate(-14,-94) scale(1,1)"><path fill="none" stroke="#000000" d="M 476.79842936755244 276.11435980818203 L 487 272 L 476.8771085064359 267.69569194764966" stroke-miterlimit="10"/></g><g transform="translate(-14,-94) scale(1,1)"><g><path fill="none" stroke="none"/><text fill="#000000" stroke="none" font-family="Arial" font-size="13px" font-style="normal" font-weight="normal" text-decoration="none" x="395.5" y="261">[Cria Ordem]</text></g></g><g transform="translate(-14,-94) scale(1,1)"><path fill="#C0C0C0" stroke="none" d="M 473 415 L 626.708984375 415 Q 636.708984375 415 636.708984375 425 L 636.708984375 452 Q 636.708984375 462 626.708984375 462 L 473 462 Q 463 462 463 452 L 463 425 Q 463 415 473 415 Z" opacity="0.2"/></g><g transform="translate(-14,-94) scale(1,1)"><path fill="#ffffff" stroke="none" d="M 466 408 L 619.708984375 408 Q 629.708984375 408 629.708984375 418 L 629.708984375 445 Q 629.708984375 455 619.708984375 455 L 466 455 Q 456 455 456 445 L 456 418 Q 456 408 466 408 Z"/></g><g transform="translate(-14,-94) scale(1,1)"><path fill="none" stroke="#000000" d="M 466 408 L 619.708984375 408 Q 629.708984375 408 629.708984375 418 L 629.708984375 445 Q 629.708984375 455 619.708984375 455 L 466 455 Q 456 455 456 445 L 456 418 Q 456 408 466 408 Z" stroke-miterlimit="10"/></g><g transform="translate(-14,-94) scale(1,1)"><path fill="none" stroke="#000000" d="M 456 433 L 629.708984375 433" stroke-miterlimit="10"/></g><g transform="translate(-14,-94) scale(1,1)"><g><path fill="none" stroke="none"/><text fill="#000000" stroke="none" font-family="Arial" font-size="13px" font-style="normal" font-weight="bold" text-decoration="none" x="460.5" y="426">Modificar Ordem Existente</text></g></g><g transform="translate(-14,-94) scale(1,1)"><g><path fill="none" stroke="none"/><text fill="#000000" stroke="none" font-family="Arial" font-size="13px" font-style="normal" font-weight="normal" text-decoration="none" x="461" y="449">do/modificaOrdem</text></g></g><g transform="translate(-14,-94) scale(1,1)"><path fill="none" stroke="#000000" d="M 541 305 L 542 407" stroke-miterlimit="10"/></g><g transform="translate(-14,-94) scale(1,1)"><path fill="none" stroke="#000000" d="M 537.6910552529351 396.87908130816464 L 542 407 L 546.1096861884267 396.79654571075787" stroke-miterlimit="10"/></g><g transform="translate(-14,-94) scale(1,1)"><g><path fill="none" stroke="none"/><text fill="#000000" stroke="none" font-family="Arial" font-size="13px" font-style="normal" font-weight="normal" text-decoration="none" x="326.535888671875" y="360">[Se Ordem Existe] / Modifica Ordem</text></g></g><g transform="translate(-14,-94) scale(1,1)"><path fill="none" stroke="#000000" d="M 541 239 L 540 146" stroke-miterlimit="10"/></g><g transform="translate(-14,-94) scale(1,1)"><path fill="none" stroke="#000000" d="M 544.3185441812766 156.11682638747757 L 540 146 L 535.8999953327619 156.20734841810676" stroke-miterlimit="10"/></g><g transform="translate(-14,-94) scale(1,1)"><g><path fill="none" stroke="none"/><text fill="#000000" stroke="none" font-family="Arial" font-size="13px" font-style="normal" font-weight="normal" text-decoration="none" x="438.5" y="196">[Conclui Ordem]</text></g></g><g transform="translate(-14,-94) scale(1,1)"><path fill="#C0C0C0" stroke="none" d="M 217 111 L 375.56494140625 111 Q 385.56494140625 111 385.56494140625 121 L 385.56494140625 148 Q 385.56494140625 158 375.56494140625 158 L 217 158 Q 207 158 207 148 L 207 121 Q 207 111 217 111 Z" opacity="0.2"/></g><g transform="translate(-14,-94) scale(1,1)"><path fill="#ffffff" stroke="none" d="M 210 104 L 368.56494140625 104 Q 378.56494140625 104 378.56494140625 114 L 378.56494140625 141 Q 378.56494140625 151 368.56494140625 151 L 210 151 Q 200 151 200 141 L 200 114 Q 200 104 210 104 Z"/></g><g transform="translate(-14,-94) scale(1,1)"><path fill="none" stroke="#000000" d="M 210 104 L 368.56494140625 104 Q 378.56494140625 104 378.56494140625 114 L 378.56494140625 141 Q 378.56494140625 151 368.56494140625 151 L 210 151 Q 200 151 200 141 L 200 114 Q 200 104 210 104 Z" stroke-miterlimit="10"/></g><g transform="translate(-14,-94) scale(1,1)"><path fill="none" stroke="#000000" d="M 200 129 L 378.56494140625 129" stroke-miterlimit="10"/></g><g transform="translate(-14,-94) scale(1,1)"><g><path fill="none" stroke="none"/><text fill="#000000" stroke="none" font-family="Arial" font-size="13px" font-style="normal" font-weight="bold" text-decoration="none" x="204.5" y="122">Visualiza Ações na Carteira</text></g></g><g transform="translate(-14,-94) scale(1,1)"><g><path fill="none" stroke="none"/><text fill="#000000" stroke="none" font-family="Arial" font-size="13px" font-style="normal" font-weight="normal" text-decoration="none" x="205" y="145">do/visualizaAcoes</text></g></g><g transform="translate(-14,-94) scale(1,1)"><path fill="none" stroke="#000000" d="M 289 247 L 289 152" stroke-miterlimit="10"/></g><g transform="translate(-14,-94) scale(1,1)"><path fill="none" stroke="#000000" d="M 293.209517756016 162.16267485762415 L 289 152 L 284.790482243984 162.16267485762415" stroke-miterlimit="10"/></g><g transform="translate(-14,-94) scale(1,1)"><g><path fill="none" stroke="none"/><text fill="#000000" stroke="none" font-family="Arial" font-size="13px" font-style="normal" font-weight="normal" text-decoration="none" x="86.5" y="203">[Se Ação Existe] / Visualiza Ações</text></g></g></g></svg>