<svg version="1.1" xmlns="http://www.w3.org/2000/svg" xmlns:xlink="http://www.w3.org/1999/xlink" width="733" height="355"><defs/><g><text fill="#eeeeee" stroke="none" font-family="Arial" font-size="24px" font-style="normal" font-weight="normal" text-decoration="none" x="0" y="0">UNREGISTERED</text><text fill="#eeeeee" stroke="none" font-family="Arial" font-size="24px" font-style="normal" font-weight="normal" text-decoration="none" x="0" y="30">UNREGISTERED</text><text fill="#eeeeee" stroke="none" font-family="Arial" font-size="24px" font-style="normal" font-weight="normal" text-decoration="none" x="0" y="60">UNREGISTERED</text><text fill="#eeeeee" stroke="none" font-family="Arial" font-size="24px" font-style="normal" font-weight="normal" text-decoration="none" x="0" y="90">UNREGISTERED</text><text fill="#eeeeee" stroke="none" font-family="Arial" font-size="24px" font-style="normal" font-weight="normal" text-decoration="none" x="0" y="120">UNREGISTERED</text><text fill="#eeeeee" stroke="none" font-family="Arial" font-size="24px" font-style="normal" font-weight="normal" text-decoration="none" x="0" y="150">UNREGISTERED</text><text fill="#eeeeee" stroke="none" font-family="Arial" font-size="24px" font-style="normal" font-weight="normal" text-decoration="none" x="0" y="180">UNREGISTERED</text><text fill="#eeeeee" stroke="none" font-family="Arial" font-size="24px" font-style="normal" font-weight="normal" text-decoration="none" x="0" y="210">UNREGISTERED</text><text fill="#eeeeee" stroke="none" font-family="Arial" font-size="24px" font-style="normal" font-weight="normal" text-decoration="none" x="0" y="240">UNREGISTERED</text><text fill="#eeeeee" stroke="none" font-family="Arial" font-size="24px" font-style="normal" font-weight="normal" text-decoration="none" x="0" y="270">UNREGISTERED</text><text fill="#eeeeee" stroke="none" font-family="Arial" font-size="24px" font-style="normal" font-weight="normal" text-decoration="none" x="0" y="300">UNREGISTERED</text><text fill="#eeeeee" stroke="none" font-family="Arial" font-size="24px" font-style="normal" font-weight="normal" text-decoration="none" x="0" y="330">UNREGISTERED</text><text fill="#eeeeee" stroke="none" font-family="Arial" font-size="24px" font-style="normal" font-weight="normal" text-decoration="none" x="200" y="0">UNREGISTERED</text><text fill="#eeeeee" stroke="none" font-family="Arial" font-size="24px" font-style="normal" font-weight="normal" text-decoration="none" x="200" y="30">UNREGISTERED</text><text fill="#eeeeee" stroke="none" font-family="Arial" font-size="24px" font-style="normal" font-weight="normal" text-decoration="none" x="200" y="60">UNREGISTERED</text><text fill="#eeeeee" stroke="none" font-family="Arial" font-size="24px" font-style="normal" font-weight="normal" text-decoration="none" x="200" y="90">UNREGISTERED</text><text fill="#eeeeee" stroke="none" font-family="Arial" font-size="24px" font-style="normal" font-weight="normal" text-decoration="none" x="200" y="120">UNREGISTERED</text><text fill="#eeeeee" stroke="none" font-family="Arial" font-size="24px" font-style="normal" font-weight="normal" text-decoration="none" x="200" y="150">UNREGISTERED</text><text fill="#eeeeee" stroke="none" font-family="Arial" font-size="24px" font-style="normal" font-weight="normal" text-decoration="none" x="200" y="180">UNREGISTERED</text><text fill="#eeeeee" stroke="none" font-family="Arial" font-size="24px" font-style="normal" font-weight="normal" text-decoration="none" x="200" y="210">UNREGISTERED</text><text fill="#eeeeee" stroke="none" font-family="Arial" font-size="24px" font-style="normal" font-weight="normal" text-decoration="none" x="200" y="240">UNREGISTERED</text><text fill="#eeeeee" stroke="none" font-family="Arial" font-size="24px" font-style="normal" font-weight="normal" text-decoration="none" x="200" y="270">UNREGISTERED</text><text fill="#eeeeee" stroke="none" font-family="Arial" font-size="24px" font-style="normal" font-weight="normal" text-decoration="none" x="200" y="300">UNREGISTERED</text><text fill="#eeeeee" stroke="none" font-family="Arial" font-size="24px" font-style="normal" font-weight="normal" text-decoration="none" x="200" y="330">UNREGISTERED</text><text fill="#eeeeee" stroke="none" font-family="Arial" font-size="24px" font-style="normal" font-weight="normal" text-decoration="none" x="400" y="0">UNREGISTERED</text><text fill="#eeeeee" stroke="none" font-family="Arial" font-size="24px" font-style="normal" font-weight="normal" text-decoration="none" x="400" y="30">UNREGISTERED</text><text fill="#eeeeee" stroke="none" font-family="Arial" font-size="24px" font-style="normal" font-weight="normal" text-decoration="none" x="400" y="60">UNREGISTERED</text><text fill="#eeeeee" stroke="none" font-family="Arial" font-size="24px" font-style="normal" font-weight="normal" text-decoration="none" x="400" y="90">UNREGISTERED</text><text fill="#eeeeee" stroke="none" font-family="Arial" font-size="24px" font-style="normal" font-weight="normal" text-decoration="none" x="400" y="120">UNREGISTERED</text><text fill="#eeeeee" stroke="none" font-family="Arial" font-size="24px" font-style="normal" font-weight="normal" text-decoration="none" x="400" y="150">UNREGISTERED</text><text fill="#eeeeee" stroke="none" font-family="Arial" font-size="24px" font-style="normal" font-weight="normal" text-decoration="none" x="400" y="180">UNREGISTERED</text><text fill="#eeeeee" stroke="none" font-family="Arial" font-size="24px" font-style="normal" font-weight="normal" text-decoration="none" x="400" y="210">UNREGISTERED</text><text fill="#eeeeee" stroke="none" font-family="Arial" font-size="24px" font-style="normal" font-weight="normal" text-decoration="none" x="400" y="240">UNREGISTERED</text><text fill="#eeeeee" stroke="none" font-family="Arial" font-size="24px" font-style="normal" font-weight="normal" text-decoration="none" x="400" y="270">UNREGISTERED</text><text fill="#eeeeee" stroke="none" font-family="Arial" font-size="24px" font-style="normal" font-weight="normal" text-decoration="none" x="400" y="300">UNREGISTERED</text><text fill="#eeeeee" stroke="none" font-family="Arial" font-size="24px" font-style="normal" font-weight="normal" text-decoration="none" x="400" y="330">UNREGISTERED</text><text fill="#eeeeee" stroke="none" font-family="Arial" font-size="24px" font-style="normal" font-weight="normal" text-decoration="none" x="600" y="0">UNREGISTERED</text><text fill="#eeeeee" stroke="none" font-family="Arial" font-size="24px" font-style="normal" font-weight="normal" text-decoration="none" x="600" y="30">UNREGISTERED</text><text fill="#eeeeee" stroke="none" font-family="Arial" font-size="24px" font-style="normal" font-weight="normal" text-decoration="none" x="600" y="60">UNREGISTERED</text><text fill="#eeeeee" stroke="none" font-family="Arial" font-size="24px" font-style="normal" font-weight="normal" text-decoration="none" x="600" y="90">UNREGISTERED</text><text fill="#eeeeee" stroke="none" font-family="Arial" font-size="24px" font-style="normal" font-weight="normal" text-decoration="none" x="600" y="120">UNREGISTERED</text><text fill="#eeeeee" stroke="none" font-family="Arial" font-size="24px" font-style="normal" font-weight="normal" text-decoration="none" x="600" y="150">UNREGISTERED</text><text fill="#eeeeee" stroke="none" font-family="Arial" font-size="24px" font-style="normal" font-weight="normal" text-decoration="none" x="600" y="180">UNREGISTERED</text><text fill="#eeeeee" stroke="none" font-family="Arial" font-size="24px" font-style="normal" font-weight="normal" text-decoration="none" x="600" y="210">UNREGISTERED</text><text fill="#eeeeee" stroke="none" font-family="Arial" font-size="24px" font-style="normal" font-weight="normal" text-decoration="none" x="600" y="240">UNREGISTERED</text><text fill="#eeeeee" stroke="none" font-family="Arial" font-size="24px" font-style="normal" font-weight="normal" text-decoration="none" x="600" y="270">UNREGISTERED</text><text fill="#eeeeee" stroke="none" font-family="Arial" font-size="24px" font-style="normal" font-weight="normal" text-decoration="none" x="600" y="300">UNREGISTERED</text><text fill="#eeeeee" stroke="none" font-family="Arial" font-size="24px" font-style="normal" font-weight="normal" text-decoration="none" x="600" y="330">UNREGISTERED</text><g transform="translate(-198,-174) scale(1,1)"><path fill="#C0C0C0" stroke="none" d="M 215 344.5 C 215 339.2532944 219.2532944 335 224.5 335 C 229.7467056 335 234 339.2532944 234 344.5 C 234 349.7467056 229.7467056 354 224.5 354 C 219.2532944 354 215 349.7467056 215 344.5 Z" opacity="0.2"/></g><g transform="translate(-198,-174) scale(1,1)"><path fill="#000000" stroke="none" d="M 208 337.5 C 208 332.2532944 212.2532944 328 217.5 328 C 222.7467056 328 227 332.2532944 227 337.5 C 227 342.7467056 222.7467056 347 217.5 347 C 212.2532944 347 208 342.7467056 208 337.5 Z"/></g><g transform="translate(-198,-174) scale(1,1)"><path fill="#C0C0C0" stroke="none" d="M 425 319 L 598.93896484375 319 Q 608.93896484375 319 608.93896484375 329 L 608.93896484375 356 Q 608.93896484375 366 598.93896484375 366 L 425 366 Q 415 366 415 356 L 415 329 Q 415 319 425 319 Z" opacity="0.2"/></g><g transform="translate(-198,-174) scale(1,1)"><path fill="#ffffff" stroke="none" d="M 418 312 L 591.93896484375 312 Q 601.93896484375 312 601.93896484375 322 L 601.93896484375 349 Q 601.93896484375 359 591.93896484375 359 L 418 359 Q 408 359 408 349 L 408 322 Q 408 312 418 312 Z"/></g><g transform="translate(-198,-174) scale(1,1)"><path fill="none" stroke="#000000" d="M 418 312 L 591.93896484375 312 Q 601.93896484375 312 601.93896484375 322 L 601.93896484375 349 Q 601.93896484375 359 591.93896484375 359 L 418 359 Q 408 359 408 349 L 408 322 Q 408 312 418 312 Z" stroke-miterlimit="10"/></g><g transform="translate(-198,-174) scale(1,1)"><path fill="none" stroke="#000000" d="M 408 337 L 601.93896484375 337" stroke-miterlimit="10"/></g><g transform="translate(-198,-174) scale(1,1)"><g><path fill="none" stroke="none"/><text fill="#000000" stroke="none" font-family="Arial" font-size="13px" font-style="normal" font-weight="bold" text-decoration="none" x="412.5" y="330">Recebe Operação do [Cliente]</text></g></g><g transform="translate(-198,-174) scale(1,1)"><g><path fill="none" stroke="none"/><text fill="#000000" stroke="none" font-family="Arial" font-size="13px" font-style="normal" font-weight="normal" text-decoration="none" x="413" y="353">do/geraCompra</text></g></g><g transform="translate(-198,-174) scale(1,1)"><path fill="none" stroke="#000000" d="M 228 337 L 407 336" stroke-miterlimit="10"/></g><g transform="translate(-198,-174) scale(1,1)"><path fill="none" stroke="#000000" d="M 396.86100021926677 340.26622590192926 L 407 336 L 396.8139672352668 331.8473217659225" stroke-miterlimit="10"/></g><g transform="translate(-198,-174) scale(1,1)"><g><path fill="none" stroke="none"/><text fill="#000000" stroke="none" font-family="Arial" font-size="13px" font-style="normal" font-weight="normal" text-decoration="none" x="257.5" y="326">[Recebe Solicitação]</text></g></g><g transform="translate(-198,-174) scale(1,1)"><path fill="#C0C0C0" stroke="none" d="M 633 191 L 757.83349609375 191 Q 767.83349609375 191 767.83349609375 201 L 767.83349609375 228 Q 767.83349609375 238 757.83349609375 238 L 633 238 Q 623 238 623 228 L 623 201 Q 623 191 633 191 Z" opacity="0.2"/></g><g transform="translate(-198,-174) scale(1,1)"><path fill="#ffffff" stroke="none" d="M 626 184 L 750.83349609375 184 Q 760.83349609375 184 760.83349609375 194 L 760.83349609375 221 Q 760.83349609375 231 750.83349609375 231 L 626 231 Q 616 231 616 221 L 616 194 Q 616 184 626 184 Z"/></g><g transform="translate(-198,-174) scale(1,1)"><path fill="none" stroke="#000000" d="M 626 184 L 750.83349609375 184 Q 760.83349609375 184 760.83349609375 194 L 760.83349609375 221 Q 760.83349609375 231 750.83349609375 231 L 626 231 Q 616 231 616 221 L 616 194 Q 616 184 626 184 Z" stroke-miterlimit="10"/></g><g transform="translate(-198,-174) scale(1,1)"><path fill="none" stroke="#000000" d="M 616 209 L 760.83349609375 209" stroke-miterlimit="10"/></g><g transform="translate(-198,-174) scale(1,1)"><g><path fill="none" stroke="none"/><text fill="#000000" stroke="none" font-family="Arial" font-size="13px" font-style="normal" font-weight="bold" text-decoration="none" x="620.5" y="202">Gera Ordem de Venda</text></g></g><g transform="translate(-198,-174) scale(1,1)"><g><path fill="none" stroke="none"/><text fill="#000000" stroke="none" font-family="Arial" font-size="13px" font-style="normal" font-weight="normal" text-decoration="none" x="621" y="225">do/vendeAcao</text></g></g><g transform="translate(-198,-174) scale(1,1)"><path fill="#C0C0C0" stroke="none" d="M 633 479 L 768.65625 479 Q 778.65625 479 778.65625 489 L 778.65625 516 Q 778.65625 526 768.65625 526 L 633 526 Q 623 526 623 516 L 623 489 Q 623 479 633 479 Z" opacity="0.2"/></g><g transform="translate(-198,-174) scale(1,1)"><path fill="#ffffff" stroke="none" d="M 626 472 L 761.65625 472 Q 771.65625 472 771.65625 482 L 771.65625 509 Q 771.65625 519 761.65625 519 L 626 519 Q 616 519 616 509 L 616 482 Q 616 472 626 472 Z"/></g><g transform="translate(-198,-174) scale(1,1)"><path fill="none" stroke="#000000" d="M 626 472 L 761.65625 472 Q 771.65625 472 771.65625 482 L 771.65625 509 Q 771.65625 519 761.65625 519 L 626 519 Q 616 519 616 509 L 616 482 Q 616 472 626 472 Z" stroke-miterlimit="10"/></g><g transform="translate(-198,-174) scale(1,1)"><path fill="none" stroke="#000000" d="M 616 497 L 771.65625 497" stroke-miterlimit="10"/></g><g transform="translate(-198,-174) scale(1,1)"><g><path fill="none" stroke="none"/><text fill="#000000" stroke="none" font-family="Arial" font-size="13px" font-style="normal" font-weight="bold" text-decoration="none" x="620.5" y="490">Gera Ordem de Compra</text></g></g><g transform="translate(-198,-174) scale(1,1)"><g><path fill="none" stroke="none"/><text fill="#000000" stroke="none" font-family="Arial" font-size="13px" font-style="normal" font-weight="normal" text-decoration="none" x="621" y="513">do/compraAcao</text></g></g><g transform="translate(-198,-174) scale(1,1)"><path fill="#C0C0C0" stroke="none" d="M 687 344.5 L 698.5 335 L 709 344.5 L 698.5 353 L 687 344.5" opacity="0.2"/></g><g transform="translate(-198,-174) scale(1,1)"><path fill="#ffffff" stroke="none" d="M 680 337 L 691 328 L 702 337 L 691 346 L 680 337"/></g><g transform="translate(-198,-174) scale(1,1)"><path fill="none" stroke="#000000" d="M 680 337 L 691 328 L 702 337 L 691 346 L 680 337 L 680 337" stroke-miterlimit="10"/></g><g transform="translate(-198,-174) scale(1,1)"><path fill="none" stroke="#000000" d="M 603 336 L 679 337" stroke-miterlimit="10"/></g><g transform="translate(-198,-174) scale(1,1)"><path fill="none" stroke="#000000" d="M 668.7828211636479 341.0754455739218 L 679 337 L 668.893588358543 332.65713876189653" stroke-miterlimit="10"/></g><g transform="translate(-198,-174) scale(1,1)"><path fill="none" stroke="#000000" d="M 691 327 L 689 232" stroke-miterlimit="10"/></g><g transform="translate(-198,-174) scale(1,1)"><path fill="none" stroke="#000000" d="M 693.422488861286 242.07182169579076 L 689 232 L 685.0053184435419 242.24902528353275" stroke-miterlimit="10"/></g><g transform="translate(-198,-174) scale(1,1)"><g><path fill="none" stroke="none"/><text fill="#000000" stroke="none" font-family="Arial" font-size="13px" font-style="normal" font-weight="normal" text-decoration="none" x="502.5" y="275">[Se Ordem é Venda] / Gera OV</text></g></g><g transform="translate(-198,-174) scale(1,1)"><path fill="none" stroke="#000000" d="M 691 347 L 693 471" stroke-miterlimit="10"/></g><g transform="translate(-198,-174) scale(1,1)"><path fill="none" stroke="#000000" d="M 688.6271368871173 460.90653339055456 L 693 471 L 697.045077524899 460.7707601544613" stroke-miterlimit="10"/></g><g transform="translate(-198,-174) scale(1,1)"><g><path fill="none" stroke="none"/><text fill="#000000" stroke="none" font-family="Arial" font-size="13px" font-style="normal" font-weight="normal" text-decoration="none" x="493.5" y="418">[Se Ordem é Compra] / Gera OC</text></g></g><g transform="translate(-198,-174) scale(1,1)"><path fill="#C0C0C0" stroke="none" d="M 903 339.5 C 903 332.59644 908.59644 327 915.5 327 C 922.40356 327 928 332.59644 928 339.5 C 928 346.40356 922.40356 352 915.5 352 C 908.59644 352 903 346.40356 903 339.5 Z" opacity="0.2"/></g><g transform="translate(-198,-174) scale(1,1)"><path fill="none" stroke="#000000" d="M 896 332.5 C 896 325.59644 901.59644 320 908.5 320 C 915.40356 320 921 325.59644 921 332.5 C 921 339.40356 915.40356 345 908.5 345 C 901.59644 345 896 339.40356 896 332.5 Z" stroke-miterlimit="10"/></g><g transform="translate(-198,-174) scale(1,1)"><path fill="#000000" stroke="none" d="M 901 332.5 C 901 328.357864 904.357864 325 908.5 325 C 912.642136 325 916 328.357864 916 332.5 C 916 336.642136 912.642136 340 908.5 340 C 904.357864 340 901 336.642136 901 332.5 Z"/></g><g transform="translate(-198,-174) scale(1,1)"><path fill="none" stroke="#000000" d="M 703 337 L 895 332" stroke-miterlimit="10"/></g><g transform="translate(-198,-174) scale(1,1)"><path fill="none" stroke="#000000" d="M 884.9503550988723 336.4726543976969 L 895 332 L 884.7311836873805 328.0564721964111" stroke-miterlimit="10"/></g><g transform="translate(-198,-174) scale(1,1)"><g><path fill="none" stroke="none"/><text fill="#000000" stroke="none" font-family="Arial" font-size="13px" font-style="normal" font-weight="normal" text-decoration="none" x="710.5" y="324">[Conclui Operação de OC/OV]</text></g></g></g></svg>